%
M48
M72
T01C0.0200
T02C0.0400
T03C0.1300
%
T01
X4180Y4340
X4180Y10639
X12526Y10639
X12526Y4340
T02
X830Y640
X1830Y640
X2830Y640
X3830Y640
X4830Y640
X5830Y640
X6830Y640
X7830Y640
X9176Y640
X10176Y640
X11176Y640
X12176Y640
X13176Y640
X14176Y640
X15176Y640
X16176Y640
X16176Y6939
X15176Y6939
X14176Y6939
X13176Y6939
X12176Y6939
X11176Y6939
X10176Y6939
X9176Y6939
X7830Y6939
X6830Y6939
X5830Y6939
X4830Y6939
X3830Y6939
X2830Y6939
X1830Y6939
X830Y6939
T03
X1330Y5140
X7330Y5140
X9676Y5140
X15676Y5140
X15676Y11439
X9676Y11439
X7330Y11439
X1330Y11439
M30
