G75*
%MOIN*%
%OFA0B0*%
%FSLAX24Y24*%
%IPPOS*%
%LPD*%
%AMOC8*
5,1,8,0,0,1.08239X$1,22.5*
%
%ADD10C,0.0080*%
%ADD11C,0.0000*%
D10*
X000330Y000140D02*
X000330Y006140D01*
X008330Y006140D01*
X008330Y000140D01*
X000330Y000140D01*
X000330Y006439D02*
X000330Y012439D01*
X008330Y012439D01*
X008330Y006439D01*
X000330Y006439D01*
X008676Y006439D02*
X008676Y012439D01*
X016676Y012439D01*
X016676Y006439D01*
X008676Y006439D01*
X008676Y006140D02*
X008676Y000140D01*
X016676Y000140D01*
X016676Y006140D01*
X008676Y006140D01*
D11*
X009026Y005140D02*
X009028Y005190D01*
X009034Y005240D01*
X009044Y005290D01*
X009057Y005338D01*
X009074Y005386D01*
X009095Y005432D01*
X009119Y005476D01*
X009147Y005518D01*
X009178Y005558D01*
X009212Y005595D01*
X009249Y005630D01*
X009288Y005661D01*
X009329Y005690D01*
X009373Y005715D01*
X009419Y005737D01*
X009466Y005755D01*
X009514Y005769D01*
X009563Y005780D01*
X009613Y005787D01*
X009663Y005790D01*
X009714Y005789D01*
X009764Y005784D01*
X009814Y005775D01*
X009862Y005763D01*
X009910Y005746D01*
X009956Y005726D01*
X010001Y005703D01*
X010044Y005676D01*
X010084Y005646D01*
X010122Y005613D01*
X010157Y005577D01*
X010190Y005538D01*
X010219Y005497D01*
X010245Y005454D01*
X010268Y005409D01*
X010287Y005362D01*
X010302Y005314D01*
X010314Y005265D01*
X010322Y005215D01*
X010326Y005165D01*
X010326Y005115D01*
X010322Y005065D01*
X010314Y005015D01*
X010302Y004966D01*
X010287Y004918D01*
X010268Y004871D01*
X010245Y004826D01*
X010219Y004783D01*
X010190Y004742D01*
X010157Y004703D01*
X010122Y004667D01*
X010084Y004634D01*
X010044Y004604D01*
X010001Y004577D01*
X009956Y004554D01*
X009910Y004534D01*
X009862Y004517D01*
X009814Y004505D01*
X009764Y004496D01*
X009714Y004491D01*
X009663Y004490D01*
X009613Y004493D01*
X009563Y004500D01*
X009514Y004511D01*
X009466Y004525D01*
X009419Y004543D01*
X009373Y004565D01*
X009329Y004590D01*
X009288Y004619D01*
X009249Y004650D01*
X009212Y004685D01*
X009178Y004722D01*
X009147Y004762D01*
X009119Y004804D01*
X009095Y004848D01*
X009074Y004894D01*
X009057Y004942D01*
X009044Y004990D01*
X009034Y005040D01*
X009028Y005090D01*
X009026Y005140D01*
X006680Y005140D02*
X006682Y005190D01*
X006688Y005240D01*
X006698Y005290D01*
X006711Y005338D01*
X006728Y005386D01*
X006749Y005432D01*
X006773Y005476D01*
X006801Y005518D01*
X006832Y005558D01*
X006866Y005595D01*
X006903Y005630D01*
X006942Y005661D01*
X006983Y005690D01*
X007027Y005715D01*
X007073Y005737D01*
X007120Y005755D01*
X007168Y005769D01*
X007217Y005780D01*
X007267Y005787D01*
X007317Y005790D01*
X007368Y005789D01*
X007418Y005784D01*
X007468Y005775D01*
X007516Y005763D01*
X007564Y005746D01*
X007610Y005726D01*
X007655Y005703D01*
X007698Y005676D01*
X007738Y005646D01*
X007776Y005613D01*
X007811Y005577D01*
X007844Y005538D01*
X007873Y005497D01*
X007899Y005454D01*
X007922Y005409D01*
X007941Y005362D01*
X007956Y005314D01*
X007968Y005265D01*
X007976Y005215D01*
X007980Y005165D01*
X007980Y005115D01*
X007976Y005065D01*
X007968Y005015D01*
X007956Y004966D01*
X007941Y004918D01*
X007922Y004871D01*
X007899Y004826D01*
X007873Y004783D01*
X007844Y004742D01*
X007811Y004703D01*
X007776Y004667D01*
X007738Y004634D01*
X007698Y004604D01*
X007655Y004577D01*
X007610Y004554D01*
X007564Y004534D01*
X007516Y004517D01*
X007468Y004505D01*
X007418Y004496D01*
X007368Y004491D01*
X007317Y004490D01*
X007267Y004493D01*
X007217Y004500D01*
X007168Y004511D01*
X007120Y004525D01*
X007073Y004543D01*
X007027Y004565D01*
X006983Y004590D01*
X006942Y004619D01*
X006903Y004650D01*
X006866Y004685D01*
X006832Y004722D01*
X006801Y004762D01*
X006773Y004804D01*
X006749Y004848D01*
X006728Y004894D01*
X006711Y004942D01*
X006698Y004990D01*
X006688Y005040D01*
X006682Y005090D01*
X006680Y005140D01*
X000680Y005140D02*
X000682Y005190D01*
X000688Y005240D01*
X000698Y005290D01*
X000711Y005338D01*
X000728Y005386D01*
X000749Y005432D01*
X000773Y005476D01*
X000801Y005518D01*
X000832Y005558D01*
X000866Y005595D01*
X000903Y005630D01*
X000942Y005661D01*
X000983Y005690D01*
X001027Y005715D01*
X001073Y005737D01*
X001120Y005755D01*
X001168Y005769D01*
X001217Y005780D01*
X001267Y005787D01*
X001317Y005790D01*
X001368Y005789D01*
X001418Y005784D01*
X001468Y005775D01*
X001516Y005763D01*
X001564Y005746D01*
X001610Y005726D01*
X001655Y005703D01*
X001698Y005676D01*
X001738Y005646D01*
X001776Y005613D01*
X001811Y005577D01*
X001844Y005538D01*
X001873Y005497D01*
X001899Y005454D01*
X001922Y005409D01*
X001941Y005362D01*
X001956Y005314D01*
X001968Y005265D01*
X001976Y005215D01*
X001980Y005165D01*
X001980Y005115D01*
X001976Y005065D01*
X001968Y005015D01*
X001956Y004966D01*
X001941Y004918D01*
X001922Y004871D01*
X001899Y004826D01*
X001873Y004783D01*
X001844Y004742D01*
X001811Y004703D01*
X001776Y004667D01*
X001738Y004634D01*
X001698Y004604D01*
X001655Y004577D01*
X001610Y004554D01*
X001564Y004534D01*
X001516Y004517D01*
X001468Y004505D01*
X001418Y004496D01*
X001368Y004491D01*
X001317Y004490D01*
X001267Y004493D01*
X001217Y004500D01*
X001168Y004511D01*
X001120Y004525D01*
X001073Y004543D01*
X001027Y004565D01*
X000983Y004590D01*
X000942Y004619D01*
X000903Y004650D01*
X000866Y004685D01*
X000832Y004722D01*
X000801Y004762D01*
X000773Y004804D01*
X000749Y004848D01*
X000728Y004894D01*
X000711Y004942D01*
X000698Y004990D01*
X000688Y005040D01*
X000682Y005090D01*
X000680Y005140D01*
X000680Y011439D02*
X000682Y011489D01*
X000688Y011539D01*
X000698Y011589D01*
X000711Y011637D01*
X000728Y011685D01*
X000749Y011731D01*
X000773Y011775D01*
X000801Y011817D01*
X000832Y011857D01*
X000866Y011894D01*
X000903Y011929D01*
X000942Y011960D01*
X000983Y011989D01*
X001027Y012014D01*
X001073Y012036D01*
X001120Y012054D01*
X001168Y012068D01*
X001217Y012079D01*
X001267Y012086D01*
X001317Y012089D01*
X001368Y012088D01*
X001418Y012083D01*
X001468Y012074D01*
X001516Y012062D01*
X001564Y012045D01*
X001610Y012025D01*
X001655Y012002D01*
X001698Y011975D01*
X001738Y011945D01*
X001776Y011912D01*
X001811Y011876D01*
X001844Y011837D01*
X001873Y011796D01*
X001899Y011753D01*
X001922Y011708D01*
X001941Y011661D01*
X001956Y011613D01*
X001968Y011564D01*
X001976Y011514D01*
X001980Y011464D01*
X001980Y011414D01*
X001976Y011364D01*
X001968Y011314D01*
X001956Y011265D01*
X001941Y011217D01*
X001922Y011170D01*
X001899Y011125D01*
X001873Y011082D01*
X001844Y011041D01*
X001811Y011002D01*
X001776Y010966D01*
X001738Y010933D01*
X001698Y010903D01*
X001655Y010876D01*
X001610Y010853D01*
X001564Y010833D01*
X001516Y010816D01*
X001468Y010804D01*
X001418Y010795D01*
X001368Y010790D01*
X001317Y010789D01*
X001267Y010792D01*
X001217Y010799D01*
X001168Y010810D01*
X001120Y010824D01*
X001073Y010842D01*
X001027Y010864D01*
X000983Y010889D01*
X000942Y010918D01*
X000903Y010949D01*
X000866Y010984D01*
X000832Y011021D01*
X000801Y011061D01*
X000773Y011103D01*
X000749Y011147D01*
X000728Y011193D01*
X000711Y011241D01*
X000698Y011289D01*
X000688Y011339D01*
X000682Y011389D01*
X000680Y011439D01*
X006680Y011439D02*
X006682Y011489D01*
X006688Y011539D01*
X006698Y011589D01*
X006711Y011637D01*
X006728Y011685D01*
X006749Y011731D01*
X006773Y011775D01*
X006801Y011817D01*
X006832Y011857D01*
X006866Y011894D01*
X006903Y011929D01*
X006942Y011960D01*
X006983Y011989D01*
X007027Y012014D01*
X007073Y012036D01*
X007120Y012054D01*
X007168Y012068D01*
X007217Y012079D01*
X007267Y012086D01*
X007317Y012089D01*
X007368Y012088D01*
X007418Y012083D01*
X007468Y012074D01*
X007516Y012062D01*
X007564Y012045D01*
X007610Y012025D01*
X007655Y012002D01*
X007698Y011975D01*
X007738Y011945D01*
X007776Y011912D01*
X007811Y011876D01*
X007844Y011837D01*
X007873Y011796D01*
X007899Y011753D01*
X007922Y011708D01*
X007941Y011661D01*
X007956Y011613D01*
X007968Y011564D01*
X007976Y011514D01*
X007980Y011464D01*
X007980Y011414D01*
X007976Y011364D01*
X007968Y011314D01*
X007956Y011265D01*
X007941Y011217D01*
X007922Y011170D01*
X007899Y011125D01*
X007873Y011082D01*
X007844Y011041D01*
X007811Y011002D01*
X007776Y010966D01*
X007738Y010933D01*
X007698Y010903D01*
X007655Y010876D01*
X007610Y010853D01*
X007564Y010833D01*
X007516Y010816D01*
X007468Y010804D01*
X007418Y010795D01*
X007368Y010790D01*
X007317Y010789D01*
X007267Y010792D01*
X007217Y010799D01*
X007168Y010810D01*
X007120Y010824D01*
X007073Y010842D01*
X007027Y010864D01*
X006983Y010889D01*
X006942Y010918D01*
X006903Y010949D01*
X006866Y010984D01*
X006832Y011021D01*
X006801Y011061D01*
X006773Y011103D01*
X006749Y011147D01*
X006728Y011193D01*
X006711Y011241D01*
X006698Y011289D01*
X006688Y011339D01*
X006682Y011389D01*
X006680Y011439D01*
X009026Y011439D02*
X009028Y011489D01*
X009034Y011539D01*
X009044Y011589D01*
X009057Y011637D01*
X009074Y011685D01*
X009095Y011731D01*
X009119Y011775D01*
X009147Y011817D01*
X009178Y011857D01*
X009212Y011894D01*
X009249Y011929D01*
X009288Y011960D01*
X009329Y011989D01*
X009373Y012014D01*
X009419Y012036D01*
X009466Y012054D01*
X009514Y012068D01*
X009563Y012079D01*
X009613Y012086D01*
X009663Y012089D01*
X009714Y012088D01*
X009764Y012083D01*
X009814Y012074D01*
X009862Y012062D01*
X009910Y012045D01*
X009956Y012025D01*
X010001Y012002D01*
X010044Y011975D01*
X010084Y011945D01*
X010122Y011912D01*
X010157Y011876D01*
X010190Y011837D01*
X010219Y011796D01*
X010245Y011753D01*
X010268Y011708D01*
X010287Y011661D01*
X010302Y011613D01*
X010314Y011564D01*
X010322Y011514D01*
X010326Y011464D01*
X010326Y011414D01*
X010322Y011364D01*
X010314Y011314D01*
X010302Y011265D01*
X010287Y011217D01*
X010268Y011170D01*
X010245Y011125D01*
X010219Y011082D01*
X010190Y011041D01*
X010157Y011002D01*
X010122Y010966D01*
X010084Y010933D01*
X010044Y010903D01*
X010001Y010876D01*
X009956Y010853D01*
X009910Y010833D01*
X009862Y010816D01*
X009814Y010804D01*
X009764Y010795D01*
X009714Y010790D01*
X009663Y010789D01*
X009613Y010792D01*
X009563Y010799D01*
X009514Y010810D01*
X009466Y010824D01*
X009419Y010842D01*
X009373Y010864D01*
X009329Y010889D01*
X009288Y010918D01*
X009249Y010949D01*
X009212Y010984D01*
X009178Y011021D01*
X009147Y011061D01*
X009119Y011103D01*
X009095Y011147D01*
X009074Y011193D01*
X009057Y011241D01*
X009044Y011289D01*
X009034Y011339D01*
X009028Y011389D01*
X009026Y011439D01*
X015026Y011439D02*
X015028Y011489D01*
X015034Y011539D01*
X015044Y011589D01*
X015057Y011637D01*
X015074Y011685D01*
X015095Y011731D01*
X015119Y011775D01*
X015147Y011817D01*
X015178Y011857D01*
X015212Y011894D01*
X015249Y011929D01*
X015288Y011960D01*
X015329Y011989D01*
X015373Y012014D01*
X015419Y012036D01*
X015466Y012054D01*
X015514Y012068D01*
X015563Y012079D01*
X015613Y012086D01*
X015663Y012089D01*
X015714Y012088D01*
X015764Y012083D01*
X015814Y012074D01*
X015862Y012062D01*
X015910Y012045D01*
X015956Y012025D01*
X016001Y012002D01*
X016044Y011975D01*
X016084Y011945D01*
X016122Y011912D01*
X016157Y011876D01*
X016190Y011837D01*
X016219Y011796D01*
X016245Y011753D01*
X016268Y011708D01*
X016287Y011661D01*
X016302Y011613D01*
X016314Y011564D01*
X016322Y011514D01*
X016326Y011464D01*
X016326Y011414D01*
X016322Y011364D01*
X016314Y011314D01*
X016302Y011265D01*
X016287Y011217D01*
X016268Y011170D01*
X016245Y011125D01*
X016219Y011082D01*
X016190Y011041D01*
X016157Y011002D01*
X016122Y010966D01*
X016084Y010933D01*
X016044Y010903D01*
X016001Y010876D01*
X015956Y010853D01*
X015910Y010833D01*
X015862Y010816D01*
X015814Y010804D01*
X015764Y010795D01*
X015714Y010790D01*
X015663Y010789D01*
X015613Y010792D01*
X015563Y010799D01*
X015514Y010810D01*
X015466Y010824D01*
X015419Y010842D01*
X015373Y010864D01*
X015329Y010889D01*
X015288Y010918D01*
X015249Y010949D01*
X015212Y010984D01*
X015178Y011021D01*
X015147Y011061D01*
X015119Y011103D01*
X015095Y011147D01*
X015074Y011193D01*
X015057Y011241D01*
X015044Y011289D01*
X015034Y011339D01*
X015028Y011389D01*
X015026Y011439D01*
X015026Y005140D02*
X015028Y005190D01*
X015034Y005240D01*
X015044Y005290D01*
X015057Y005338D01*
X015074Y005386D01*
X015095Y005432D01*
X015119Y005476D01*
X015147Y005518D01*
X015178Y005558D01*
X015212Y005595D01*
X015249Y005630D01*
X015288Y005661D01*
X015329Y005690D01*
X015373Y005715D01*
X015419Y005737D01*
X015466Y005755D01*
X015514Y005769D01*
X015563Y005780D01*
X015613Y005787D01*
X015663Y005790D01*
X015714Y005789D01*
X015764Y005784D01*
X015814Y005775D01*
X015862Y005763D01*
X015910Y005746D01*
X015956Y005726D01*
X016001Y005703D01*
X016044Y005676D01*
X016084Y005646D01*
X016122Y005613D01*
X016157Y005577D01*
X016190Y005538D01*
X016219Y005497D01*
X016245Y005454D01*
X016268Y005409D01*
X016287Y005362D01*
X016302Y005314D01*
X016314Y005265D01*
X016322Y005215D01*
X016326Y005165D01*
X016326Y005115D01*
X016322Y005065D01*
X016314Y005015D01*
X016302Y004966D01*
X016287Y004918D01*
X016268Y004871D01*
X016245Y004826D01*
X016219Y004783D01*
X016190Y004742D01*
X016157Y004703D01*
X016122Y004667D01*
X016084Y004634D01*
X016044Y004604D01*
X016001Y004577D01*
X015956Y004554D01*
X015910Y004534D01*
X015862Y004517D01*
X015814Y004505D01*
X015764Y004496D01*
X015714Y004491D01*
X015663Y004490D01*
X015613Y004493D01*
X015563Y004500D01*
X015514Y004511D01*
X015466Y004525D01*
X015419Y004543D01*
X015373Y004565D01*
X015329Y004590D01*
X015288Y004619D01*
X015249Y004650D01*
X015212Y004685D01*
X015178Y004722D01*
X015147Y004762D01*
X015119Y004804D01*
X015095Y004848D01*
X015074Y004894D01*
X015057Y004942D01*
X015044Y004990D01*
X015034Y005040D01*
X015028Y005090D01*
X015026Y005140D01*
M02*
