G75*
%MOIN*%
%OFA0B0*%
%FSLAX24Y24*%
%IPPOS*%
%LPD*%
%AMOC8*
5,1,8,0,0,1.08239X$1,22.5*
%
%ADD10C,0.0080*%
%ADD11R,0.0740X0.0740*%
%ADD12C,0.0740*%
%ADD13C,0.0000*%
%ADD14C,0.0400*%
D10*
X000330Y000140D02*
X000330Y006140D01*
X008330Y006140D01*
X008330Y000140D01*
X000330Y000140D01*
X000790Y000680D02*
X000790Y001150D01*
X000530Y001150D01*
X000530Y004666D01*
X000607Y004533D01*
X000858Y004322D01*
X001166Y004210D01*
X001494Y004210D01*
X001802Y004322D01*
X001802Y004322D01*
X002053Y004533D01*
X002053Y004533D01*
X002217Y004817D01*
X002274Y005140D01*
X002217Y005463D01*
X002053Y005747D01*
X001823Y005940D01*
X006837Y005940D01*
X006607Y005747D01*
X006607Y005747D01*
X006443Y005463D01*
X006386Y005140D01*
X006443Y004817D01*
X006607Y004533D01*
X006858Y004322D01*
X007166Y004210D01*
X007494Y004210D01*
X007802Y004322D01*
X007802Y004322D01*
X008053Y004533D01*
X008053Y004533D01*
X008130Y004666D01*
X008130Y001089D01*
X007935Y001170D01*
X007725Y001170D01*
X007530Y001089D01*
X007381Y000940D01*
X007330Y000818D01*
X007279Y000940D01*
X007130Y001089D01*
X006935Y001170D01*
X006725Y001170D01*
X006530Y001089D01*
X006381Y000940D01*
X006330Y000818D01*
X006279Y000940D01*
X006130Y001089D01*
X005935Y001170D01*
X005725Y001170D01*
X005530Y001089D01*
X005381Y000940D01*
X005330Y000818D01*
X005279Y000940D01*
X005130Y001089D01*
X004935Y001170D01*
X004725Y001170D01*
X004530Y001089D01*
X004381Y000940D01*
X004330Y000818D01*
X004279Y000940D01*
X004130Y001089D01*
X003935Y001170D01*
X003725Y001170D01*
X003530Y001089D01*
X003381Y000940D01*
X003330Y000818D01*
X003279Y000940D01*
X003130Y001089D01*
X002935Y001170D01*
X002725Y001170D01*
X002530Y001089D01*
X002381Y000940D01*
X002330Y000818D01*
X002279Y000940D01*
X002130Y001089D01*
X001935Y001170D01*
X001725Y001170D01*
X001530Y001089D01*
X001381Y000940D01*
X001340Y000842D01*
X001340Y001028D01*
X001330Y001064D01*
X001312Y001096D01*
X001286Y001122D01*
X001254Y001140D01*
X001218Y001150D01*
X000870Y001150D01*
X000870Y000680D01*
X000790Y000680D01*
X000790Y000690D02*
X000870Y000690D01*
X000870Y000768D02*
X000790Y000768D01*
X000790Y000847D02*
X000870Y000847D01*
X000870Y000925D02*
X000790Y000925D01*
X000790Y001004D02*
X000870Y001004D01*
X000870Y001082D02*
X000790Y001082D01*
X000530Y001161D02*
X001702Y001161D01*
X001958Y001161D02*
X002702Y001161D01*
X002522Y001082D02*
X002138Y001082D01*
X002216Y001004D02*
X002444Y001004D01*
X002374Y000925D02*
X002286Y000925D01*
X002318Y000847D02*
X002342Y000847D01*
X002958Y001161D02*
X003702Y001161D01*
X003522Y001082D02*
X003138Y001082D01*
X003216Y001004D02*
X003444Y001004D01*
X003374Y000925D02*
X003286Y000925D01*
X003318Y000847D02*
X003342Y000847D01*
X003958Y001161D02*
X004702Y001161D01*
X004522Y001082D02*
X004138Y001082D01*
X004216Y001004D02*
X004444Y001004D01*
X004374Y000925D02*
X004286Y000925D01*
X004318Y000847D02*
X004342Y000847D01*
X004958Y001161D02*
X005702Y001161D01*
X005522Y001082D02*
X005138Y001082D01*
X005216Y001004D02*
X005444Y001004D01*
X005374Y000925D02*
X005286Y000925D01*
X005318Y000847D02*
X005342Y000847D01*
X005958Y001161D02*
X006702Y001161D01*
X006522Y001082D02*
X006138Y001082D01*
X006216Y001004D02*
X006444Y001004D01*
X006374Y000925D02*
X006286Y000925D01*
X006318Y000847D02*
X006342Y000847D01*
X006958Y001161D02*
X007702Y001161D01*
X007522Y001082D02*
X007138Y001082D01*
X007216Y001004D02*
X007444Y001004D01*
X007374Y000925D02*
X007286Y000925D01*
X007318Y000847D02*
X007342Y000847D01*
X007958Y001161D02*
X008130Y001161D01*
X008130Y001239D02*
X000530Y001239D01*
X000530Y001318D02*
X008130Y001318D01*
X008130Y001396D02*
X000530Y001396D01*
X000530Y001475D02*
X008130Y001475D01*
X008130Y001553D02*
X000530Y001553D01*
X000530Y001632D02*
X008130Y001632D01*
X008130Y001710D02*
X000530Y001710D01*
X000530Y001789D02*
X008130Y001789D01*
X008130Y001867D02*
X000530Y001867D01*
X000530Y001946D02*
X008130Y001946D01*
X008130Y002024D02*
X000530Y002024D01*
X000530Y002103D02*
X008130Y002103D01*
X008130Y002181D02*
X000530Y002181D01*
X000530Y002260D02*
X008130Y002260D01*
X008130Y002338D02*
X000530Y002338D01*
X000530Y002417D02*
X008130Y002417D01*
X008130Y002495D02*
X000530Y002495D01*
X000530Y002574D02*
X008130Y002574D01*
X008130Y002652D02*
X000530Y002652D01*
X000530Y002731D02*
X008130Y002731D01*
X008130Y002809D02*
X000530Y002809D01*
X000530Y002888D02*
X008130Y002888D01*
X008130Y002966D02*
X000530Y002966D01*
X000530Y003045D02*
X008130Y003045D01*
X008130Y003123D02*
X000530Y003123D01*
X000530Y003202D02*
X008130Y003202D01*
X008130Y003280D02*
X000530Y003280D01*
X000530Y003359D02*
X008130Y003359D01*
X008130Y003437D02*
X000530Y003437D01*
X000530Y003516D02*
X008130Y003516D01*
X008130Y003594D02*
X000530Y003594D01*
X000530Y003673D02*
X008130Y003673D01*
X008130Y003751D02*
X000530Y003751D01*
X000530Y003830D02*
X008130Y003830D01*
X008130Y003908D02*
X000530Y003908D01*
X000530Y003987D02*
X008130Y003987D01*
X008130Y004065D02*
X000530Y004065D01*
X000530Y004144D02*
X008130Y004144D01*
X008130Y004222D02*
X007527Y004222D01*
X007743Y004301D02*
X008130Y004301D01*
X008130Y004379D02*
X007870Y004379D01*
X007963Y004458D02*
X008130Y004458D01*
X008130Y004536D02*
X008055Y004536D01*
X008053Y004533D02*
X008053Y004533D01*
X008100Y004615D02*
X008130Y004615D01*
X008876Y004615D02*
X008906Y004615D01*
X008876Y004666D02*
X008953Y004533D01*
X009204Y004322D01*
X009204Y004322D01*
X009512Y004210D01*
X009840Y004210D01*
X010149Y004322D01*
X010400Y004533D01*
X010564Y004817D01*
X010621Y005140D01*
X010564Y005463D01*
X010400Y005747D01*
X010170Y005940D01*
X015183Y005940D01*
X014953Y005747D01*
X014789Y005463D01*
X014732Y005140D01*
X014789Y004817D01*
X014953Y004533D01*
X015204Y004322D01*
X015204Y004322D01*
X015512Y004210D01*
X015840Y004210D01*
X016149Y004322D01*
X016400Y004533D01*
X016476Y004666D01*
X016476Y001089D01*
X016282Y001170D01*
X016071Y001170D01*
X015876Y001089D01*
X015727Y000940D01*
X015676Y000818D01*
X015626Y000940D01*
X015477Y001089D01*
X015282Y001170D01*
X015071Y001170D01*
X014876Y001089D01*
X014727Y000940D01*
X014676Y000818D01*
X014626Y000940D01*
X014477Y001089D01*
X014282Y001170D01*
X014071Y001170D01*
X013876Y001089D01*
X013727Y000940D01*
X013676Y000818D01*
X013626Y000940D01*
X013477Y001089D01*
X013282Y001170D01*
X013071Y001170D01*
X012876Y001089D01*
X012727Y000940D01*
X012676Y000818D01*
X012626Y000940D01*
X012477Y001089D01*
X012282Y001170D01*
X012071Y001170D01*
X011876Y001089D01*
X011727Y000940D01*
X011676Y000818D01*
X011626Y000940D01*
X011477Y001089D01*
X011282Y001170D01*
X011071Y001170D01*
X010876Y001089D01*
X010727Y000940D01*
X010676Y000818D01*
X010626Y000940D01*
X010477Y001089D01*
X010282Y001170D01*
X010071Y001170D01*
X009876Y001089D01*
X009727Y000940D01*
X009686Y000842D01*
X009686Y001028D01*
X009677Y001064D01*
X009658Y001096D01*
X009632Y001122D01*
X009600Y001140D01*
X009565Y001150D01*
X009216Y001150D01*
X009216Y000680D01*
X009136Y000680D01*
X009136Y001150D01*
X008876Y001150D01*
X008876Y004666D01*
X008876Y004536D02*
X008951Y004536D01*
X008953Y004533D02*
X008953Y004533D01*
X008876Y004458D02*
X009043Y004458D01*
X009137Y004379D02*
X008876Y004379D01*
X008876Y004301D02*
X009264Y004301D01*
X009479Y004222D02*
X008876Y004222D01*
X008876Y004144D02*
X016476Y004144D01*
X016476Y004222D02*
X015873Y004222D01*
X016089Y004301D02*
X016476Y004301D01*
X016476Y004379D02*
X016216Y004379D01*
X016149Y004322D02*
X016149Y004322D01*
X016310Y004458D02*
X016476Y004458D01*
X016476Y004536D02*
X016402Y004536D01*
X016400Y004533D02*
X016400Y004533D01*
X016400Y004533D01*
X016447Y004615D02*
X016476Y004615D01*
X016476Y004065D02*
X008876Y004065D01*
X008876Y003987D02*
X016476Y003987D01*
X016476Y003908D02*
X008876Y003908D01*
X008876Y003830D02*
X016476Y003830D01*
X016476Y003751D02*
X008876Y003751D01*
X008876Y003673D02*
X016476Y003673D01*
X016476Y003594D02*
X008876Y003594D01*
X008876Y003516D02*
X016476Y003516D01*
X016476Y003437D02*
X008876Y003437D01*
X008876Y003359D02*
X016476Y003359D01*
X016476Y003280D02*
X008876Y003280D01*
X008876Y003202D02*
X016476Y003202D01*
X016476Y003123D02*
X008876Y003123D01*
X008876Y003045D02*
X016476Y003045D01*
X016476Y002966D02*
X008876Y002966D01*
X008876Y002888D02*
X016476Y002888D01*
X016476Y002809D02*
X008876Y002809D01*
X008876Y002731D02*
X016476Y002731D01*
X016476Y002652D02*
X008876Y002652D01*
X008876Y002574D02*
X016476Y002574D01*
X016476Y002495D02*
X008876Y002495D01*
X008876Y002417D02*
X016476Y002417D01*
X016476Y002338D02*
X008876Y002338D01*
X008876Y002260D02*
X016476Y002260D01*
X016476Y002181D02*
X008876Y002181D01*
X008876Y002103D02*
X016476Y002103D01*
X016476Y002024D02*
X008876Y002024D01*
X008876Y001946D02*
X016476Y001946D01*
X016476Y001867D02*
X008876Y001867D01*
X008876Y001789D02*
X016476Y001789D01*
X016476Y001710D02*
X008876Y001710D01*
X008876Y001632D02*
X016476Y001632D01*
X016476Y001553D02*
X008876Y001553D01*
X008876Y001475D02*
X016476Y001475D01*
X016476Y001396D02*
X008876Y001396D01*
X008876Y001318D02*
X016476Y001318D01*
X016476Y001239D02*
X008876Y001239D01*
X008876Y001161D02*
X010048Y001161D01*
X009869Y001082D02*
X009667Y001082D01*
X009686Y001004D02*
X009790Y001004D01*
X009721Y000925D02*
X009686Y000925D01*
X009686Y000847D02*
X009688Y000847D01*
X009216Y000847D02*
X009136Y000847D01*
X009136Y000925D02*
X009216Y000925D01*
X009216Y001004D02*
X009136Y001004D01*
X009136Y001082D02*
X009216Y001082D01*
X009216Y000768D02*
X009136Y000768D01*
X009136Y000690D02*
X009216Y000690D01*
X008676Y000140D02*
X008676Y006140D01*
X016676Y006140D01*
X016676Y000140D01*
X008676Y000140D01*
X010305Y001161D02*
X011048Y001161D01*
X010869Y001082D02*
X010484Y001082D01*
X010562Y001004D02*
X010790Y001004D01*
X010721Y000925D02*
X010632Y000925D01*
X010665Y000847D02*
X010688Y000847D01*
X011305Y001161D02*
X012048Y001161D01*
X011869Y001082D02*
X011484Y001082D01*
X011562Y001004D02*
X011790Y001004D01*
X011721Y000925D02*
X011632Y000925D01*
X011665Y000847D02*
X011688Y000847D01*
X012305Y001161D02*
X013048Y001161D01*
X012869Y001082D02*
X012484Y001082D01*
X012562Y001004D02*
X012790Y001004D01*
X012721Y000925D02*
X012632Y000925D01*
X012665Y000847D02*
X012688Y000847D01*
X013305Y001161D02*
X014048Y001161D01*
X013869Y001082D02*
X013484Y001082D01*
X013562Y001004D02*
X013790Y001004D01*
X013721Y000925D02*
X013632Y000925D01*
X013665Y000847D02*
X013688Y000847D01*
X014305Y001161D02*
X015048Y001161D01*
X014869Y001082D02*
X014484Y001082D01*
X014562Y001004D02*
X014790Y001004D01*
X014721Y000925D02*
X014632Y000925D01*
X014665Y000847D02*
X014688Y000847D01*
X015305Y001161D02*
X016048Y001161D01*
X015869Y001082D02*
X015484Y001082D01*
X015562Y001004D02*
X015790Y001004D01*
X015721Y000925D02*
X015632Y000925D01*
X015665Y000847D02*
X015688Y000847D01*
X016305Y001161D02*
X016476Y001161D01*
X015479Y004222D02*
X009873Y004222D01*
X010089Y004301D02*
X015264Y004301D01*
X015137Y004379D02*
X010216Y004379D01*
X010149Y004322D02*
X010149Y004322D01*
X010310Y004458D02*
X015043Y004458D01*
X014953Y004533D02*
X014953Y004533D01*
X014951Y004536D02*
X010402Y004536D01*
X010400Y004533D02*
X010400Y004533D01*
X010400Y004533D01*
X010447Y004615D02*
X014906Y004615D01*
X014861Y004693D02*
X010492Y004693D01*
X010538Y004772D02*
X014815Y004772D01*
X014789Y004817D02*
X014789Y004817D01*
X014783Y004850D02*
X010570Y004850D01*
X010564Y004817D02*
X010564Y004817D01*
X010584Y004929D02*
X014769Y004929D01*
X014756Y005007D02*
X010597Y005007D01*
X010611Y005086D02*
X014742Y005086D01*
X014732Y005140D02*
X014732Y005140D01*
X014736Y005164D02*
X010617Y005164D01*
X010621Y005140D02*
X010621Y005140D01*
X010603Y005243D02*
X014750Y005243D01*
X014764Y005321D02*
X010589Y005321D01*
X010575Y005400D02*
X014778Y005400D01*
X014789Y005463D02*
X014789Y005463D01*
X014798Y005478D02*
X010555Y005478D01*
X010564Y005463D02*
X010564Y005463D01*
X010510Y005557D02*
X014843Y005557D01*
X014888Y005635D02*
X010465Y005635D01*
X010419Y005714D02*
X014934Y005714D01*
X014953Y005747D02*
X014953Y005747D01*
X014953Y005747D01*
X015007Y005792D02*
X010346Y005792D01*
X010400Y005747D02*
X010400Y005747D01*
X010253Y005871D02*
X015100Y005871D01*
X016676Y006439D02*
X016676Y012439D01*
X008676Y012439D01*
X008676Y006439D01*
X016676Y006439D01*
X015676Y007117D02*
X015626Y007239D01*
X015477Y007389D01*
X015282Y007469D01*
X015071Y007469D01*
X014876Y007389D01*
X014727Y007239D01*
X014676Y007117D01*
X014626Y007239D01*
X014477Y007389D01*
X014282Y007469D01*
X014071Y007469D01*
X013876Y007389D01*
X013727Y007239D01*
X013676Y007117D01*
X013626Y007239D01*
X013477Y007389D01*
X013282Y007469D01*
X013071Y007469D01*
X012876Y007389D01*
X012727Y007239D01*
X012676Y007117D01*
X012626Y007239D01*
X012477Y007389D01*
X012282Y007469D01*
X012071Y007469D01*
X011876Y007389D01*
X011727Y007239D01*
X011676Y007117D01*
X011626Y007239D01*
X011477Y007389D01*
X011282Y007469D01*
X011071Y007469D01*
X010876Y007389D01*
X010727Y007239D01*
X010676Y007117D01*
X010626Y007239D01*
X010477Y007389D01*
X010282Y007469D01*
X010071Y007469D01*
X009876Y007389D01*
X009727Y007239D01*
X009686Y007141D01*
X009686Y007328D01*
X009677Y007363D01*
X009658Y007395D01*
X009632Y007421D01*
X009600Y007440D01*
X009565Y007449D01*
X009216Y007449D01*
X009216Y006979D01*
X009136Y006979D01*
X009136Y007449D01*
X008876Y007449D01*
X008876Y010965D01*
X008953Y010832D01*
X009204Y010621D01*
X009204Y010621D01*
X009512Y010509D01*
X009840Y010509D01*
X010149Y010621D01*
X010400Y010832D01*
X010564Y011116D01*
X010564Y011116D01*
X010621Y011439D01*
X010621Y011439D01*
X010564Y011762D01*
X010564Y011762D01*
X010400Y012046D01*
X010400Y012046D01*
X010170Y012239D01*
X015183Y012239D01*
X014953Y012046D01*
X014789Y011762D01*
X014732Y011439D01*
X014789Y011116D01*
X014953Y010832D01*
X015204Y010621D01*
X015204Y010621D01*
X015512Y010509D01*
X015840Y010509D01*
X016149Y010621D01*
X016400Y010832D01*
X016476Y010965D01*
X016476Y007389D01*
X016282Y007469D01*
X016071Y007469D01*
X015876Y007389D01*
X015727Y007239D01*
X015676Y007117D01*
X015673Y007127D02*
X015680Y007127D01*
X015713Y007205D02*
X015640Y007205D01*
X015582Y007284D02*
X015771Y007284D01*
X015850Y007362D02*
X015503Y007362D01*
X015351Y007441D02*
X016002Y007441D01*
X016351Y007441D02*
X016476Y007441D01*
X016476Y007519D02*
X008876Y007519D01*
X008876Y007598D02*
X016476Y007598D01*
X016476Y007676D02*
X008876Y007676D01*
X008876Y007755D02*
X016476Y007755D01*
X016476Y007833D02*
X008876Y007833D01*
X008876Y007912D02*
X016476Y007912D01*
X016476Y007990D02*
X008876Y007990D01*
X008876Y008069D02*
X016476Y008069D01*
X016476Y008147D02*
X008876Y008147D01*
X008876Y008226D02*
X016476Y008226D01*
X016476Y008304D02*
X008876Y008304D01*
X008876Y008383D02*
X016476Y008383D01*
X016476Y008461D02*
X008876Y008461D01*
X008876Y008540D02*
X016476Y008540D01*
X016476Y008618D02*
X008876Y008618D01*
X008876Y008697D02*
X016476Y008697D01*
X016476Y008775D02*
X008876Y008775D01*
X008876Y008854D02*
X016476Y008854D01*
X016476Y008932D02*
X008876Y008932D01*
X008876Y009011D02*
X016476Y009011D01*
X016476Y009089D02*
X008876Y009089D01*
X008876Y009168D02*
X016476Y009168D01*
X016476Y009246D02*
X008876Y009246D01*
X008876Y009325D02*
X016476Y009325D01*
X016476Y009403D02*
X008876Y009403D01*
X008876Y009482D02*
X016476Y009482D01*
X016476Y009560D02*
X008876Y009560D01*
X008876Y009639D02*
X016476Y009639D01*
X016476Y009717D02*
X008876Y009717D01*
X008876Y009796D02*
X016476Y009796D01*
X016476Y009874D02*
X008876Y009874D01*
X008876Y009953D02*
X016476Y009953D01*
X016476Y010031D02*
X008876Y010031D01*
X008876Y010110D02*
X016476Y010110D01*
X016476Y010188D02*
X008876Y010188D01*
X008876Y010267D02*
X016476Y010267D01*
X016476Y010345D02*
X008876Y010345D01*
X008876Y010424D02*
X016476Y010424D01*
X016476Y010502D02*
X008876Y010502D01*
X008876Y010581D02*
X009317Y010581D01*
X009159Y010659D02*
X008876Y010659D01*
X008876Y010738D02*
X009066Y010738D01*
X008972Y010816D02*
X008876Y010816D01*
X008876Y010895D02*
X008917Y010895D01*
X008953Y010832D02*
X008953Y010832D01*
X008130Y010816D02*
X008034Y010816D01*
X008053Y010832D02*
X008053Y010832D01*
X007802Y010621D01*
X007802Y010621D01*
X007494Y010509D01*
X007166Y010509D01*
X006858Y010621D01*
X006858Y010621D01*
X006607Y010832D01*
X006607Y010832D01*
X006443Y011116D01*
X006443Y011116D01*
X006386Y011439D01*
X006386Y011439D01*
X006443Y011762D01*
X006443Y011762D01*
X006607Y012046D01*
X006607Y012046D01*
X006607Y012046D01*
X006837Y012239D01*
X001823Y012239D01*
X002053Y012046D01*
X002053Y012046D01*
X002217Y011762D01*
X002217Y011762D01*
X002274Y011439D01*
X002274Y011439D01*
X002217Y011116D01*
X002217Y011116D01*
X002053Y010832D01*
X002053Y010832D01*
X001802Y010621D01*
X001494Y010509D01*
X001166Y010509D01*
X000858Y010621D01*
X000858Y010621D01*
X000607Y010832D01*
X000607Y010832D01*
X000530Y010965D01*
X000530Y007449D01*
X000790Y007449D01*
X000790Y006979D01*
X000870Y006979D01*
X000870Y007449D01*
X001218Y007449D01*
X001254Y007440D01*
X001286Y007421D01*
X001312Y007395D01*
X001330Y007363D01*
X001340Y007328D01*
X001340Y007141D01*
X001381Y007239D01*
X001530Y007389D01*
X001725Y007469D01*
X001935Y007469D01*
X002130Y007389D01*
X002279Y007239D01*
X002330Y007117D01*
X002381Y007239D01*
X002530Y007389D01*
X002725Y007469D01*
X002935Y007469D01*
X003130Y007389D01*
X003279Y007239D01*
X003330Y007117D01*
X003381Y007239D01*
X003530Y007389D01*
X003725Y007469D01*
X003935Y007469D01*
X004130Y007389D01*
X004279Y007239D01*
X004330Y007117D01*
X004381Y007239D01*
X004530Y007389D01*
X004725Y007469D01*
X004935Y007469D01*
X005130Y007389D01*
X005279Y007239D01*
X005330Y007117D01*
X005381Y007239D01*
X005530Y007389D01*
X005725Y007469D01*
X005935Y007469D01*
X006130Y007389D01*
X006279Y007239D01*
X006330Y007117D01*
X006381Y007239D01*
X006530Y007389D01*
X006725Y007469D01*
X006935Y007469D01*
X007130Y007389D01*
X007279Y007239D01*
X007330Y007117D01*
X007381Y007239D01*
X007530Y007389D01*
X007725Y007469D01*
X007935Y007469D01*
X008130Y007389D01*
X008130Y010965D01*
X008053Y010832D01*
X008053Y010832D01*
X008089Y010895D02*
X008130Y010895D01*
X008130Y010738D02*
X007941Y010738D01*
X007847Y010659D02*
X008130Y010659D01*
X008130Y010581D02*
X007690Y010581D01*
X008130Y010502D02*
X000530Y010502D01*
X000530Y010424D02*
X008130Y010424D01*
X008130Y010345D02*
X000530Y010345D01*
X000530Y010267D02*
X008130Y010267D01*
X008130Y010188D02*
X000530Y010188D01*
X000530Y010110D02*
X008130Y010110D01*
X008130Y010031D02*
X000530Y010031D01*
X000530Y009953D02*
X008130Y009953D01*
X008130Y009874D02*
X000530Y009874D01*
X000530Y009796D02*
X008130Y009796D01*
X008130Y009717D02*
X000530Y009717D01*
X000530Y009639D02*
X008130Y009639D01*
X008130Y009560D02*
X000530Y009560D01*
X000530Y009482D02*
X008130Y009482D01*
X008130Y009403D02*
X000530Y009403D01*
X000530Y009325D02*
X008130Y009325D01*
X008130Y009246D02*
X000530Y009246D01*
X000530Y009168D02*
X008130Y009168D01*
X008130Y009089D02*
X000530Y009089D01*
X000530Y009011D02*
X008130Y009011D01*
X008130Y008932D02*
X000530Y008932D01*
X000530Y008854D02*
X008130Y008854D01*
X008130Y008775D02*
X000530Y008775D01*
X000530Y008697D02*
X008130Y008697D01*
X008130Y008618D02*
X000530Y008618D01*
X000530Y008540D02*
X008130Y008540D01*
X008130Y008461D02*
X000530Y008461D01*
X000530Y008383D02*
X008130Y008383D01*
X008130Y008304D02*
X000530Y008304D01*
X000530Y008226D02*
X008130Y008226D01*
X008130Y008147D02*
X000530Y008147D01*
X000530Y008069D02*
X008130Y008069D01*
X008130Y007990D02*
X000530Y007990D01*
X000530Y007912D02*
X008130Y007912D01*
X008130Y007833D02*
X000530Y007833D01*
X000530Y007755D02*
X008130Y007755D01*
X008130Y007676D02*
X000530Y007676D01*
X000530Y007598D02*
X008130Y007598D01*
X008130Y007519D02*
X000530Y007519D01*
X000790Y007441D02*
X000870Y007441D01*
X000870Y007362D02*
X000790Y007362D01*
X000790Y007284D02*
X000870Y007284D01*
X000870Y007205D02*
X000790Y007205D01*
X000790Y007127D02*
X000870Y007127D01*
X000870Y007048D02*
X000790Y007048D01*
X001340Y007205D02*
X001366Y007205D01*
X001340Y007284D02*
X001425Y007284D01*
X001503Y007362D02*
X001331Y007362D01*
X001251Y007441D02*
X001655Y007441D01*
X002005Y007441D02*
X002655Y007441D01*
X002503Y007362D02*
X002157Y007362D01*
X002235Y007284D02*
X002425Y007284D01*
X002366Y007205D02*
X002294Y007205D01*
X002326Y007127D02*
X002334Y007127D01*
X003005Y007441D02*
X003655Y007441D01*
X003503Y007362D02*
X003157Y007362D01*
X003235Y007284D02*
X003425Y007284D01*
X003366Y007205D02*
X003294Y007205D01*
X003326Y007127D02*
X003334Y007127D01*
X004005Y007441D02*
X004655Y007441D01*
X004503Y007362D02*
X004157Y007362D01*
X004235Y007284D02*
X004425Y007284D01*
X004366Y007205D02*
X004294Y007205D01*
X004326Y007127D02*
X004334Y007127D01*
X005005Y007441D02*
X005655Y007441D01*
X005503Y007362D02*
X005157Y007362D01*
X005235Y007284D02*
X005425Y007284D01*
X005366Y007205D02*
X005294Y007205D01*
X005326Y007127D02*
X005334Y007127D01*
X006005Y007441D02*
X006655Y007441D01*
X006503Y007362D02*
X006157Y007362D01*
X006235Y007284D02*
X006425Y007284D01*
X006366Y007205D02*
X006294Y007205D01*
X006326Y007127D02*
X006334Y007127D01*
X007005Y007441D02*
X007655Y007441D01*
X007503Y007362D02*
X007157Y007362D01*
X007235Y007284D02*
X007425Y007284D01*
X007366Y007205D02*
X007294Y007205D01*
X007326Y007127D02*
X007334Y007127D01*
X008005Y007441D02*
X008130Y007441D01*
X009136Y007441D02*
X009216Y007441D01*
X009216Y007362D02*
X009136Y007362D01*
X009136Y007284D02*
X009216Y007284D01*
X009216Y007205D02*
X009136Y007205D01*
X009136Y007127D02*
X009216Y007127D01*
X009216Y007048D02*
X009136Y007048D01*
X009597Y007441D02*
X010002Y007441D01*
X009850Y007362D02*
X009677Y007362D01*
X009686Y007284D02*
X009771Y007284D01*
X009713Y007205D02*
X009686Y007205D01*
X010351Y007441D02*
X011002Y007441D01*
X010850Y007362D02*
X010503Y007362D01*
X010582Y007284D02*
X010771Y007284D01*
X010713Y007205D02*
X010640Y007205D01*
X010673Y007127D02*
X010680Y007127D01*
X011351Y007441D02*
X012002Y007441D01*
X011850Y007362D02*
X011503Y007362D01*
X011582Y007284D02*
X011771Y007284D01*
X011713Y007205D02*
X011640Y007205D01*
X011673Y007127D02*
X011680Y007127D01*
X012351Y007441D02*
X013002Y007441D01*
X012850Y007362D02*
X012503Y007362D01*
X012582Y007284D02*
X012771Y007284D01*
X012713Y007205D02*
X012640Y007205D01*
X012673Y007127D02*
X012680Y007127D01*
X013351Y007441D02*
X014002Y007441D01*
X013850Y007362D02*
X013503Y007362D01*
X013582Y007284D02*
X013771Y007284D01*
X013713Y007205D02*
X013640Y007205D01*
X013673Y007127D02*
X013680Y007127D01*
X014351Y007441D02*
X015002Y007441D01*
X014850Y007362D02*
X014503Y007362D01*
X014582Y007284D02*
X014771Y007284D01*
X014713Y007205D02*
X014640Y007205D01*
X014673Y007127D02*
X014680Y007127D01*
X015317Y010581D02*
X010036Y010581D01*
X010149Y010621D02*
X010149Y010621D01*
X010193Y010659D02*
X015159Y010659D01*
X015066Y010738D02*
X010287Y010738D01*
X010381Y010816D02*
X014972Y010816D01*
X014953Y010832D02*
X014953Y010832D01*
X014917Y010895D02*
X010436Y010895D01*
X010400Y010832D02*
X010400Y010832D01*
X010400Y010832D01*
X010481Y010973D02*
X014872Y010973D01*
X014826Y011052D02*
X010526Y011052D01*
X010566Y011130D02*
X014787Y011130D01*
X014789Y011116D02*
X014789Y011116D01*
X014773Y011209D02*
X010580Y011209D01*
X010594Y011287D02*
X014759Y011287D01*
X014745Y011366D02*
X010608Y011366D01*
X010620Y011444D02*
X014733Y011444D01*
X014732Y011439D02*
X014732Y011439D01*
X014747Y011523D02*
X010606Y011523D01*
X010592Y011601D02*
X014761Y011601D01*
X014774Y011680D02*
X010578Y011680D01*
X010565Y011758D02*
X014788Y011758D01*
X014789Y011762D02*
X014789Y011762D01*
X014832Y011837D02*
X010521Y011837D01*
X010476Y011915D02*
X014877Y011915D01*
X014923Y011994D02*
X010430Y011994D01*
X010369Y012072D02*
X014984Y012072D01*
X014953Y012046D02*
X014953Y012046D01*
X014953Y012046D01*
X015077Y012151D02*
X010276Y012151D01*
X010182Y012229D02*
X015171Y012229D01*
X016436Y010895D02*
X016476Y010895D01*
X016476Y010816D02*
X016381Y010816D01*
X016400Y010832D02*
X016400Y010832D01*
X016400Y010832D01*
X016476Y010738D02*
X016287Y010738D01*
X016193Y010659D02*
X016476Y010659D01*
X016476Y010581D02*
X016036Y010581D01*
X016149Y010621D02*
X016149Y010621D01*
X008330Y012439D02*
X008330Y006439D01*
X000330Y006439D01*
X000330Y012439D01*
X008330Y012439D01*
X006824Y012229D02*
X001836Y012229D01*
X001929Y012151D02*
X006731Y012151D01*
X006637Y012072D02*
X002023Y012072D01*
X002084Y011994D02*
X006576Y011994D01*
X006531Y011915D02*
X002129Y011915D01*
X002174Y011837D02*
X006486Y011837D01*
X006442Y011758D02*
X002218Y011758D01*
X002232Y011680D02*
X006428Y011680D01*
X006414Y011601D02*
X002246Y011601D01*
X002260Y011523D02*
X006400Y011523D01*
X006387Y011444D02*
X002273Y011444D01*
X002261Y011366D02*
X006399Y011366D01*
X006412Y011287D02*
X002248Y011287D01*
X002234Y011209D02*
X006426Y011209D01*
X006440Y011130D02*
X002220Y011130D01*
X002180Y011052D02*
X006480Y011052D01*
X006525Y010973D02*
X002135Y010973D01*
X002089Y010895D02*
X006571Y010895D01*
X006626Y010816D02*
X002034Y010816D01*
X002053Y010832D02*
X002053Y010832D01*
X001941Y010738D02*
X006719Y010738D01*
X006813Y010659D02*
X001847Y010659D01*
X001690Y010581D02*
X006970Y010581D01*
X000970Y010581D02*
X000530Y010581D01*
X000530Y010659D02*
X000813Y010659D01*
X000719Y010738D02*
X000530Y010738D01*
X000530Y010816D02*
X000626Y010816D01*
X000571Y010895D02*
X000530Y010895D01*
X001906Y005871D02*
X006754Y005871D01*
X006660Y005792D02*
X002000Y005792D01*
X002053Y005747D02*
X002053Y005747D01*
X002073Y005714D02*
X006587Y005714D01*
X006607Y005747D02*
X006607Y005747D01*
X006542Y005635D02*
X002118Y005635D01*
X002163Y005557D02*
X006497Y005557D01*
X006451Y005478D02*
X002209Y005478D01*
X002217Y005463D02*
X002217Y005463D01*
X002229Y005400D02*
X006431Y005400D01*
X006443Y005463D02*
X006443Y005463D01*
X006418Y005321D02*
X002242Y005321D01*
X002256Y005243D02*
X006404Y005243D01*
X006390Y005164D02*
X002270Y005164D01*
X002274Y005140D02*
X002274Y005140D01*
X002265Y005086D02*
X006395Y005086D01*
X006386Y005140D02*
X006386Y005140D01*
X006409Y005007D02*
X002251Y005007D01*
X002237Y004929D02*
X006423Y004929D01*
X006437Y004850D02*
X002223Y004850D01*
X002217Y004817D02*
X002217Y004817D01*
X002191Y004772D02*
X006469Y004772D01*
X006443Y004817D02*
X006443Y004817D01*
X006514Y004693D02*
X002146Y004693D01*
X002100Y004615D02*
X006560Y004615D01*
X006605Y004536D02*
X002055Y004536D01*
X002053Y004533D02*
X002053Y004533D01*
X001963Y004458D02*
X006697Y004458D01*
X006607Y004533D02*
X006607Y004533D01*
X006790Y004379D02*
X001870Y004379D01*
X001743Y004301D02*
X006917Y004301D01*
X006858Y004322D02*
X006858Y004322D01*
X007133Y004222D02*
X001527Y004222D01*
X001133Y004222D02*
X000530Y004222D01*
X000530Y004301D02*
X000917Y004301D01*
X000858Y004322D02*
X000858Y004322D01*
X000790Y004379D02*
X000530Y004379D01*
X000530Y004458D02*
X000697Y004458D01*
X000607Y004533D02*
X000607Y004533D01*
X000605Y004536D02*
X000530Y004536D01*
X000530Y004615D02*
X000560Y004615D01*
X001320Y001082D02*
X001522Y001082D01*
X001444Y001004D02*
X001340Y001004D01*
X001340Y000925D02*
X001374Y000925D01*
X001342Y000847D02*
X001340Y000847D01*
D11*
X000830Y000640D03*
X000830Y006939D03*
X009176Y006939D03*
X009176Y000640D03*
D12*
X010176Y000640D03*
X011176Y000640D03*
X012176Y000640D03*
X013176Y000640D03*
X014176Y000640D03*
X015176Y000640D03*
X016176Y000640D03*
X016176Y006939D03*
X015176Y006939D03*
X014176Y006939D03*
X013176Y006939D03*
X012176Y006939D03*
X011176Y006939D03*
X010176Y006939D03*
X007830Y006939D03*
X006830Y006939D03*
X005830Y006939D03*
X004830Y006939D03*
X003830Y006939D03*
X002830Y006939D03*
X001830Y006939D03*
X001830Y000640D03*
X002830Y000640D03*
X003830Y000640D03*
X004830Y000640D03*
X005830Y000640D03*
X006830Y000640D03*
X007830Y000640D03*
D13*
X006680Y005140D02*
X006682Y005190D01*
X006688Y005240D01*
X006698Y005290D01*
X006711Y005338D01*
X006728Y005386D01*
X006749Y005432D01*
X006773Y005476D01*
X006801Y005518D01*
X006832Y005558D01*
X006866Y005595D01*
X006903Y005630D01*
X006942Y005661D01*
X006983Y005690D01*
X007027Y005715D01*
X007073Y005737D01*
X007120Y005755D01*
X007168Y005769D01*
X007217Y005780D01*
X007267Y005787D01*
X007317Y005790D01*
X007368Y005789D01*
X007418Y005784D01*
X007468Y005775D01*
X007516Y005763D01*
X007564Y005746D01*
X007610Y005726D01*
X007655Y005703D01*
X007698Y005676D01*
X007738Y005646D01*
X007776Y005613D01*
X007811Y005577D01*
X007844Y005538D01*
X007873Y005497D01*
X007899Y005454D01*
X007922Y005409D01*
X007941Y005362D01*
X007956Y005314D01*
X007968Y005265D01*
X007976Y005215D01*
X007980Y005165D01*
X007980Y005115D01*
X007976Y005065D01*
X007968Y005015D01*
X007956Y004966D01*
X007941Y004918D01*
X007922Y004871D01*
X007899Y004826D01*
X007873Y004783D01*
X007844Y004742D01*
X007811Y004703D01*
X007776Y004667D01*
X007738Y004634D01*
X007698Y004604D01*
X007655Y004577D01*
X007610Y004554D01*
X007564Y004534D01*
X007516Y004517D01*
X007468Y004505D01*
X007418Y004496D01*
X007368Y004491D01*
X007317Y004490D01*
X007267Y004493D01*
X007217Y004500D01*
X007168Y004511D01*
X007120Y004525D01*
X007073Y004543D01*
X007027Y004565D01*
X006983Y004590D01*
X006942Y004619D01*
X006903Y004650D01*
X006866Y004685D01*
X006832Y004722D01*
X006801Y004762D01*
X006773Y004804D01*
X006749Y004848D01*
X006728Y004894D01*
X006711Y004942D01*
X006698Y004990D01*
X006688Y005040D01*
X006682Y005090D01*
X006680Y005140D01*
X009026Y005140D02*
X009028Y005190D01*
X009034Y005240D01*
X009044Y005290D01*
X009057Y005338D01*
X009074Y005386D01*
X009095Y005432D01*
X009119Y005476D01*
X009147Y005518D01*
X009178Y005558D01*
X009212Y005595D01*
X009249Y005630D01*
X009288Y005661D01*
X009329Y005690D01*
X009373Y005715D01*
X009419Y005737D01*
X009466Y005755D01*
X009514Y005769D01*
X009563Y005780D01*
X009613Y005787D01*
X009663Y005790D01*
X009714Y005789D01*
X009764Y005784D01*
X009814Y005775D01*
X009862Y005763D01*
X009910Y005746D01*
X009956Y005726D01*
X010001Y005703D01*
X010044Y005676D01*
X010084Y005646D01*
X010122Y005613D01*
X010157Y005577D01*
X010190Y005538D01*
X010219Y005497D01*
X010245Y005454D01*
X010268Y005409D01*
X010287Y005362D01*
X010302Y005314D01*
X010314Y005265D01*
X010322Y005215D01*
X010326Y005165D01*
X010326Y005115D01*
X010322Y005065D01*
X010314Y005015D01*
X010302Y004966D01*
X010287Y004918D01*
X010268Y004871D01*
X010245Y004826D01*
X010219Y004783D01*
X010190Y004742D01*
X010157Y004703D01*
X010122Y004667D01*
X010084Y004634D01*
X010044Y004604D01*
X010001Y004577D01*
X009956Y004554D01*
X009910Y004534D01*
X009862Y004517D01*
X009814Y004505D01*
X009764Y004496D01*
X009714Y004491D01*
X009663Y004490D01*
X009613Y004493D01*
X009563Y004500D01*
X009514Y004511D01*
X009466Y004525D01*
X009419Y004543D01*
X009373Y004565D01*
X009329Y004590D01*
X009288Y004619D01*
X009249Y004650D01*
X009212Y004685D01*
X009178Y004722D01*
X009147Y004762D01*
X009119Y004804D01*
X009095Y004848D01*
X009074Y004894D01*
X009057Y004942D01*
X009044Y004990D01*
X009034Y005040D01*
X009028Y005090D01*
X009026Y005140D01*
X015026Y005140D02*
X015028Y005190D01*
X015034Y005240D01*
X015044Y005290D01*
X015057Y005338D01*
X015074Y005386D01*
X015095Y005432D01*
X015119Y005476D01*
X015147Y005518D01*
X015178Y005558D01*
X015212Y005595D01*
X015249Y005630D01*
X015288Y005661D01*
X015329Y005690D01*
X015373Y005715D01*
X015419Y005737D01*
X015466Y005755D01*
X015514Y005769D01*
X015563Y005780D01*
X015613Y005787D01*
X015663Y005790D01*
X015714Y005789D01*
X015764Y005784D01*
X015814Y005775D01*
X015862Y005763D01*
X015910Y005746D01*
X015956Y005726D01*
X016001Y005703D01*
X016044Y005676D01*
X016084Y005646D01*
X016122Y005613D01*
X016157Y005577D01*
X016190Y005538D01*
X016219Y005497D01*
X016245Y005454D01*
X016268Y005409D01*
X016287Y005362D01*
X016302Y005314D01*
X016314Y005265D01*
X016322Y005215D01*
X016326Y005165D01*
X016326Y005115D01*
X016322Y005065D01*
X016314Y005015D01*
X016302Y004966D01*
X016287Y004918D01*
X016268Y004871D01*
X016245Y004826D01*
X016219Y004783D01*
X016190Y004742D01*
X016157Y004703D01*
X016122Y004667D01*
X016084Y004634D01*
X016044Y004604D01*
X016001Y004577D01*
X015956Y004554D01*
X015910Y004534D01*
X015862Y004517D01*
X015814Y004505D01*
X015764Y004496D01*
X015714Y004491D01*
X015663Y004490D01*
X015613Y004493D01*
X015563Y004500D01*
X015514Y004511D01*
X015466Y004525D01*
X015419Y004543D01*
X015373Y004565D01*
X015329Y004590D01*
X015288Y004619D01*
X015249Y004650D01*
X015212Y004685D01*
X015178Y004722D01*
X015147Y004762D01*
X015119Y004804D01*
X015095Y004848D01*
X015074Y004894D01*
X015057Y004942D01*
X015044Y004990D01*
X015034Y005040D01*
X015028Y005090D01*
X015026Y005140D01*
X015026Y011439D02*
X015028Y011489D01*
X015034Y011539D01*
X015044Y011589D01*
X015057Y011637D01*
X015074Y011685D01*
X015095Y011731D01*
X015119Y011775D01*
X015147Y011817D01*
X015178Y011857D01*
X015212Y011894D01*
X015249Y011929D01*
X015288Y011960D01*
X015329Y011989D01*
X015373Y012014D01*
X015419Y012036D01*
X015466Y012054D01*
X015514Y012068D01*
X015563Y012079D01*
X015613Y012086D01*
X015663Y012089D01*
X015714Y012088D01*
X015764Y012083D01*
X015814Y012074D01*
X015862Y012062D01*
X015910Y012045D01*
X015956Y012025D01*
X016001Y012002D01*
X016044Y011975D01*
X016084Y011945D01*
X016122Y011912D01*
X016157Y011876D01*
X016190Y011837D01*
X016219Y011796D01*
X016245Y011753D01*
X016268Y011708D01*
X016287Y011661D01*
X016302Y011613D01*
X016314Y011564D01*
X016322Y011514D01*
X016326Y011464D01*
X016326Y011414D01*
X016322Y011364D01*
X016314Y011314D01*
X016302Y011265D01*
X016287Y011217D01*
X016268Y011170D01*
X016245Y011125D01*
X016219Y011082D01*
X016190Y011041D01*
X016157Y011002D01*
X016122Y010966D01*
X016084Y010933D01*
X016044Y010903D01*
X016001Y010876D01*
X015956Y010853D01*
X015910Y010833D01*
X015862Y010816D01*
X015814Y010804D01*
X015764Y010795D01*
X015714Y010790D01*
X015663Y010789D01*
X015613Y010792D01*
X015563Y010799D01*
X015514Y010810D01*
X015466Y010824D01*
X015419Y010842D01*
X015373Y010864D01*
X015329Y010889D01*
X015288Y010918D01*
X015249Y010949D01*
X015212Y010984D01*
X015178Y011021D01*
X015147Y011061D01*
X015119Y011103D01*
X015095Y011147D01*
X015074Y011193D01*
X015057Y011241D01*
X015044Y011289D01*
X015034Y011339D01*
X015028Y011389D01*
X015026Y011439D01*
X009026Y011439D02*
X009028Y011489D01*
X009034Y011539D01*
X009044Y011589D01*
X009057Y011637D01*
X009074Y011685D01*
X009095Y011731D01*
X009119Y011775D01*
X009147Y011817D01*
X009178Y011857D01*
X009212Y011894D01*
X009249Y011929D01*
X009288Y011960D01*
X009329Y011989D01*
X009373Y012014D01*
X009419Y012036D01*
X009466Y012054D01*
X009514Y012068D01*
X009563Y012079D01*
X009613Y012086D01*
X009663Y012089D01*
X009714Y012088D01*
X009764Y012083D01*
X009814Y012074D01*
X009862Y012062D01*
X009910Y012045D01*
X009956Y012025D01*
X010001Y012002D01*
X010044Y011975D01*
X010084Y011945D01*
X010122Y011912D01*
X010157Y011876D01*
X010190Y011837D01*
X010219Y011796D01*
X010245Y011753D01*
X010268Y011708D01*
X010287Y011661D01*
X010302Y011613D01*
X010314Y011564D01*
X010322Y011514D01*
X010326Y011464D01*
X010326Y011414D01*
X010322Y011364D01*
X010314Y011314D01*
X010302Y011265D01*
X010287Y011217D01*
X010268Y011170D01*
X010245Y011125D01*
X010219Y011082D01*
X010190Y011041D01*
X010157Y011002D01*
X010122Y010966D01*
X010084Y010933D01*
X010044Y010903D01*
X010001Y010876D01*
X009956Y010853D01*
X009910Y010833D01*
X009862Y010816D01*
X009814Y010804D01*
X009764Y010795D01*
X009714Y010790D01*
X009663Y010789D01*
X009613Y010792D01*
X009563Y010799D01*
X009514Y010810D01*
X009466Y010824D01*
X009419Y010842D01*
X009373Y010864D01*
X009329Y010889D01*
X009288Y010918D01*
X009249Y010949D01*
X009212Y010984D01*
X009178Y011021D01*
X009147Y011061D01*
X009119Y011103D01*
X009095Y011147D01*
X009074Y011193D01*
X009057Y011241D01*
X009044Y011289D01*
X009034Y011339D01*
X009028Y011389D01*
X009026Y011439D01*
X006680Y011439D02*
X006682Y011489D01*
X006688Y011539D01*
X006698Y011589D01*
X006711Y011637D01*
X006728Y011685D01*
X006749Y011731D01*
X006773Y011775D01*
X006801Y011817D01*
X006832Y011857D01*
X006866Y011894D01*
X006903Y011929D01*
X006942Y011960D01*
X006983Y011989D01*
X007027Y012014D01*
X007073Y012036D01*
X007120Y012054D01*
X007168Y012068D01*
X007217Y012079D01*
X007267Y012086D01*
X007317Y012089D01*
X007368Y012088D01*
X007418Y012083D01*
X007468Y012074D01*
X007516Y012062D01*
X007564Y012045D01*
X007610Y012025D01*
X007655Y012002D01*
X007698Y011975D01*
X007738Y011945D01*
X007776Y011912D01*
X007811Y011876D01*
X007844Y011837D01*
X007873Y011796D01*
X007899Y011753D01*
X007922Y011708D01*
X007941Y011661D01*
X007956Y011613D01*
X007968Y011564D01*
X007976Y011514D01*
X007980Y011464D01*
X007980Y011414D01*
X007976Y011364D01*
X007968Y011314D01*
X007956Y011265D01*
X007941Y011217D01*
X007922Y011170D01*
X007899Y011125D01*
X007873Y011082D01*
X007844Y011041D01*
X007811Y011002D01*
X007776Y010966D01*
X007738Y010933D01*
X007698Y010903D01*
X007655Y010876D01*
X007610Y010853D01*
X007564Y010833D01*
X007516Y010816D01*
X007468Y010804D01*
X007418Y010795D01*
X007368Y010790D01*
X007317Y010789D01*
X007267Y010792D01*
X007217Y010799D01*
X007168Y010810D01*
X007120Y010824D01*
X007073Y010842D01*
X007027Y010864D01*
X006983Y010889D01*
X006942Y010918D01*
X006903Y010949D01*
X006866Y010984D01*
X006832Y011021D01*
X006801Y011061D01*
X006773Y011103D01*
X006749Y011147D01*
X006728Y011193D01*
X006711Y011241D01*
X006698Y011289D01*
X006688Y011339D01*
X006682Y011389D01*
X006680Y011439D01*
X000680Y011439D02*
X000682Y011489D01*
X000688Y011539D01*
X000698Y011589D01*
X000711Y011637D01*
X000728Y011685D01*
X000749Y011731D01*
X000773Y011775D01*
X000801Y011817D01*
X000832Y011857D01*
X000866Y011894D01*
X000903Y011929D01*
X000942Y011960D01*
X000983Y011989D01*
X001027Y012014D01*
X001073Y012036D01*
X001120Y012054D01*
X001168Y012068D01*
X001217Y012079D01*
X001267Y012086D01*
X001317Y012089D01*
X001368Y012088D01*
X001418Y012083D01*
X001468Y012074D01*
X001516Y012062D01*
X001564Y012045D01*
X001610Y012025D01*
X001655Y012002D01*
X001698Y011975D01*
X001738Y011945D01*
X001776Y011912D01*
X001811Y011876D01*
X001844Y011837D01*
X001873Y011796D01*
X001899Y011753D01*
X001922Y011708D01*
X001941Y011661D01*
X001956Y011613D01*
X001968Y011564D01*
X001976Y011514D01*
X001980Y011464D01*
X001980Y011414D01*
X001976Y011364D01*
X001968Y011314D01*
X001956Y011265D01*
X001941Y011217D01*
X001922Y011170D01*
X001899Y011125D01*
X001873Y011082D01*
X001844Y011041D01*
X001811Y011002D01*
X001776Y010966D01*
X001738Y010933D01*
X001698Y010903D01*
X001655Y010876D01*
X001610Y010853D01*
X001564Y010833D01*
X001516Y010816D01*
X001468Y010804D01*
X001418Y010795D01*
X001368Y010790D01*
X001317Y010789D01*
X001267Y010792D01*
X001217Y010799D01*
X001168Y010810D01*
X001120Y010824D01*
X001073Y010842D01*
X001027Y010864D01*
X000983Y010889D01*
X000942Y010918D01*
X000903Y010949D01*
X000866Y010984D01*
X000832Y011021D01*
X000801Y011061D01*
X000773Y011103D01*
X000749Y011147D01*
X000728Y011193D01*
X000711Y011241D01*
X000698Y011289D01*
X000688Y011339D01*
X000682Y011389D01*
X000680Y011439D01*
X000680Y005140D02*
X000682Y005190D01*
X000688Y005240D01*
X000698Y005290D01*
X000711Y005338D01*
X000728Y005386D01*
X000749Y005432D01*
X000773Y005476D01*
X000801Y005518D01*
X000832Y005558D01*
X000866Y005595D01*
X000903Y005630D01*
X000942Y005661D01*
X000983Y005690D01*
X001027Y005715D01*
X001073Y005737D01*
X001120Y005755D01*
X001168Y005769D01*
X001217Y005780D01*
X001267Y005787D01*
X001317Y005790D01*
X001368Y005789D01*
X001418Y005784D01*
X001468Y005775D01*
X001516Y005763D01*
X001564Y005746D01*
X001610Y005726D01*
X001655Y005703D01*
X001698Y005676D01*
X001738Y005646D01*
X001776Y005613D01*
X001811Y005577D01*
X001844Y005538D01*
X001873Y005497D01*
X001899Y005454D01*
X001922Y005409D01*
X001941Y005362D01*
X001956Y005314D01*
X001968Y005265D01*
X001976Y005215D01*
X001980Y005165D01*
X001980Y005115D01*
X001976Y005065D01*
X001968Y005015D01*
X001956Y004966D01*
X001941Y004918D01*
X001922Y004871D01*
X001899Y004826D01*
X001873Y004783D01*
X001844Y004742D01*
X001811Y004703D01*
X001776Y004667D01*
X001738Y004634D01*
X001698Y004604D01*
X001655Y004577D01*
X001610Y004554D01*
X001564Y004534D01*
X001516Y004517D01*
X001468Y004505D01*
X001418Y004496D01*
X001368Y004491D01*
X001317Y004490D01*
X001267Y004493D01*
X001217Y004500D01*
X001168Y004511D01*
X001120Y004525D01*
X001073Y004543D01*
X001027Y004565D01*
X000983Y004590D01*
X000942Y004619D01*
X000903Y004650D01*
X000866Y004685D01*
X000832Y004722D01*
X000801Y004762D01*
X000773Y004804D01*
X000749Y004848D01*
X000728Y004894D01*
X000711Y004942D01*
X000698Y004990D01*
X000688Y005040D01*
X000682Y005090D01*
X000680Y005140D01*
D14*
X004180Y004340D03*
X004180Y010639D03*
X012526Y010639D03*
X012526Y004340D03*
M02*
