G75*
%MOIN*%
%OFA0B0*%
%FSLAX24Y24*%
%IPPOS*%
%LPD*%
%AMOC8*
5,1,8,0,0,1.08239X$1,22.5*
%
%ADD10C,0.0080*%
%ADD11C,0.0120*%
%ADD12C,0.0060*%
%ADD13C,0.0050*%
%ADD14C,0.0000*%
%ADD15C,0.0059*%
D10*
X000330Y000140D02*
X000330Y006140D01*
X008330Y006140D01*
X008330Y000140D01*
X000330Y000140D01*
X000330Y000390D02*
X000580Y000140D01*
X001080Y000140D01*
X001330Y000390D01*
X001580Y000140D01*
X002080Y000140D01*
X002330Y000390D01*
X002580Y000140D01*
X003080Y000140D01*
X003330Y000390D01*
X003580Y000140D01*
X004080Y000140D01*
X004330Y000390D01*
X004580Y000140D01*
X005080Y000140D01*
X005330Y000390D01*
X005580Y000140D01*
X006080Y000140D01*
X006330Y000390D01*
X006580Y000140D01*
X007080Y000140D01*
X007330Y000390D01*
X007580Y000140D01*
X008080Y000140D01*
X008330Y000390D01*
X008330Y000890D01*
X008080Y001140D01*
X007580Y001140D01*
X007330Y000890D01*
X007080Y001140D01*
X006580Y001140D01*
X006330Y000890D01*
X006080Y001140D01*
X005580Y001140D01*
X005330Y000890D01*
X005080Y001140D01*
X004580Y001140D01*
X004330Y000890D01*
X004080Y001140D01*
X003580Y001140D01*
X003330Y000890D01*
X003080Y001140D01*
X002580Y001140D01*
X002330Y000890D01*
X002080Y001140D01*
X001580Y001140D01*
X001330Y000890D01*
X001080Y001140D01*
X000580Y001140D01*
X000330Y000890D01*
X000330Y000390D01*
X003386Y002739D02*
X003386Y003054D01*
X003386Y003606D02*
X003386Y003921D01*
X003503Y004818D02*
X003936Y004818D01*
X003503Y004818D02*
X003346Y004975D01*
X003346Y005605D01*
X003503Y005762D01*
X003936Y005762D01*
X004724Y005762D02*
X005314Y005762D01*
X005314Y004818D01*
X004724Y004818D01*
X005354Y003921D02*
X005354Y003606D01*
X004725Y003330D02*
X004727Y003342D01*
X004732Y003353D01*
X004741Y003362D01*
X004752Y003367D01*
X004764Y003369D01*
X004776Y003367D01*
X004787Y003362D01*
X004796Y003353D01*
X004801Y003342D01*
X004803Y003330D01*
X004801Y003318D01*
X004796Y003307D01*
X004787Y003298D01*
X004776Y003293D01*
X004764Y003291D01*
X004752Y003293D01*
X004741Y003298D01*
X004732Y003307D01*
X004727Y003318D01*
X004725Y003330D01*
X005354Y003054D02*
X005354Y002739D01*
X008676Y000890D02*
X008676Y000390D01*
X008926Y000140D01*
X009426Y000140D01*
X009676Y000390D01*
X009926Y000140D01*
X010426Y000140D01*
X010676Y000390D01*
X010926Y000140D01*
X011426Y000140D01*
X011676Y000390D01*
X011926Y000140D01*
X012426Y000140D01*
X012676Y000390D01*
X012926Y000140D01*
X013426Y000140D01*
X013676Y000390D01*
X013926Y000140D01*
X014426Y000140D01*
X014676Y000390D01*
X014926Y000140D01*
X015426Y000140D01*
X015676Y000390D01*
X015926Y000140D01*
X016426Y000140D01*
X016676Y000390D01*
X016676Y000890D01*
X016426Y001140D01*
X015926Y001140D01*
X015676Y000890D01*
X015426Y001140D01*
X014926Y001140D01*
X014676Y000890D01*
X014426Y001140D01*
X013926Y001140D01*
X013676Y000890D01*
X013426Y001140D01*
X012926Y001140D01*
X012676Y000890D01*
X012426Y001140D01*
X011926Y001140D01*
X011676Y000890D01*
X011426Y001140D01*
X010926Y001140D01*
X010676Y000890D01*
X010426Y001140D01*
X009926Y001140D01*
X009676Y000890D01*
X009426Y001140D01*
X008926Y001140D01*
X008676Y000890D01*
X008676Y000140D02*
X008676Y006140D01*
X016676Y006140D01*
X016676Y000140D01*
X008676Y000140D01*
X011732Y002739D02*
X011732Y003054D01*
X011732Y003606D02*
X011732Y003921D01*
X011850Y004818D02*
X012283Y004818D01*
X011850Y004818D02*
X011692Y004975D01*
X011692Y005605D01*
X011850Y005762D01*
X012283Y005762D01*
X012426Y006439D02*
X011926Y006439D01*
X011676Y006689D01*
X011426Y006439D01*
X010926Y006439D01*
X010676Y006689D01*
X010426Y006439D01*
X009926Y006439D01*
X009676Y006689D01*
X009426Y006439D01*
X008926Y006439D01*
X008676Y006689D01*
X008676Y007189D01*
X008926Y007439D01*
X009426Y007439D01*
X009676Y007189D01*
X009926Y007439D01*
X010426Y007439D01*
X010676Y007189D01*
X010926Y007439D01*
X011426Y007439D01*
X011676Y007189D01*
X011926Y007439D01*
X012426Y007439D01*
X012676Y007189D01*
X012926Y007439D01*
X013426Y007439D01*
X013676Y007189D01*
X013926Y007439D01*
X014426Y007439D01*
X014676Y007189D01*
X014926Y007439D01*
X015426Y007439D01*
X015676Y007189D01*
X015926Y007439D01*
X016426Y007439D01*
X016676Y007189D01*
X016676Y006689D01*
X016426Y006439D01*
X015926Y006439D01*
X015676Y006689D01*
X015426Y006439D01*
X014926Y006439D01*
X014676Y006689D01*
X014426Y006439D01*
X013926Y006439D01*
X013676Y006689D01*
X013426Y006439D01*
X012926Y006439D01*
X012676Y006689D01*
X012426Y006439D01*
X013070Y005762D02*
X013661Y005762D01*
X013661Y004818D01*
X013070Y004818D01*
X013701Y003921D02*
X013701Y003606D01*
X013071Y003330D02*
X013073Y003342D01*
X013078Y003353D01*
X013087Y003362D01*
X013098Y003367D01*
X013110Y003369D01*
X013122Y003367D01*
X013133Y003362D01*
X013142Y003353D01*
X013147Y003342D01*
X013149Y003330D01*
X013147Y003318D01*
X013142Y003307D01*
X013133Y003298D01*
X013122Y003293D01*
X013110Y003291D01*
X013098Y003293D01*
X013087Y003298D01*
X013078Y003307D01*
X013073Y003318D01*
X013071Y003330D01*
X013701Y003054D02*
X013701Y002739D01*
X016676Y006439D02*
X008676Y006439D01*
X008676Y012439D01*
X016676Y012439D01*
X016676Y006439D01*
X013701Y009039D02*
X013701Y009354D01*
X013071Y009629D02*
X013073Y009641D01*
X013078Y009652D01*
X013087Y009661D01*
X013098Y009666D01*
X013110Y009668D01*
X013122Y009666D01*
X013133Y009661D01*
X013142Y009652D01*
X013147Y009641D01*
X013149Y009629D01*
X013147Y009617D01*
X013142Y009606D01*
X013133Y009597D01*
X013122Y009592D01*
X013110Y009590D01*
X013098Y009592D01*
X013087Y009597D01*
X013078Y009606D01*
X013073Y009617D01*
X013071Y009629D01*
X013701Y009905D02*
X013701Y010220D01*
X013661Y011117D02*
X013070Y011117D01*
X013661Y011117D02*
X013661Y012062D01*
X013070Y012062D01*
X012283Y012062D02*
X011850Y012062D01*
X011692Y011904D01*
X011692Y011274D01*
X011850Y011117D01*
X012283Y011117D01*
X011732Y010220D02*
X011732Y009905D01*
X011732Y009354D02*
X011732Y009039D01*
X008330Y007189D02*
X008330Y006689D01*
X008080Y006439D01*
X007580Y006439D01*
X007330Y006689D01*
X007080Y006439D01*
X006580Y006439D01*
X006330Y006689D01*
X006080Y006439D01*
X005580Y006439D01*
X005330Y006689D01*
X005080Y006439D01*
X004580Y006439D01*
X004330Y006689D01*
X004080Y006439D01*
X003580Y006439D01*
X003330Y006689D01*
X003080Y006439D01*
X002580Y006439D01*
X002330Y006689D01*
X002080Y006439D01*
X001580Y006439D01*
X001330Y006689D01*
X001080Y006439D01*
X000580Y006439D01*
X000330Y006689D01*
X000330Y007189D01*
X000580Y007439D01*
X001080Y007439D01*
X001330Y007189D01*
X001580Y007439D01*
X002080Y007439D01*
X002330Y007189D01*
X002580Y007439D01*
X003080Y007439D01*
X003330Y007189D01*
X003580Y007439D01*
X004080Y007439D01*
X004330Y007189D01*
X004580Y007439D01*
X005080Y007439D01*
X005330Y007189D01*
X005580Y007439D01*
X006080Y007439D01*
X006330Y007189D01*
X006580Y007439D01*
X007080Y007439D01*
X007330Y007189D01*
X007580Y007439D01*
X008080Y007439D01*
X008330Y007189D01*
X008330Y006439D02*
X008330Y012439D01*
X000330Y012439D01*
X000330Y006439D01*
X008330Y006439D01*
X005354Y009039D02*
X005354Y009354D01*
X004725Y009629D02*
X004727Y009641D01*
X004732Y009652D01*
X004741Y009661D01*
X004752Y009666D01*
X004764Y009668D01*
X004776Y009666D01*
X004787Y009661D01*
X004796Y009652D01*
X004801Y009641D01*
X004803Y009629D01*
X004801Y009617D01*
X004796Y009606D01*
X004787Y009597D01*
X004776Y009592D01*
X004764Y009590D01*
X004752Y009592D01*
X004741Y009597D01*
X004732Y009606D01*
X004727Y009617D01*
X004725Y009629D01*
X005354Y009905D02*
X005354Y010220D01*
X005314Y011117D02*
X004724Y011117D01*
X005314Y011117D02*
X005314Y012062D01*
X004724Y012062D01*
X003936Y012062D02*
X003503Y012062D01*
X003346Y011904D01*
X003346Y011274D01*
X003503Y011117D01*
X003936Y011117D01*
X003386Y010220D02*
X003386Y009905D01*
X003386Y009354D02*
X003386Y009039D01*
D11*
X006080Y010139D02*
X006330Y010639D01*
X006630Y010339D01*
X006330Y010639D02*
X006330Y009089D01*
X007830Y009089D01*
X007530Y008789D01*
X007830Y009089D02*
X007530Y009389D01*
X007000Y009829D02*
X007002Y009844D01*
X007007Y009858D01*
X007016Y009870D01*
X007028Y009880D01*
X007041Y009886D01*
X007056Y009889D01*
X007071Y009888D01*
X007086Y009883D01*
X007098Y009875D01*
X007109Y009864D01*
X007116Y009851D01*
X007120Y009837D01*
X007120Y009821D01*
X007116Y009807D01*
X007109Y009794D01*
X007098Y009783D01*
X007086Y009775D01*
X007071Y009770D01*
X007056Y009769D01*
X007041Y009772D01*
X007028Y009778D01*
X007016Y009788D01*
X007007Y009800D01*
X007002Y009814D01*
X007000Y009829D01*
X006710Y009829D02*
X006712Y009866D01*
X006718Y009903D01*
X006728Y009939D01*
X006741Y009974D01*
X006758Y010007D01*
X006779Y010038D01*
X006803Y010066D01*
X006830Y010092D01*
X006859Y010115D01*
X006890Y010135D01*
X006924Y010151D01*
X006959Y010164D01*
X006995Y010173D01*
X007032Y010178D01*
X007069Y010179D01*
X007106Y010176D01*
X007143Y010169D01*
X007179Y010158D01*
X007213Y010144D01*
X007246Y010126D01*
X007276Y010104D01*
X007304Y010080D01*
X007329Y010052D01*
X007352Y010022D01*
X007371Y009990D01*
X007386Y009956D01*
X007398Y009921D01*
X007406Y009885D01*
X007410Y009848D01*
X007410Y009810D01*
X007406Y009773D01*
X007398Y009737D01*
X007386Y009702D01*
X007371Y009668D01*
X007352Y009636D01*
X007329Y009606D01*
X007304Y009578D01*
X007276Y009554D01*
X007246Y009532D01*
X007213Y009514D01*
X007179Y009500D01*
X007143Y009489D01*
X007106Y009482D01*
X007069Y009479D01*
X007032Y009480D01*
X006995Y009485D01*
X006959Y009494D01*
X006924Y009507D01*
X006890Y009523D01*
X006859Y009543D01*
X006830Y009566D01*
X006803Y009592D01*
X006779Y009620D01*
X006758Y009651D01*
X006741Y009684D01*
X006728Y009719D01*
X006718Y009755D01*
X006712Y009792D01*
X006710Y009829D01*
X006330Y004340D02*
X006630Y004040D01*
X006330Y004340D02*
X006080Y003840D01*
X006330Y004340D02*
X006330Y002790D01*
X007830Y002790D01*
X007530Y002490D01*
X007830Y002790D02*
X007530Y003090D01*
X007000Y003530D02*
X007002Y003545D01*
X007007Y003559D01*
X007016Y003571D01*
X007028Y003581D01*
X007041Y003587D01*
X007056Y003590D01*
X007071Y003589D01*
X007086Y003584D01*
X007098Y003576D01*
X007109Y003565D01*
X007116Y003552D01*
X007120Y003538D01*
X007120Y003522D01*
X007116Y003508D01*
X007109Y003495D01*
X007098Y003484D01*
X007086Y003476D01*
X007071Y003471D01*
X007056Y003470D01*
X007041Y003473D01*
X007028Y003479D01*
X007016Y003489D01*
X007007Y003501D01*
X007002Y003515D01*
X007000Y003530D01*
X006710Y003530D02*
X006712Y003567D01*
X006718Y003604D01*
X006728Y003640D01*
X006741Y003675D01*
X006758Y003708D01*
X006779Y003739D01*
X006803Y003767D01*
X006830Y003793D01*
X006859Y003816D01*
X006890Y003836D01*
X006924Y003852D01*
X006959Y003865D01*
X006995Y003874D01*
X007032Y003879D01*
X007069Y003880D01*
X007106Y003877D01*
X007143Y003870D01*
X007179Y003859D01*
X007213Y003845D01*
X007246Y003827D01*
X007276Y003805D01*
X007304Y003781D01*
X007329Y003753D01*
X007352Y003723D01*
X007371Y003691D01*
X007386Y003657D01*
X007398Y003622D01*
X007406Y003586D01*
X007410Y003549D01*
X007410Y003511D01*
X007406Y003474D01*
X007398Y003438D01*
X007386Y003403D01*
X007371Y003369D01*
X007352Y003337D01*
X007329Y003307D01*
X007304Y003279D01*
X007276Y003255D01*
X007246Y003233D01*
X007213Y003215D01*
X007179Y003201D01*
X007143Y003190D01*
X007106Y003183D01*
X007069Y003180D01*
X007032Y003181D01*
X006995Y003186D01*
X006959Y003195D01*
X006924Y003208D01*
X006890Y003224D01*
X006859Y003244D01*
X006830Y003267D01*
X006803Y003293D01*
X006779Y003321D01*
X006758Y003352D01*
X006741Y003385D01*
X006728Y003420D01*
X006718Y003456D01*
X006712Y003493D01*
X006710Y003530D01*
X014426Y003840D02*
X014676Y004340D01*
X014976Y004040D01*
X014676Y004340D02*
X014676Y002790D01*
X016176Y002790D01*
X015876Y002490D01*
X016176Y002790D02*
X015876Y003090D01*
X015346Y003530D02*
X015348Y003545D01*
X015353Y003559D01*
X015362Y003571D01*
X015374Y003581D01*
X015387Y003587D01*
X015402Y003590D01*
X015417Y003589D01*
X015432Y003584D01*
X015444Y003576D01*
X015455Y003565D01*
X015462Y003552D01*
X015466Y003538D01*
X015466Y003522D01*
X015462Y003508D01*
X015455Y003495D01*
X015444Y003484D01*
X015432Y003476D01*
X015417Y003471D01*
X015402Y003470D01*
X015387Y003473D01*
X015374Y003479D01*
X015362Y003489D01*
X015353Y003501D01*
X015348Y003515D01*
X015346Y003530D01*
X015056Y003530D02*
X015058Y003567D01*
X015064Y003604D01*
X015074Y003640D01*
X015087Y003675D01*
X015104Y003708D01*
X015125Y003739D01*
X015149Y003767D01*
X015176Y003793D01*
X015205Y003816D01*
X015236Y003836D01*
X015270Y003852D01*
X015305Y003865D01*
X015341Y003874D01*
X015378Y003879D01*
X015415Y003880D01*
X015452Y003877D01*
X015489Y003870D01*
X015525Y003859D01*
X015559Y003845D01*
X015592Y003827D01*
X015622Y003805D01*
X015650Y003781D01*
X015675Y003753D01*
X015698Y003723D01*
X015717Y003691D01*
X015732Y003657D01*
X015744Y003622D01*
X015752Y003586D01*
X015756Y003549D01*
X015756Y003511D01*
X015752Y003474D01*
X015744Y003438D01*
X015732Y003403D01*
X015717Y003369D01*
X015698Y003337D01*
X015675Y003307D01*
X015650Y003279D01*
X015622Y003255D01*
X015592Y003233D01*
X015559Y003215D01*
X015525Y003201D01*
X015489Y003190D01*
X015452Y003183D01*
X015415Y003180D01*
X015378Y003181D01*
X015341Y003186D01*
X015305Y003195D01*
X015270Y003208D01*
X015236Y003224D01*
X015205Y003244D01*
X015176Y003267D01*
X015149Y003293D01*
X015125Y003321D01*
X015104Y003352D01*
X015087Y003385D01*
X015074Y003420D01*
X015064Y003456D01*
X015058Y003493D01*
X015056Y003530D01*
X015876Y008789D02*
X016176Y009089D01*
X015876Y009389D01*
X016176Y009089D02*
X014676Y009089D01*
X014676Y010639D01*
X014976Y010339D01*
X014676Y010639D02*
X014426Y010139D01*
X015346Y009829D02*
X015348Y009844D01*
X015353Y009858D01*
X015362Y009870D01*
X015374Y009880D01*
X015387Y009886D01*
X015402Y009889D01*
X015417Y009888D01*
X015432Y009883D01*
X015444Y009875D01*
X015455Y009864D01*
X015462Y009851D01*
X015466Y009837D01*
X015466Y009821D01*
X015462Y009807D01*
X015455Y009794D01*
X015444Y009783D01*
X015432Y009775D01*
X015417Y009770D01*
X015402Y009769D01*
X015387Y009772D01*
X015374Y009778D01*
X015362Y009788D01*
X015353Y009800D01*
X015348Y009814D01*
X015346Y009829D01*
X015056Y009829D02*
X015058Y009866D01*
X015064Y009903D01*
X015074Y009939D01*
X015087Y009974D01*
X015104Y010007D01*
X015125Y010038D01*
X015149Y010066D01*
X015176Y010092D01*
X015205Y010115D01*
X015236Y010135D01*
X015270Y010151D01*
X015305Y010164D01*
X015341Y010173D01*
X015378Y010178D01*
X015415Y010179D01*
X015452Y010176D01*
X015489Y010169D01*
X015525Y010158D01*
X015559Y010144D01*
X015592Y010126D01*
X015622Y010104D01*
X015650Y010080D01*
X015675Y010052D01*
X015698Y010022D01*
X015717Y009990D01*
X015732Y009956D01*
X015744Y009921D01*
X015752Y009885D01*
X015756Y009848D01*
X015756Y009810D01*
X015752Y009773D01*
X015744Y009737D01*
X015732Y009702D01*
X015717Y009668D01*
X015698Y009636D01*
X015675Y009606D01*
X015650Y009578D01*
X015622Y009554D01*
X015592Y009532D01*
X015559Y009514D01*
X015525Y009500D01*
X015489Y009489D01*
X015452Y009482D01*
X015415Y009479D01*
X015378Y009480D01*
X015341Y009485D01*
X015305Y009494D01*
X015270Y009507D01*
X015236Y009523D01*
X015205Y009543D01*
X015176Y009566D01*
X015149Y009592D01*
X015125Y009620D01*
X015104Y009651D01*
X015087Y009684D01*
X015074Y009719D01*
X015064Y009755D01*
X015058Y009792D01*
X015056Y009829D01*
D12*
X015886Y009969D02*
X016113Y009969D01*
X015886Y009969D02*
X015886Y010026D01*
X016113Y010253D01*
X016113Y010310D01*
X015886Y010310D01*
X014793Y011103D02*
X014793Y011160D01*
X014793Y011103D02*
X014680Y010989D01*
X014680Y010819D01*
X014680Y010989D02*
X014566Y011103D01*
X014566Y011160D01*
X014463Y011257D02*
X014463Y011021D01*
X013990Y011021D02*
X013990Y011257D01*
X011353Y011257D02*
X011353Y011021D01*
X010880Y011021D02*
X010880Y011257D01*
X008187Y009360D02*
X007960Y009019D01*
X008187Y009019D02*
X007960Y009360D01*
X007767Y009969D02*
X007540Y009969D01*
X007540Y010026D01*
X007767Y010253D01*
X007767Y010310D01*
X007540Y010310D01*
X006447Y011103D02*
X006447Y011160D01*
X006447Y011103D02*
X006333Y010989D01*
X006333Y010819D01*
X006333Y010989D02*
X006220Y011103D01*
X006220Y011160D01*
X006116Y011257D02*
X006116Y011021D01*
X005644Y011021D02*
X005644Y011257D01*
X003006Y011257D02*
X003006Y011021D01*
X002534Y011021D02*
X002534Y011257D01*
X004100Y008778D02*
X004100Y008551D01*
X004100Y008665D02*
X003760Y008665D01*
X003873Y008551D01*
X003760Y008410D02*
X003760Y008183D01*
X003760Y008296D02*
X004100Y008296D01*
X004100Y008042D02*
X003760Y008042D01*
X003760Y007815D02*
X004100Y008042D01*
X004100Y007815D02*
X003760Y007815D01*
X003760Y007683D02*
X003760Y007569D01*
X003760Y007626D02*
X004100Y007626D01*
X004100Y007569D02*
X004100Y007683D01*
X004760Y007683D02*
X004760Y007569D01*
X004760Y007626D02*
X005100Y007626D01*
X005100Y007569D02*
X005100Y007683D01*
X005100Y007815D02*
X004760Y007815D01*
X005100Y008042D01*
X004760Y008042D01*
X004760Y008183D02*
X004760Y008410D01*
X004760Y008296D02*
X005100Y008296D01*
X005100Y008551D02*
X004873Y008778D01*
X004816Y008778D01*
X004760Y008722D01*
X004760Y008608D01*
X004816Y008551D01*
X005100Y008551D02*
X005100Y008778D01*
X005760Y008476D02*
X005816Y008533D01*
X006043Y008533D01*
X006100Y008476D01*
X006100Y008363D01*
X006043Y008306D01*
X005816Y008306D01*
X005760Y008363D01*
X005760Y008476D01*
X005816Y008164D02*
X005760Y008108D01*
X005760Y007938D01*
X006100Y007938D01*
X006100Y008108D01*
X006043Y008164D01*
X005816Y008164D01*
X005816Y007796D02*
X005760Y007739D01*
X005760Y007626D01*
X005816Y007569D01*
X005873Y007569D01*
X005930Y007626D01*
X005930Y007739D01*
X005987Y007796D01*
X006043Y007796D01*
X006100Y007739D01*
X006100Y007626D01*
X006043Y007569D01*
X006760Y007626D02*
X006816Y007569D01*
X006873Y007569D01*
X006930Y007626D01*
X006930Y007739D01*
X006987Y007796D01*
X007043Y007796D01*
X007100Y007739D01*
X007100Y007626D01*
X007043Y007569D01*
X006760Y007626D02*
X006760Y007739D01*
X006816Y007796D01*
X006760Y007938D02*
X006760Y008108D01*
X006816Y008164D01*
X007043Y008164D01*
X007100Y008108D01*
X007100Y007938D01*
X006760Y007938D01*
X006873Y008306D02*
X006760Y008419D01*
X006873Y008533D01*
X007100Y008533D01*
X006930Y008533D02*
X006930Y008306D01*
X006873Y008306D02*
X007100Y008306D01*
X007760Y008306D02*
X008100Y008306D01*
X008100Y008533D01*
X008043Y008164D02*
X008100Y008108D01*
X008100Y007994D01*
X008043Y007938D01*
X007816Y007938D01*
X007760Y007994D01*
X007760Y008108D01*
X007816Y008164D01*
X007816Y007796D02*
X007760Y007739D01*
X007760Y007626D01*
X007816Y007569D01*
X007873Y007569D01*
X007930Y007626D01*
X007930Y007739D01*
X007987Y007796D01*
X008043Y007796D01*
X008100Y007739D01*
X008100Y007626D01*
X008043Y007569D01*
X009106Y007626D02*
X009163Y007569D01*
X009390Y007569D01*
X009446Y007626D01*
X009446Y007739D01*
X009390Y007796D01*
X009276Y007796D01*
X009276Y007683D01*
X009163Y007796D02*
X009106Y007739D01*
X009106Y007626D01*
X009106Y007938D02*
X009446Y008164D01*
X009106Y008164D01*
X009106Y008306D02*
X009106Y008476D01*
X009163Y008533D01*
X009390Y008533D01*
X009446Y008476D01*
X009446Y008306D01*
X009106Y008306D01*
X009106Y007938D02*
X009446Y007938D01*
X010106Y007994D02*
X010163Y007938D01*
X010390Y007938D01*
X010446Y007994D01*
X010446Y008108D01*
X010390Y008164D01*
X010390Y008306D02*
X010163Y008306D01*
X010106Y008363D01*
X010106Y008476D01*
X010163Y008533D01*
X010390Y008533D02*
X010446Y008476D01*
X010446Y008363D01*
X010390Y008306D01*
X010163Y008164D02*
X010106Y008108D01*
X010106Y007994D01*
X010106Y007796D02*
X010333Y007796D01*
X010446Y007683D01*
X010333Y007569D01*
X010106Y007569D01*
X011106Y007626D02*
X011163Y007569D01*
X011390Y007569D01*
X011446Y007626D01*
X011446Y007739D01*
X011390Y007796D01*
X011390Y007938D02*
X011446Y007994D01*
X011446Y008108D01*
X011390Y008164D01*
X011333Y008164D01*
X011276Y008108D01*
X011276Y007994D01*
X011220Y007938D01*
X011163Y007938D01*
X011106Y007994D01*
X011106Y008108D01*
X011163Y008164D01*
X011163Y007796D02*
X011106Y007739D01*
X011106Y007626D01*
X012106Y007626D02*
X012446Y007626D01*
X012446Y007569D02*
X012446Y007683D01*
X012446Y007815D02*
X012106Y007815D01*
X012446Y008042D01*
X012106Y008042D01*
X012106Y008183D02*
X012106Y008410D01*
X012106Y008296D02*
X012446Y008296D01*
X012446Y008551D02*
X012446Y008778D01*
X012446Y008665D02*
X012106Y008665D01*
X012220Y008551D01*
X013106Y008608D02*
X013163Y008551D01*
X013106Y008608D02*
X013106Y008722D01*
X013163Y008778D01*
X013220Y008778D01*
X013446Y008551D01*
X013446Y008778D01*
X013106Y008410D02*
X013106Y008183D01*
X013106Y008296D02*
X013446Y008296D01*
X013446Y008042D02*
X013106Y008042D01*
X013106Y007815D02*
X013446Y008042D01*
X013446Y007815D02*
X013106Y007815D01*
X013106Y007683D02*
X013106Y007569D01*
X013106Y007626D02*
X013446Y007626D01*
X013446Y007569D02*
X013446Y007683D01*
X014106Y007739D02*
X014106Y007626D01*
X014163Y007569D01*
X014220Y007569D01*
X014276Y007626D01*
X014276Y007739D01*
X014333Y007796D01*
X014390Y007796D01*
X014446Y007739D01*
X014446Y007626D01*
X014390Y007569D01*
X014163Y007796D02*
X014106Y007739D01*
X014106Y007938D02*
X014106Y008108D01*
X014163Y008164D01*
X014390Y008164D01*
X014446Y008108D01*
X014446Y007938D01*
X014106Y007938D01*
X014163Y008306D02*
X014390Y008306D01*
X014446Y008363D01*
X014446Y008476D01*
X014390Y008533D01*
X014163Y008533D01*
X014106Y008476D01*
X014106Y008363D01*
X014163Y008306D01*
X015106Y008419D02*
X015220Y008306D01*
X015446Y008306D01*
X015390Y008164D02*
X015163Y008164D01*
X015106Y008108D01*
X015106Y007938D01*
X015446Y007938D01*
X015446Y008108D01*
X015390Y008164D01*
X015276Y008306D02*
X015276Y008533D01*
X015220Y008533D02*
X015106Y008419D01*
X015220Y008533D02*
X015446Y008533D01*
X016106Y008306D02*
X016446Y008306D01*
X016446Y008533D01*
X016390Y008164D02*
X016446Y008108D01*
X016446Y007994D01*
X016390Y007938D01*
X016163Y007938D01*
X016106Y007994D01*
X016106Y008108D01*
X016163Y008164D01*
X016163Y007796D02*
X016106Y007739D01*
X016106Y007626D01*
X016163Y007569D01*
X016220Y007569D01*
X016276Y007626D01*
X016276Y007739D01*
X016333Y007796D01*
X016390Y007796D01*
X016446Y007739D01*
X016446Y007626D01*
X016390Y007569D01*
X015446Y007626D02*
X015390Y007569D01*
X015446Y007626D02*
X015446Y007739D01*
X015390Y007796D01*
X015333Y007796D01*
X015276Y007739D01*
X015276Y007626D01*
X015220Y007569D01*
X015163Y007569D01*
X015106Y007626D01*
X015106Y007739D01*
X015163Y007796D01*
X016306Y009019D02*
X016533Y009360D01*
X016306Y009360D02*
X016533Y009019D01*
X012106Y007683D02*
X012106Y007569D01*
X011353Y004958D02*
X011353Y004722D01*
X010880Y004722D02*
X010880Y004958D01*
X008187Y003060D02*
X007960Y002720D01*
X008187Y002720D02*
X007960Y003060D01*
X007767Y003670D02*
X007540Y003670D01*
X007540Y003727D01*
X007767Y003954D01*
X007767Y004010D01*
X007540Y004010D01*
X006447Y004804D02*
X006447Y004860D01*
X006447Y004804D02*
X006333Y004690D01*
X006333Y004520D01*
X006333Y004690D02*
X006220Y004804D01*
X006220Y004860D01*
X006116Y004958D02*
X006116Y004722D01*
X005644Y004722D02*
X005644Y004958D01*
X003006Y004958D02*
X003006Y004722D01*
X002534Y004722D02*
X002534Y004958D01*
X002816Y007569D02*
X003043Y007569D01*
X003100Y007626D01*
X003100Y007739D01*
X003043Y007796D01*
X003043Y007938D02*
X003100Y007994D01*
X003100Y008108D01*
X003043Y008164D01*
X002987Y008164D01*
X002930Y008108D01*
X002930Y007994D01*
X002873Y007938D01*
X002816Y007938D01*
X002760Y007994D01*
X002760Y008108D01*
X002816Y008164D01*
X002816Y007796D02*
X002760Y007739D01*
X002760Y007626D01*
X002816Y007569D01*
X002100Y007683D02*
X001987Y007796D01*
X001760Y007796D01*
X001816Y007938D02*
X002043Y007938D01*
X002100Y007994D01*
X002100Y008108D01*
X002043Y008164D01*
X002043Y008306D02*
X002100Y008363D01*
X002100Y008476D01*
X002043Y008533D01*
X001816Y008533D02*
X001760Y008476D01*
X001760Y008363D01*
X001816Y008306D01*
X002043Y008306D01*
X001816Y008164D02*
X001760Y008108D01*
X001760Y007994D01*
X001816Y007938D01*
X002100Y007683D02*
X001987Y007569D01*
X001760Y007569D01*
X001100Y007626D02*
X001043Y007569D01*
X000816Y007569D01*
X000760Y007626D01*
X000760Y007739D01*
X000816Y007796D01*
X000930Y007796D02*
X000930Y007683D01*
X000930Y007796D02*
X001043Y007796D01*
X001100Y007739D01*
X001100Y007626D01*
X001100Y007938D02*
X000760Y007938D01*
X001100Y008164D01*
X000760Y008164D01*
X000760Y008306D02*
X000760Y008476D01*
X000816Y008533D01*
X001043Y008533D01*
X001100Y008476D01*
X001100Y008306D01*
X000760Y008306D01*
X004100Y002479D02*
X004100Y002252D01*
X004100Y002366D02*
X003760Y002366D01*
X003873Y002252D01*
X003760Y002111D02*
X003760Y001884D01*
X003760Y001997D02*
X004100Y001997D01*
X004100Y001742D02*
X003760Y001742D01*
X003760Y001516D02*
X004100Y001742D01*
X004100Y001516D02*
X003760Y001516D01*
X003760Y001383D02*
X003760Y001270D01*
X003760Y001327D02*
X004100Y001327D01*
X004100Y001383D02*
X004100Y001270D01*
X004760Y001270D02*
X004760Y001383D01*
X004760Y001327D02*
X005100Y001327D01*
X005100Y001383D02*
X005100Y001270D01*
X005100Y001516D02*
X004760Y001516D01*
X005100Y001742D01*
X004760Y001742D01*
X004760Y001884D02*
X004760Y002111D01*
X004760Y001997D02*
X005100Y001997D01*
X005100Y002252D02*
X004873Y002479D01*
X004816Y002479D01*
X004760Y002422D01*
X004760Y002309D01*
X004816Y002252D01*
X005100Y002252D02*
X005100Y002479D01*
X005760Y002177D02*
X005760Y002063D01*
X005816Y002007D01*
X006043Y002007D01*
X006100Y002063D01*
X006100Y002177D01*
X006043Y002233D01*
X005816Y002233D01*
X005760Y002177D01*
X005816Y001865D02*
X005760Y001808D01*
X005760Y001638D01*
X006100Y001638D01*
X006100Y001808D01*
X006043Y001865D01*
X005816Y001865D01*
X005816Y001497D02*
X005760Y001440D01*
X005760Y001327D01*
X005816Y001270D01*
X005873Y001270D01*
X005930Y001327D01*
X005930Y001440D01*
X005987Y001497D01*
X006043Y001497D01*
X006100Y001440D01*
X006100Y001327D01*
X006043Y001270D01*
X006760Y001327D02*
X006816Y001270D01*
X006873Y001270D01*
X006930Y001327D01*
X006930Y001440D01*
X006987Y001497D01*
X007043Y001497D01*
X007100Y001440D01*
X007100Y001327D01*
X007043Y001270D01*
X006816Y001497D02*
X006760Y001440D01*
X006760Y001327D01*
X006760Y001638D02*
X006760Y001808D01*
X006816Y001865D01*
X007043Y001865D01*
X007100Y001808D01*
X007100Y001638D01*
X006760Y001638D01*
X006873Y002007D02*
X006760Y002120D01*
X006873Y002233D01*
X007100Y002233D01*
X006930Y002233D02*
X006930Y002007D01*
X006873Y002007D02*
X007100Y002007D01*
X007760Y002007D02*
X008100Y002007D01*
X008100Y002233D01*
X008043Y001865D02*
X008100Y001808D01*
X008100Y001695D01*
X008043Y001638D01*
X007816Y001638D01*
X007760Y001695D01*
X007760Y001808D01*
X007816Y001865D01*
X007816Y001497D02*
X007760Y001440D01*
X007760Y001327D01*
X007816Y001270D01*
X007873Y001270D01*
X007930Y001327D01*
X007930Y001440D01*
X007987Y001497D01*
X008043Y001497D01*
X008100Y001440D01*
X008100Y001327D01*
X008043Y001270D01*
X009106Y001327D02*
X009163Y001270D01*
X009390Y001270D01*
X009446Y001327D01*
X009446Y001440D01*
X009390Y001497D01*
X009276Y001497D01*
X009276Y001383D01*
X009163Y001497D02*
X009106Y001440D01*
X009106Y001327D01*
X009106Y001638D02*
X009446Y001865D01*
X009106Y001865D01*
X009106Y002007D02*
X009106Y002177D01*
X009163Y002233D01*
X009390Y002233D01*
X009446Y002177D01*
X009446Y002007D01*
X009106Y002007D01*
X009106Y001638D02*
X009446Y001638D01*
X010106Y001695D02*
X010163Y001638D01*
X010390Y001638D01*
X010446Y001695D01*
X010446Y001808D01*
X010390Y001865D01*
X010390Y002007D02*
X010163Y002007D01*
X010106Y002063D01*
X010106Y002177D01*
X010163Y002233D01*
X010390Y002233D02*
X010446Y002177D01*
X010446Y002063D01*
X010390Y002007D01*
X010163Y001865D02*
X010106Y001808D01*
X010106Y001695D01*
X010106Y001497D02*
X010333Y001497D01*
X010446Y001383D01*
X010333Y001270D01*
X010106Y001270D01*
X011106Y001327D02*
X011163Y001270D01*
X011390Y001270D01*
X011446Y001327D01*
X011446Y001440D01*
X011390Y001497D01*
X011390Y001638D02*
X011446Y001695D01*
X011446Y001808D01*
X011390Y001865D01*
X011333Y001865D01*
X011276Y001808D01*
X011276Y001695D01*
X011220Y001638D01*
X011163Y001638D01*
X011106Y001695D01*
X011106Y001808D01*
X011163Y001865D01*
X011163Y001497D02*
X011106Y001440D01*
X011106Y001327D01*
X012106Y001327D02*
X012446Y001327D01*
X012446Y001383D02*
X012446Y001270D01*
X012446Y001516D02*
X012106Y001516D01*
X012446Y001742D01*
X012106Y001742D01*
X012106Y001884D02*
X012106Y002111D01*
X012106Y001997D02*
X012446Y001997D01*
X012446Y002252D02*
X012446Y002479D01*
X012446Y002366D02*
X012106Y002366D01*
X012220Y002252D01*
X013106Y002309D02*
X013163Y002252D01*
X013106Y002309D02*
X013106Y002422D01*
X013163Y002479D01*
X013220Y002479D01*
X013446Y002252D01*
X013446Y002479D01*
X013106Y002111D02*
X013106Y001884D01*
X013106Y001997D02*
X013446Y001997D01*
X013446Y001742D02*
X013106Y001742D01*
X013106Y001516D02*
X013446Y001742D01*
X013446Y001516D02*
X013106Y001516D01*
X013106Y001383D02*
X013106Y001270D01*
X013106Y001327D02*
X013446Y001327D01*
X013446Y001383D02*
X013446Y001270D01*
X014106Y001327D02*
X014163Y001270D01*
X014220Y001270D01*
X014276Y001327D01*
X014276Y001440D01*
X014333Y001497D01*
X014390Y001497D01*
X014446Y001440D01*
X014446Y001327D01*
X014390Y001270D01*
X014106Y001327D02*
X014106Y001440D01*
X014163Y001497D01*
X014106Y001638D02*
X014106Y001808D01*
X014163Y001865D01*
X014390Y001865D01*
X014446Y001808D01*
X014446Y001638D01*
X014106Y001638D01*
X014163Y002007D02*
X014390Y002007D01*
X014446Y002063D01*
X014446Y002177D01*
X014390Y002233D01*
X014163Y002233D01*
X014106Y002177D01*
X014106Y002063D01*
X014163Y002007D01*
X015106Y002120D02*
X015220Y002007D01*
X015446Y002007D01*
X015390Y001865D02*
X015163Y001865D01*
X015106Y001808D01*
X015106Y001638D01*
X015446Y001638D01*
X015446Y001808D01*
X015390Y001865D01*
X015276Y002007D02*
X015276Y002233D01*
X015220Y002233D02*
X015106Y002120D01*
X015220Y002233D02*
X015446Y002233D01*
X016106Y002007D02*
X016446Y002007D01*
X016446Y002233D01*
X016390Y001865D02*
X016446Y001808D01*
X016446Y001695D01*
X016390Y001638D01*
X016163Y001638D01*
X016106Y001695D01*
X016106Y001808D01*
X016163Y001865D01*
X016163Y001497D02*
X016106Y001440D01*
X016106Y001327D01*
X016163Y001270D01*
X016220Y001270D01*
X016276Y001327D01*
X016276Y001440D01*
X016333Y001497D01*
X016390Y001497D01*
X016446Y001440D01*
X016446Y001327D01*
X016390Y001270D01*
X015446Y001327D02*
X015390Y001270D01*
X015446Y001327D02*
X015446Y001440D01*
X015390Y001497D01*
X015333Y001497D01*
X015276Y001440D01*
X015276Y001327D01*
X015220Y001270D01*
X015163Y001270D01*
X015106Y001327D01*
X015106Y001440D01*
X015163Y001497D01*
X016306Y002720D02*
X016533Y003060D01*
X016306Y003060D02*
X016533Y002720D01*
X016113Y003670D02*
X015886Y003670D01*
X015886Y003727D01*
X016113Y003954D01*
X016113Y004010D01*
X015886Y004010D01*
X014793Y004804D02*
X014793Y004860D01*
X014793Y004804D02*
X014680Y004690D01*
X014680Y004520D01*
X014680Y004690D02*
X014566Y004804D01*
X014566Y004860D01*
X014463Y004958D02*
X014463Y004722D01*
X013990Y004722D02*
X013990Y004958D01*
X012106Y001383D02*
X012106Y001270D01*
X003100Y001327D02*
X003100Y001440D01*
X003043Y001497D01*
X003043Y001638D02*
X003100Y001695D01*
X003100Y001808D01*
X003043Y001865D01*
X002987Y001865D01*
X002930Y001808D01*
X002930Y001695D01*
X002873Y001638D01*
X002816Y001638D01*
X002760Y001695D01*
X002760Y001808D01*
X002816Y001865D01*
X002816Y001497D02*
X002760Y001440D01*
X002760Y001327D01*
X002816Y001270D01*
X003043Y001270D01*
X003100Y001327D01*
X002100Y001383D02*
X001987Y001497D01*
X001760Y001497D01*
X001816Y001638D02*
X002043Y001638D01*
X002100Y001695D01*
X002100Y001808D01*
X002043Y001865D01*
X002043Y002007D02*
X002100Y002063D01*
X002100Y002177D01*
X002043Y002233D01*
X002043Y002007D02*
X001816Y002007D01*
X001760Y002063D01*
X001760Y002177D01*
X001816Y002233D01*
X001816Y001865D02*
X001760Y001808D01*
X001760Y001695D01*
X001816Y001638D01*
X001760Y001270D02*
X001987Y001270D01*
X002100Y001383D01*
X001100Y001327D02*
X001100Y001440D01*
X001043Y001497D01*
X000930Y001497D01*
X000930Y001383D01*
X001043Y001270D02*
X000816Y001270D01*
X000760Y001327D01*
X000760Y001440D01*
X000816Y001497D01*
X000760Y001638D02*
X001100Y001865D01*
X000760Y001865D01*
X000760Y002007D02*
X000760Y002177D01*
X000816Y002233D01*
X001043Y002233D01*
X001100Y002177D01*
X001100Y002007D01*
X000760Y002007D01*
X000760Y001638D02*
X001100Y001638D01*
X001100Y001327D02*
X001043Y001270D01*
D13*
X004180Y004890D02*
X004180Y005690D01*
X004180Y011189D02*
X004180Y011989D01*
X012526Y011989D02*
X012526Y011189D01*
X012526Y005690D02*
X012526Y004890D01*
D14*
X009026Y005140D02*
X009028Y005190D01*
X009034Y005240D01*
X009044Y005290D01*
X009057Y005338D01*
X009074Y005386D01*
X009095Y005432D01*
X009119Y005476D01*
X009147Y005518D01*
X009178Y005558D01*
X009212Y005595D01*
X009249Y005630D01*
X009288Y005661D01*
X009329Y005690D01*
X009373Y005715D01*
X009419Y005737D01*
X009466Y005755D01*
X009514Y005769D01*
X009563Y005780D01*
X009613Y005787D01*
X009663Y005790D01*
X009714Y005789D01*
X009764Y005784D01*
X009814Y005775D01*
X009862Y005763D01*
X009910Y005746D01*
X009956Y005726D01*
X010001Y005703D01*
X010044Y005676D01*
X010084Y005646D01*
X010122Y005613D01*
X010157Y005577D01*
X010190Y005538D01*
X010219Y005497D01*
X010245Y005454D01*
X010268Y005409D01*
X010287Y005362D01*
X010302Y005314D01*
X010314Y005265D01*
X010322Y005215D01*
X010326Y005165D01*
X010326Y005115D01*
X010322Y005065D01*
X010314Y005015D01*
X010302Y004966D01*
X010287Y004918D01*
X010268Y004871D01*
X010245Y004826D01*
X010219Y004783D01*
X010190Y004742D01*
X010157Y004703D01*
X010122Y004667D01*
X010084Y004634D01*
X010044Y004604D01*
X010001Y004577D01*
X009956Y004554D01*
X009910Y004534D01*
X009862Y004517D01*
X009814Y004505D01*
X009764Y004496D01*
X009714Y004491D01*
X009663Y004490D01*
X009613Y004493D01*
X009563Y004500D01*
X009514Y004511D01*
X009466Y004525D01*
X009419Y004543D01*
X009373Y004565D01*
X009329Y004590D01*
X009288Y004619D01*
X009249Y004650D01*
X009212Y004685D01*
X009178Y004722D01*
X009147Y004762D01*
X009119Y004804D01*
X009095Y004848D01*
X009074Y004894D01*
X009057Y004942D01*
X009044Y004990D01*
X009034Y005040D01*
X009028Y005090D01*
X009026Y005140D01*
X006680Y005140D02*
X006682Y005190D01*
X006688Y005240D01*
X006698Y005290D01*
X006711Y005338D01*
X006728Y005386D01*
X006749Y005432D01*
X006773Y005476D01*
X006801Y005518D01*
X006832Y005558D01*
X006866Y005595D01*
X006903Y005630D01*
X006942Y005661D01*
X006983Y005690D01*
X007027Y005715D01*
X007073Y005737D01*
X007120Y005755D01*
X007168Y005769D01*
X007217Y005780D01*
X007267Y005787D01*
X007317Y005790D01*
X007368Y005789D01*
X007418Y005784D01*
X007468Y005775D01*
X007516Y005763D01*
X007564Y005746D01*
X007610Y005726D01*
X007655Y005703D01*
X007698Y005676D01*
X007738Y005646D01*
X007776Y005613D01*
X007811Y005577D01*
X007844Y005538D01*
X007873Y005497D01*
X007899Y005454D01*
X007922Y005409D01*
X007941Y005362D01*
X007956Y005314D01*
X007968Y005265D01*
X007976Y005215D01*
X007980Y005165D01*
X007980Y005115D01*
X007976Y005065D01*
X007968Y005015D01*
X007956Y004966D01*
X007941Y004918D01*
X007922Y004871D01*
X007899Y004826D01*
X007873Y004783D01*
X007844Y004742D01*
X007811Y004703D01*
X007776Y004667D01*
X007738Y004634D01*
X007698Y004604D01*
X007655Y004577D01*
X007610Y004554D01*
X007564Y004534D01*
X007516Y004517D01*
X007468Y004505D01*
X007418Y004496D01*
X007368Y004491D01*
X007317Y004490D01*
X007267Y004493D01*
X007217Y004500D01*
X007168Y004511D01*
X007120Y004525D01*
X007073Y004543D01*
X007027Y004565D01*
X006983Y004590D01*
X006942Y004619D01*
X006903Y004650D01*
X006866Y004685D01*
X006832Y004722D01*
X006801Y004762D01*
X006773Y004804D01*
X006749Y004848D01*
X006728Y004894D01*
X006711Y004942D01*
X006698Y004990D01*
X006688Y005040D01*
X006682Y005090D01*
X006680Y005140D01*
X000680Y005140D02*
X000682Y005190D01*
X000688Y005240D01*
X000698Y005290D01*
X000711Y005338D01*
X000728Y005386D01*
X000749Y005432D01*
X000773Y005476D01*
X000801Y005518D01*
X000832Y005558D01*
X000866Y005595D01*
X000903Y005630D01*
X000942Y005661D01*
X000983Y005690D01*
X001027Y005715D01*
X001073Y005737D01*
X001120Y005755D01*
X001168Y005769D01*
X001217Y005780D01*
X001267Y005787D01*
X001317Y005790D01*
X001368Y005789D01*
X001418Y005784D01*
X001468Y005775D01*
X001516Y005763D01*
X001564Y005746D01*
X001610Y005726D01*
X001655Y005703D01*
X001698Y005676D01*
X001738Y005646D01*
X001776Y005613D01*
X001811Y005577D01*
X001844Y005538D01*
X001873Y005497D01*
X001899Y005454D01*
X001922Y005409D01*
X001941Y005362D01*
X001956Y005314D01*
X001968Y005265D01*
X001976Y005215D01*
X001980Y005165D01*
X001980Y005115D01*
X001976Y005065D01*
X001968Y005015D01*
X001956Y004966D01*
X001941Y004918D01*
X001922Y004871D01*
X001899Y004826D01*
X001873Y004783D01*
X001844Y004742D01*
X001811Y004703D01*
X001776Y004667D01*
X001738Y004634D01*
X001698Y004604D01*
X001655Y004577D01*
X001610Y004554D01*
X001564Y004534D01*
X001516Y004517D01*
X001468Y004505D01*
X001418Y004496D01*
X001368Y004491D01*
X001317Y004490D01*
X001267Y004493D01*
X001217Y004500D01*
X001168Y004511D01*
X001120Y004525D01*
X001073Y004543D01*
X001027Y004565D01*
X000983Y004590D01*
X000942Y004619D01*
X000903Y004650D01*
X000866Y004685D01*
X000832Y004722D01*
X000801Y004762D01*
X000773Y004804D01*
X000749Y004848D01*
X000728Y004894D01*
X000711Y004942D01*
X000698Y004990D01*
X000688Y005040D01*
X000682Y005090D01*
X000680Y005140D01*
X000680Y011439D02*
X000682Y011489D01*
X000688Y011539D01*
X000698Y011589D01*
X000711Y011637D01*
X000728Y011685D01*
X000749Y011731D01*
X000773Y011775D01*
X000801Y011817D01*
X000832Y011857D01*
X000866Y011894D01*
X000903Y011929D01*
X000942Y011960D01*
X000983Y011989D01*
X001027Y012014D01*
X001073Y012036D01*
X001120Y012054D01*
X001168Y012068D01*
X001217Y012079D01*
X001267Y012086D01*
X001317Y012089D01*
X001368Y012088D01*
X001418Y012083D01*
X001468Y012074D01*
X001516Y012062D01*
X001564Y012045D01*
X001610Y012025D01*
X001655Y012002D01*
X001698Y011975D01*
X001738Y011945D01*
X001776Y011912D01*
X001811Y011876D01*
X001844Y011837D01*
X001873Y011796D01*
X001899Y011753D01*
X001922Y011708D01*
X001941Y011661D01*
X001956Y011613D01*
X001968Y011564D01*
X001976Y011514D01*
X001980Y011464D01*
X001980Y011414D01*
X001976Y011364D01*
X001968Y011314D01*
X001956Y011265D01*
X001941Y011217D01*
X001922Y011170D01*
X001899Y011125D01*
X001873Y011082D01*
X001844Y011041D01*
X001811Y011002D01*
X001776Y010966D01*
X001738Y010933D01*
X001698Y010903D01*
X001655Y010876D01*
X001610Y010853D01*
X001564Y010833D01*
X001516Y010816D01*
X001468Y010804D01*
X001418Y010795D01*
X001368Y010790D01*
X001317Y010789D01*
X001267Y010792D01*
X001217Y010799D01*
X001168Y010810D01*
X001120Y010824D01*
X001073Y010842D01*
X001027Y010864D01*
X000983Y010889D01*
X000942Y010918D01*
X000903Y010949D01*
X000866Y010984D01*
X000832Y011021D01*
X000801Y011061D01*
X000773Y011103D01*
X000749Y011147D01*
X000728Y011193D01*
X000711Y011241D01*
X000698Y011289D01*
X000688Y011339D01*
X000682Y011389D01*
X000680Y011439D01*
X006680Y011439D02*
X006682Y011489D01*
X006688Y011539D01*
X006698Y011589D01*
X006711Y011637D01*
X006728Y011685D01*
X006749Y011731D01*
X006773Y011775D01*
X006801Y011817D01*
X006832Y011857D01*
X006866Y011894D01*
X006903Y011929D01*
X006942Y011960D01*
X006983Y011989D01*
X007027Y012014D01*
X007073Y012036D01*
X007120Y012054D01*
X007168Y012068D01*
X007217Y012079D01*
X007267Y012086D01*
X007317Y012089D01*
X007368Y012088D01*
X007418Y012083D01*
X007468Y012074D01*
X007516Y012062D01*
X007564Y012045D01*
X007610Y012025D01*
X007655Y012002D01*
X007698Y011975D01*
X007738Y011945D01*
X007776Y011912D01*
X007811Y011876D01*
X007844Y011837D01*
X007873Y011796D01*
X007899Y011753D01*
X007922Y011708D01*
X007941Y011661D01*
X007956Y011613D01*
X007968Y011564D01*
X007976Y011514D01*
X007980Y011464D01*
X007980Y011414D01*
X007976Y011364D01*
X007968Y011314D01*
X007956Y011265D01*
X007941Y011217D01*
X007922Y011170D01*
X007899Y011125D01*
X007873Y011082D01*
X007844Y011041D01*
X007811Y011002D01*
X007776Y010966D01*
X007738Y010933D01*
X007698Y010903D01*
X007655Y010876D01*
X007610Y010853D01*
X007564Y010833D01*
X007516Y010816D01*
X007468Y010804D01*
X007418Y010795D01*
X007368Y010790D01*
X007317Y010789D01*
X007267Y010792D01*
X007217Y010799D01*
X007168Y010810D01*
X007120Y010824D01*
X007073Y010842D01*
X007027Y010864D01*
X006983Y010889D01*
X006942Y010918D01*
X006903Y010949D01*
X006866Y010984D01*
X006832Y011021D01*
X006801Y011061D01*
X006773Y011103D01*
X006749Y011147D01*
X006728Y011193D01*
X006711Y011241D01*
X006698Y011289D01*
X006688Y011339D01*
X006682Y011389D01*
X006680Y011439D01*
X009026Y011439D02*
X009028Y011489D01*
X009034Y011539D01*
X009044Y011589D01*
X009057Y011637D01*
X009074Y011685D01*
X009095Y011731D01*
X009119Y011775D01*
X009147Y011817D01*
X009178Y011857D01*
X009212Y011894D01*
X009249Y011929D01*
X009288Y011960D01*
X009329Y011989D01*
X009373Y012014D01*
X009419Y012036D01*
X009466Y012054D01*
X009514Y012068D01*
X009563Y012079D01*
X009613Y012086D01*
X009663Y012089D01*
X009714Y012088D01*
X009764Y012083D01*
X009814Y012074D01*
X009862Y012062D01*
X009910Y012045D01*
X009956Y012025D01*
X010001Y012002D01*
X010044Y011975D01*
X010084Y011945D01*
X010122Y011912D01*
X010157Y011876D01*
X010190Y011837D01*
X010219Y011796D01*
X010245Y011753D01*
X010268Y011708D01*
X010287Y011661D01*
X010302Y011613D01*
X010314Y011564D01*
X010322Y011514D01*
X010326Y011464D01*
X010326Y011414D01*
X010322Y011364D01*
X010314Y011314D01*
X010302Y011265D01*
X010287Y011217D01*
X010268Y011170D01*
X010245Y011125D01*
X010219Y011082D01*
X010190Y011041D01*
X010157Y011002D01*
X010122Y010966D01*
X010084Y010933D01*
X010044Y010903D01*
X010001Y010876D01*
X009956Y010853D01*
X009910Y010833D01*
X009862Y010816D01*
X009814Y010804D01*
X009764Y010795D01*
X009714Y010790D01*
X009663Y010789D01*
X009613Y010792D01*
X009563Y010799D01*
X009514Y010810D01*
X009466Y010824D01*
X009419Y010842D01*
X009373Y010864D01*
X009329Y010889D01*
X009288Y010918D01*
X009249Y010949D01*
X009212Y010984D01*
X009178Y011021D01*
X009147Y011061D01*
X009119Y011103D01*
X009095Y011147D01*
X009074Y011193D01*
X009057Y011241D01*
X009044Y011289D01*
X009034Y011339D01*
X009028Y011389D01*
X009026Y011439D01*
X015026Y011439D02*
X015028Y011489D01*
X015034Y011539D01*
X015044Y011589D01*
X015057Y011637D01*
X015074Y011685D01*
X015095Y011731D01*
X015119Y011775D01*
X015147Y011817D01*
X015178Y011857D01*
X015212Y011894D01*
X015249Y011929D01*
X015288Y011960D01*
X015329Y011989D01*
X015373Y012014D01*
X015419Y012036D01*
X015466Y012054D01*
X015514Y012068D01*
X015563Y012079D01*
X015613Y012086D01*
X015663Y012089D01*
X015714Y012088D01*
X015764Y012083D01*
X015814Y012074D01*
X015862Y012062D01*
X015910Y012045D01*
X015956Y012025D01*
X016001Y012002D01*
X016044Y011975D01*
X016084Y011945D01*
X016122Y011912D01*
X016157Y011876D01*
X016190Y011837D01*
X016219Y011796D01*
X016245Y011753D01*
X016268Y011708D01*
X016287Y011661D01*
X016302Y011613D01*
X016314Y011564D01*
X016322Y011514D01*
X016326Y011464D01*
X016326Y011414D01*
X016322Y011364D01*
X016314Y011314D01*
X016302Y011265D01*
X016287Y011217D01*
X016268Y011170D01*
X016245Y011125D01*
X016219Y011082D01*
X016190Y011041D01*
X016157Y011002D01*
X016122Y010966D01*
X016084Y010933D01*
X016044Y010903D01*
X016001Y010876D01*
X015956Y010853D01*
X015910Y010833D01*
X015862Y010816D01*
X015814Y010804D01*
X015764Y010795D01*
X015714Y010790D01*
X015663Y010789D01*
X015613Y010792D01*
X015563Y010799D01*
X015514Y010810D01*
X015466Y010824D01*
X015419Y010842D01*
X015373Y010864D01*
X015329Y010889D01*
X015288Y010918D01*
X015249Y010949D01*
X015212Y010984D01*
X015178Y011021D01*
X015147Y011061D01*
X015119Y011103D01*
X015095Y011147D01*
X015074Y011193D01*
X015057Y011241D01*
X015044Y011289D01*
X015034Y011339D01*
X015028Y011389D01*
X015026Y011439D01*
X015026Y005140D02*
X015028Y005190D01*
X015034Y005240D01*
X015044Y005290D01*
X015057Y005338D01*
X015074Y005386D01*
X015095Y005432D01*
X015119Y005476D01*
X015147Y005518D01*
X015178Y005558D01*
X015212Y005595D01*
X015249Y005630D01*
X015288Y005661D01*
X015329Y005690D01*
X015373Y005715D01*
X015419Y005737D01*
X015466Y005755D01*
X015514Y005769D01*
X015563Y005780D01*
X015613Y005787D01*
X015663Y005790D01*
X015714Y005789D01*
X015764Y005784D01*
X015814Y005775D01*
X015862Y005763D01*
X015910Y005746D01*
X015956Y005726D01*
X016001Y005703D01*
X016044Y005676D01*
X016084Y005646D01*
X016122Y005613D01*
X016157Y005577D01*
X016190Y005538D01*
X016219Y005497D01*
X016245Y005454D01*
X016268Y005409D01*
X016287Y005362D01*
X016302Y005314D01*
X016314Y005265D01*
X016322Y005215D01*
X016326Y005165D01*
X016326Y005115D01*
X016322Y005065D01*
X016314Y005015D01*
X016302Y004966D01*
X016287Y004918D01*
X016268Y004871D01*
X016245Y004826D01*
X016219Y004783D01*
X016190Y004742D01*
X016157Y004703D01*
X016122Y004667D01*
X016084Y004634D01*
X016044Y004604D01*
X016001Y004577D01*
X015956Y004554D01*
X015910Y004534D01*
X015862Y004517D01*
X015814Y004505D01*
X015764Y004496D01*
X015714Y004491D01*
X015663Y004490D01*
X015613Y004493D01*
X015563Y004500D01*
X015514Y004511D01*
X015466Y004525D01*
X015419Y004543D01*
X015373Y004565D01*
X015329Y004590D01*
X015288Y004619D01*
X015249Y004650D01*
X015212Y004685D01*
X015178Y004722D01*
X015147Y004762D01*
X015119Y004804D01*
X015095Y004848D01*
X015074Y004894D01*
X015057Y004942D01*
X015044Y004990D01*
X015034Y005040D01*
X015028Y005090D01*
X015026Y005140D01*
D15*
X011382Y003564D02*
X011280Y003665D01*
X011132Y003544D01*
X011072Y003575D01*
X011008Y003596D01*
X010988Y003786D01*
X010844Y003786D01*
X010825Y003596D01*
X010761Y003575D01*
X010701Y003544D01*
X010553Y003665D01*
X010451Y003564D01*
X010572Y003415D01*
X010541Y003355D01*
X010521Y003291D01*
X010330Y003272D01*
X010330Y003128D01*
X010521Y003109D01*
X010541Y003045D01*
X010572Y002985D01*
X010451Y002836D01*
X010553Y002735D01*
X010701Y002856D01*
X010761Y002825D01*
X010846Y003029D01*
X010808Y003051D01*
X010776Y003080D01*
X010752Y003116D01*
X010737Y003157D01*
X010732Y003200D01*
X010737Y003244D01*
X010753Y003285D01*
X010778Y003322D01*
X010811Y003351D01*
X010850Y003372D01*
X010892Y003383D01*
X010937Y003383D01*
X010980Y003373D01*
X011019Y003353D01*
X011052Y003325D01*
X011078Y003289D01*
X011095Y003248D01*
X011101Y003204D01*
X011097Y003160D01*
X011082Y003118D01*
X011058Y003081D01*
X011026Y003051D01*
X010987Y003029D01*
X011072Y002825D01*
X011132Y002856D01*
X011280Y002735D01*
X011382Y002836D01*
X011261Y002985D01*
X011292Y003045D01*
X011312Y003109D01*
X011503Y003128D01*
X011503Y003272D01*
X011312Y003291D01*
X011292Y003355D01*
X011261Y003415D01*
X011382Y003564D01*
X011359Y003536D02*
X010474Y003536D01*
X010481Y003593D02*
X010641Y003593D01*
X010571Y003651D02*
X010538Y003651D01*
X010521Y003478D02*
X011312Y003478D01*
X011265Y003421D02*
X010568Y003421D01*
X010545Y003363D02*
X010833Y003363D01*
X010767Y003306D02*
X010525Y003306D01*
X010330Y003248D02*
X010739Y003248D01*
X010733Y003190D02*
X010330Y003190D01*
X010330Y003133D02*
X010746Y003133D01*
X010781Y003075D02*
X010532Y003075D01*
X010555Y003018D02*
X010841Y003018D01*
X010817Y002960D02*
X010552Y002960D01*
X010505Y002903D02*
X010793Y002903D01*
X010769Y002845D02*
X010722Y002845D01*
X010688Y002845D02*
X010458Y002845D01*
X010500Y002788D02*
X010618Y002788D01*
X010992Y003018D02*
X011278Y003018D01*
X011281Y002960D02*
X011016Y002960D01*
X011040Y002903D02*
X011328Y002903D01*
X011375Y002845D02*
X011145Y002845D01*
X011111Y002845D02*
X011063Y002845D01*
X011215Y002788D02*
X011333Y002788D01*
X011301Y003075D02*
X011051Y003075D01*
X011087Y003133D02*
X011503Y003133D01*
X011503Y003190D02*
X011100Y003190D01*
X011095Y003248D02*
X011503Y003248D01*
X011308Y003306D02*
X011066Y003306D01*
X011000Y003363D02*
X011288Y003363D01*
X011352Y003593D02*
X011192Y003593D01*
X011262Y003651D02*
X011295Y003651D01*
X011015Y003593D02*
X010818Y003593D01*
X010831Y003651D02*
X011002Y003651D01*
X010996Y003708D02*
X010837Y003708D01*
X010842Y003766D02*
X010990Y003766D01*
X011280Y009034D02*
X011382Y009136D01*
X011261Y009284D01*
X011292Y009344D01*
X011312Y009408D01*
X011503Y009427D01*
X011503Y009571D01*
X011312Y009591D01*
X011292Y009655D01*
X011261Y009714D01*
X011382Y009863D01*
X011280Y009965D01*
X011132Y009844D01*
X011072Y009874D01*
X011008Y009895D01*
X010988Y010085D01*
X010844Y010085D01*
X010825Y009895D01*
X010761Y009874D01*
X010701Y009844D01*
X010553Y009965D01*
X010451Y009863D01*
X010572Y009714D01*
X010541Y009655D01*
X010521Y009591D01*
X010330Y009571D01*
X010330Y009427D01*
X010521Y009408D01*
X010541Y009344D01*
X010572Y009284D01*
X010451Y009136D01*
X010553Y009034D01*
X010701Y009155D01*
X010761Y009124D01*
X010846Y009329D01*
X010808Y009350D01*
X010776Y009379D01*
X010752Y009415D01*
X010737Y009456D01*
X010732Y009499D01*
X010737Y009543D01*
X010753Y009584D01*
X010778Y009621D01*
X010811Y009650D01*
X010850Y009671D01*
X010892Y009682D01*
X010937Y009683D01*
X010980Y009673D01*
X011019Y009653D01*
X011052Y009624D01*
X011078Y009588D01*
X011095Y009547D01*
X011101Y009503D01*
X011097Y009459D01*
X011082Y009418D01*
X011058Y009381D01*
X011026Y009350D01*
X010987Y009329D01*
X011072Y009124D01*
X011132Y009155D01*
X011280Y009034D01*
X011307Y009061D02*
X011247Y009061D01*
X011176Y009119D02*
X011365Y009119D01*
X011349Y009176D02*
X011050Y009176D01*
X011026Y009234D02*
X011302Y009234D01*
X011265Y009291D02*
X011003Y009291D01*
X011023Y009349D02*
X011293Y009349D01*
X011312Y009406D02*
X011075Y009406D01*
X011097Y009464D02*
X011503Y009464D01*
X011503Y009522D02*
X011098Y009522D01*
X011082Y009579D02*
X011425Y009579D01*
X011297Y009637D02*
X011038Y009637D01*
X011086Y009867D02*
X010747Y009867D01*
X010673Y009867D02*
X010455Y009867D01*
X010495Y009809D02*
X011338Y009809D01*
X011378Y009867D02*
X011160Y009867D01*
X011231Y009924D02*
X011320Y009924D01*
X011291Y009752D02*
X010542Y009752D01*
X010562Y009694D02*
X011271Y009694D01*
X011005Y009924D02*
X010828Y009924D01*
X010834Y009982D02*
X010999Y009982D01*
X010993Y010040D02*
X010840Y010040D01*
X010602Y009924D02*
X010513Y009924D01*
X010536Y009637D02*
X010795Y009637D01*
X010751Y009579D02*
X010408Y009579D01*
X010330Y009522D02*
X010735Y009522D01*
X010736Y009464D02*
X010330Y009464D01*
X010521Y009406D02*
X010758Y009406D01*
X010810Y009349D02*
X010540Y009349D01*
X010568Y009291D02*
X010830Y009291D01*
X010806Y009234D02*
X010531Y009234D01*
X010484Y009176D02*
X010783Y009176D01*
X010657Y009119D02*
X010468Y009119D01*
X010526Y009061D02*
X010586Y009061D01*
X003156Y009427D02*
X003156Y009571D01*
X002966Y009591D01*
X002945Y009655D01*
X002914Y009714D01*
X003035Y009863D01*
X002934Y009965D01*
X002785Y009844D01*
X002725Y009874D01*
X002661Y009895D01*
X002642Y010085D01*
X002498Y010085D01*
X002479Y009895D01*
X002415Y009874D01*
X002355Y009844D01*
X002206Y009965D01*
X002105Y009863D01*
X002226Y009714D01*
X002195Y009655D01*
X002174Y009591D01*
X001984Y009571D01*
X001984Y009427D01*
X002174Y009408D01*
X002195Y009344D01*
X002226Y009284D01*
X002105Y009136D01*
X002206Y009034D01*
X002355Y009155D01*
X002415Y009124D01*
X002499Y009329D01*
X002462Y009350D01*
X002430Y009379D01*
X002406Y009415D01*
X002391Y009456D01*
X002385Y009499D01*
X002391Y009543D01*
X002406Y009584D01*
X002431Y009621D01*
X002464Y009650D01*
X002503Y009671D01*
X002546Y009682D01*
X002590Y009683D01*
X002633Y009673D01*
X002672Y009653D01*
X002706Y009624D01*
X002732Y009588D01*
X002748Y009547D01*
X002754Y009503D01*
X002750Y009459D01*
X002735Y009418D01*
X002711Y009381D01*
X002679Y009350D01*
X002641Y009329D01*
X002725Y009124D01*
X002785Y009155D01*
X002934Y009034D01*
X003035Y009136D01*
X002914Y009284D01*
X002945Y009344D01*
X002966Y009408D01*
X003156Y009427D01*
X003156Y009464D02*
X002751Y009464D01*
X002752Y009522D02*
X003156Y009522D01*
X003078Y009579D02*
X002735Y009579D01*
X002691Y009637D02*
X002951Y009637D01*
X002925Y009694D02*
X002215Y009694D01*
X002195Y009752D02*
X002945Y009752D01*
X002992Y009809D02*
X002148Y009809D01*
X002109Y009867D02*
X002326Y009867D01*
X002400Y009867D02*
X002740Y009867D01*
X002814Y009867D02*
X003031Y009867D01*
X002974Y009924D02*
X002884Y009924D01*
X002658Y009924D02*
X002482Y009924D01*
X002488Y009982D02*
X002652Y009982D01*
X002647Y010040D02*
X002493Y010040D01*
X002256Y009924D02*
X002166Y009924D01*
X002189Y009637D02*
X002449Y009637D01*
X002404Y009579D02*
X002062Y009579D01*
X001984Y009522D02*
X002388Y009522D01*
X002390Y009464D02*
X001984Y009464D01*
X002175Y009406D02*
X002412Y009406D01*
X002463Y009349D02*
X002193Y009349D01*
X002222Y009291D02*
X002484Y009291D01*
X002460Y009234D02*
X002185Y009234D01*
X002138Y009176D02*
X002436Y009176D01*
X002310Y009119D02*
X002122Y009119D01*
X002179Y009061D02*
X002240Y009061D01*
X002680Y009234D02*
X002955Y009234D01*
X002918Y009291D02*
X002656Y009291D01*
X002676Y009349D02*
X002947Y009349D01*
X002965Y009406D02*
X002728Y009406D01*
X002704Y009176D02*
X003002Y009176D01*
X003018Y009119D02*
X002830Y009119D01*
X002900Y009061D02*
X002961Y009061D01*
X002642Y003786D02*
X002498Y003786D01*
X002479Y003596D01*
X002415Y003575D01*
X002355Y003544D01*
X002206Y003665D01*
X002105Y003564D01*
X002226Y003415D01*
X002195Y003355D01*
X002174Y003291D01*
X001984Y003272D01*
X001984Y003128D01*
X002174Y003109D01*
X002195Y003045D01*
X002226Y002985D01*
X002105Y002836D01*
X002206Y002735D01*
X002355Y002856D01*
X002415Y002825D01*
X002499Y003029D01*
X002462Y003051D01*
X002430Y003080D01*
X002406Y003116D01*
X002391Y003157D01*
X002385Y003200D01*
X002391Y003244D01*
X002406Y003285D01*
X002431Y003322D01*
X002464Y003351D01*
X002503Y003372D01*
X002546Y003383D01*
X002590Y003383D01*
X002633Y003373D01*
X002672Y003353D01*
X002706Y003325D01*
X002732Y003289D01*
X002748Y003248D01*
X003156Y003248D01*
X003156Y003272D02*
X002966Y003291D01*
X002945Y003355D01*
X002914Y003415D01*
X003035Y003564D01*
X002934Y003665D01*
X002785Y003544D01*
X002725Y003575D01*
X002661Y003596D01*
X002642Y003786D01*
X002644Y003766D02*
X002496Y003766D01*
X002490Y003708D02*
X002650Y003708D01*
X002656Y003651D02*
X002484Y003651D01*
X002471Y003593D02*
X002669Y003593D01*
X002845Y003593D02*
X003006Y003593D01*
X003013Y003536D02*
X002127Y003536D01*
X002134Y003593D02*
X002295Y003593D01*
X002224Y003651D02*
X002192Y003651D01*
X002174Y003478D02*
X002966Y003478D01*
X002919Y003421D02*
X002221Y003421D01*
X002199Y003363D02*
X002487Y003363D01*
X002420Y003306D02*
X002179Y003306D01*
X001984Y003248D02*
X002392Y003248D01*
X002387Y003190D02*
X001984Y003190D01*
X001984Y003133D02*
X002399Y003133D01*
X002435Y003075D02*
X002185Y003075D01*
X002209Y003018D02*
X002495Y003018D01*
X002471Y002960D02*
X002206Y002960D01*
X002159Y002903D02*
X002447Y002903D01*
X002423Y002845D02*
X002375Y002845D01*
X002342Y002845D02*
X002112Y002845D01*
X002154Y002788D02*
X002271Y002788D01*
X002669Y002960D02*
X002934Y002960D01*
X002914Y002985D02*
X002945Y003045D01*
X002966Y003109D01*
X003156Y003128D01*
X003156Y003272D01*
X003156Y003190D02*
X002753Y003190D01*
X002754Y003204D02*
X002750Y003160D01*
X002735Y003118D01*
X002711Y003081D01*
X002679Y003051D01*
X002641Y003029D01*
X002725Y002825D01*
X002785Y002856D01*
X002934Y002735D01*
X003035Y002836D01*
X002914Y002985D01*
X002931Y003018D02*
X002645Y003018D01*
X002705Y003075D02*
X002955Y003075D01*
X003156Y003133D02*
X002741Y003133D01*
X002754Y003204D02*
X002748Y003248D01*
X002720Y003306D02*
X002961Y003306D01*
X002941Y003363D02*
X002653Y003363D01*
X002916Y003651D02*
X002948Y003651D01*
X002981Y002903D02*
X002693Y002903D01*
X002717Y002845D02*
X002765Y002845D01*
X002798Y002845D02*
X003028Y002845D01*
X002986Y002788D02*
X002869Y002788D01*
M02*
