G75*
%MOIN*%
%OFA0B0*%
%FSLAX24Y24*%
%IPPOS*%
%LPD*%
%AMOC8*
5,1,8,0,0,1.08239X$1,22.5*
%
%ADD10C,0.0080*%
%ADD11R,0.0740X0.0740*%
%ADD12C,0.0740*%
%ADD13R,0.0472X0.0315*%
%ADD14R,0.0551X0.0630*%
%ADD15C,0.0000*%
%ADD16R,0.0197X0.0442*%
%ADD17R,0.0442X0.0197*%
%ADD18C,0.0394*%
%ADD19C,0.0400*%
%ADD20C,0.0100*%
D10*
X000330Y000140D02*
X000330Y006140D01*
X008330Y006140D01*
X008330Y000140D01*
X000330Y000140D01*
X000790Y000680D02*
X000790Y001150D01*
X000530Y001150D01*
X000530Y004666D01*
X000607Y004533D01*
X000858Y004322D01*
X001166Y004210D01*
X001494Y004210D01*
X001802Y004322D01*
X001802Y004322D01*
X002053Y004533D01*
X002053Y004533D01*
X002217Y004817D01*
X002274Y005140D01*
X002217Y005463D01*
X002053Y005747D01*
X001823Y005940D01*
X005977Y005940D01*
X005923Y005811D01*
X005923Y005669D01*
X005977Y005538D01*
X006024Y005492D01*
X005919Y005492D01*
X005919Y005233D01*
X006256Y005233D01*
X006256Y005370D01*
X006253Y005383D01*
X006351Y005383D01*
X006435Y005418D01*
X006386Y005140D01*
X006443Y004817D01*
X006607Y004533D01*
X006858Y004322D01*
X007166Y004210D01*
X007494Y004210D01*
X007802Y004322D01*
X007802Y004322D01*
X008053Y004533D01*
X008053Y004533D01*
X008130Y004666D01*
X008130Y001089D01*
X008040Y001127D01*
X008040Y001227D01*
X005727Y003540D01*
X005553Y003540D01*
X005533Y003540D01*
X005484Y003588D01*
X005416Y003588D01*
X005416Y004066D01*
X005367Y004114D01*
X005367Y004230D01*
X005516Y004230D01*
X005578Y004168D01*
X006182Y004168D01*
X006276Y004262D01*
X006276Y004709D01*
X006182Y004803D01*
X005614Y004803D01*
X005537Y004880D01*
X005487Y004930D01*
X005290Y004930D01*
X005297Y004957D01*
X005297Y005250D01*
X004921Y005250D01*
X004921Y005330D01*
X004841Y005330D01*
X004841Y005250D01*
X004466Y005250D01*
X004466Y004957D01*
X004473Y004930D01*
X004214Y004930D01*
X004214Y005671D01*
X004121Y005765D01*
X003437Y005765D01*
X003343Y005671D01*
X003343Y004909D01*
X003380Y004872D01*
X003380Y004510D01*
X003263Y004510D01*
X003166Y004413D01*
X003166Y004709D01*
X003072Y004803D01*
X002468Y004803D01*
X002374Y004709D01*
X002374Y004262D01*
X002468Y004168D01*
X002570Y004168D01*
X002570Y003970D01*
X001943Y003970D01*
X001820Y003847D01*
X001820Y003847D01*
X001793Y003820D01*
X001670Y003697D01*
X001670Y001147D01*
X001530Y001089D01*
X001381Y000940D01*
X001340Y000842D01*
X001340Y001028D01*
X001330Y001064D01*
X001312Y001096D01*
X001286Y001122D01*
X001254Y001140D01*
X001218Y001150D01*
X000870Y001150D01*
X000870Y000680D01*
X000790Y000680D01*
X000790Y000690D02*
X000870Y000690D01*
X000870Y000768D02*
X000790Y000768D01*
X000790Y000847D02*
X000870Y000847D01*
X000870Y000925D02*
X000790Y000925D01*
X000790Y001004D02*
X000870Y001004D01*
X000870Y001082D02*
X000790Y001082D01*
X000530Y001161D02*
X001670Y001161D01*
X001670Y001239D02*
X000530Y001239D01*
X000530Y001318D02*
X001670Y001318D01*
X001670Y001396D02*
X000530Y001396D01*
X000530Y001475D02*
X001670Y001475D01*
X001670Y001553D02*
X000530Y001553D01*
X000530Y001632D02*
X001670Y001632D01*
X001670Y001710D02*
X000530Y001710D01*
X000530Y001789D02*
X001670Y001789D01*
X001670Y001867D02*
X000530Y001867D01*
X000530Y001946D02*
X001670Y001946D01*
X001670Y002024D02*
X000530Y002024D01*
X000530Y002103D02*
X001670Y002103D01*
X001670Y002181D02*
X000530Y002181D01*
X000530Y002260D02*
X001670Y002260D01*
X001670Y002338D02*
X000530Y002338D01*
X000530Y002417D02*
X001670Y002417D01*
X001670Y002495D02*
X000530Y002495D01*
X000530Y002574D02*
X000912Y002574D01*
X000878Y002587D02*
X001009Y002533D01*
X001151Y002533D01*
X001282Y002587D01*
X001383Y002688D01*
X001437Y002819D01*
X001437Y002961D01*
X001383Y003092D01*
X001282Y003193D01*
X001151Y003247D01*
X001009Y003247D01*
X000878Y003193D01*
X000777Y003092D01*
X000723Y002961D01*
X000723Y002819D01*
X000777Y002688D01*
X000878Y002587D01*
X000813Y002652D02*
X000530Y002652D01*
X000530Y002731D02*
X000760Y002731D01*
X000727Y002809D02*
X000530Y002809D01*
X000530Y002888D02*
X000723Y002888D01*
X000725Y002966D02*
X000530Y002966D01*
X000530Y003045D02*
X000758Y003045D01*
X000808Y003123D02*
X000530Y003123D01*
X000530Y003202D02*
X000900Y003202D01*
X001260Y003202D02*
X001670Y003202D01*
X001670Y003280D02*
X000530Y003280D01*
X000530Y003359D02*
X001670Y003359D01*
X001670Y003437D02*
X000530Y003437D01*
X000530Y003516D02*
X001670Y003516D01*
X001670Y003594D02*
X000530Y003594D01*
X000530Y003673D02*
X001670Y003673D01*
X001724Y003751D02*
X000530Y003751D01*
X000530Y003830D02*
X001803Y003830D01*
X001793Y003820D02*
X001793Y003820D01*
X001881Y003908D02*
X000530Y003908D01*
X000530Y003987D02*
X002570Y003987D01*
X002570Y004065D02*
X000530Y004065D01*
X000530Y004144D02*
X002570Y004144D01*
X002414Y004222D02*
X001527Y004222D01*
X001743Y004301D02*
X002374Y004301D01*
X002374Y004379D02*
X001870Y004379D01*
X001963Y004458D02*
X002374Y004458D01*
X002374Y004536D02*
X002055Y004536D01*
X002053Y004533D02*
X002053Y004533D01*
X002100Y004615D02*
X002374Y004615D01*
X002374Y004693D02*
X002146Y004693D01*
X002191Y004772D02*
X002436Y004772D01*
X002480Y004906D02*
X002515Y004897D01*
X002731Y004897D01*
X002731Y005156D01*
X002394Y005156D01*
X002394Y005018D01*
X002403Y004983D01*
X002422Y004951D01*
X002448Y004925D01*
X002480Y004906D01*
X002444Y004929D02*
X002237Y004929D01*
X002251Y005007D02*
X002397Y005007D01*
X002394Y005086D02*
X002265Y005086D01*
X002274Y005140D02*
X002274Y005140D01*
X002270Y005164D02*
X002731Y005164D01*
X002731Y005156D02*
X002731Y005233D01*
X002394Y005233D01*
X002394Y005370D01*
X002403Y005406D01*
X002422Y005438D01*
X002448Y005464D01*
X002480Y005482D01*
X002515Y005492D01*
X002731Y005492D01*
X002731Y005233D01*
X002809Y005233D01*
X003146Y005233D01*
X003146Y005370D01*
X003137Y005406D01*
X003118Y005438D01*
X003092Y005464D01*
X003060Y005482D01*
X003025Y005492D01*
X002809Y005492D01*
X002809Y005233D01*
X002809Y005156D01*
X003146Y005156D01*
X003146Y005018D01*
X003137Y004983D01*
X003118Y004951D01*
X003092Y004925D01*
X003060Y004906D01*
X003025Y004897D01*
X002809Y004897D01*
X002809Y005156D01*
X002731Y005156D01*
X002731Y005086D02*
X002809Y005086D01*
X002809Y005164D02*
X003343Y005164D01*
X003343Y005086D02*
X003146Y005086D01*
X003143Y005007D02*
X003343Y005007D01*
X003343Y004929D02*
X003096Y004929D01*
X003104Y004772D02*
X003380Y004772D01*
X003380Y004850D02*
X002223Y004850D01*
X002217Y004817D02*
X002217Y004817D01*
X002256Y005243D02*
X002394Y005243D01*
X002394Y005321D02*
X002242Y005321D01*
X002229Y005400D02*
X002402Y005400D01*
X002472Y005478D02*
X002209Y005478D01*
X002217Y005463D02*
X002217Y005463D01*
X002163Y005557D02*
X003343Y005557D01*
X003343Y005635D02*
X002118Y005635D01*
X002073Y005714D02*
X003386Y005714D01*
X003343Y005478D02*
X003068Y005478D01*
X003138Y005400D02*
X003343Y005400D01*
X003343Y005321D02*
X003146Y005321D01*
X003146Y005243D02*
X003343Y005243D01*
X002809Y005243D02*
X002731Y005243D01*
X002731Y005321D02*
X002809Y005321D01*
X002809Y005400D02*
X002731Y005400D01*
X002731Y005478D02*
X002809Y005478D01*
X002809Y005007D02*
X002731Y005007D01*
X002731Y004929D02*
X002809Y004929D01*
X003166Y004693D02*
X003380Y004693D01*
X003380Y004615D02*
X003166Y004615D01*
X003166Y004536D02*
X003380Y004536D01*
X003211Y004458D02*
X003166Y004458D01*
X003800Y004458D02*
X004961Y004458D01*
X004947Y004444D02*
X004947Y004139D01*
X004852Y004139D01*
X004852Y003787D01*
X004833Y003787D01*
X004833Y004139D01*
X004726Y004139D01*
X004715Y004136D01*
X004692Y004159D01*
X004363Y004159D01*
X004340Y004136D01*
X004329Y004139D01*
X004222Y004139D01*
X004222Y003855D01*
X004203Y003873D01*
X004203Y004139D01*
X004096Y004139D01*
X004060Y004130D01*
X004055Y004127D01*
X004050Y004130D01*
X004014Y004139D01*
X003907Y004139D01*
X003907Y003863D01*
X003888Y003845D01*
X003888Y004139D01*
X003793Y004139D01*
X003793Y004196D01*
X003800Y004203D01*
X003800Y004510D01*
X005013Y004510D01*
X004947Y004444D01*
X004947Y004379D02*
X003800Y004379D01*
X003800Y004301D02*
X004947Y004301D01*
X004947Y004222D02*
X003800Y004222D01*
X003793Y004144D02*
X004347Y004144D01*
X004222Y004065D02*
X004203Y004065D01*
X004203Y003987D02*
X004222Y003987D01*
X004222Y003908D02*
X004203Y003908D01*
X003907Y003908D02*
X003888Y003908D01*
X003888Y003987D02*
X003907Y003987D01*
X003907Y004065D02*
X003888Y004065D01*
X004708Y004144D02*
X004947Y004144D01*
X004852Y004065D02*
X004833Y004065D01*
X004833Y003987D02*
X004852Y003987D01*
X004852Y003908D02*
X004833Y003908D01*
X004833Y003830D02*
X004852Y003830D01*
X005416Y003830D02*
X008130Y003830D01*
X008130Y003908D02*
X005416Y003908D01*
X005416Y003987D02*
X008130Y003987D01*
X008130Y004065D02*
X005416Y004065D01*
X005367Y004144D02*
X008130Y004144D01*
X008130Y004222D02*
X007527Y004222D01*
X007743Y004301D02*
X008130Y004301D01*
X008130Y004379D02*
X007870Y004379D01*
X007963Y004458D02*
X008130Y004458D01*
X008130Y004536D02*
X008055Y004536D01*
X008053Y004533D02*
X008053Y004533D01*
X008100Y004615D02*
X008130Y004615D01*
X008876Y004615D02*
X008906Y004615D01*
X008876Y004666D02*
X008953Y004533D01*
X009204Y004322D01*
X009204Y004322D01*
X009512Y004210D01*
X009840Y004210D01*
X010149Y004322D01*
X010400Y004533D01*
X010564Y004817D01*
X010621Y005140D01*
X010564Y005463D01*
X010400Y005747D01*
X010170Y005940D01*
X014323Y005940D01*
X014270Y005811D01*
X014270Y005669D01*
X014324Y005538D01*
X014370Y005492D01*
X014265Y005492D01*
X014265Y005233D01*
X014188Y005233D01*
X014188Y005492D01*
X013972Y005492D01*
X013936Y005482D01*
X013904Y005464D01*
X013878Y005438D01*
X013860Y005406D01*
X013850Y005370D01*
X013850Y005233D01*
X014188Y005233D01*
X014188Y005156D01*
X013850Y005156D01*
X013850Y005018D01*
X013860Y004983D01*
X013878Y004951D01*
X013904Y004925D01*
X013936Y004906D01*
X013972Y004897D01*
X014188Y004897D01*
X014188Y005156D01*
X014265Y005156D01*
X014265Y005233D01*
X014603Y005233D01*
X014603Y005370D01*
X014599Y005383D01*
X014697Y005383D01*
X014781Y005418D01*
X014732Y005140D01*
X014789Y004817D01*
X014953Y004533D01*
X015204Y004322D01*
X015204Y004322D01*
X015512Y004210D01*
X015840Y004210D01*
X016149Y004322D01*
X016400Y004533D01*
X016476Y004666D01*
X016476Y001089D01*
X016386Y001127D01*
X016386Y001227D01*
X014073Y003540D01*
X013899Y003540D01*
X013879Y003540D01*
X013831Y003588D01*
X013762Y003588D01*
X013762Y004066D01*
X013714Y004114D01*
X013714Y004230D01*
X013862Y004230D01*
X013924Y004168D01*
X014529Y004168D01*
X014623Y004262D01*
X014623Y004709D01*
X014529Y004803D01*
X013960Y004803D01*
X013833Y004930D01*
X013636Y004930D01*
X013643Y004957D01*
X013643Y005250D01*
X013268Y005250D01*
X013268Y005330D01*
X013643Y005330D01*
X013643Y005623D01*
X013634Y005659D01*
X013615Y005691D01*
X013589Y005717D01*
X013557Y005735D01*
X013522Y005745D01*
X013268Y005745D01*
X013268Y005330D01*
X013188Y005330D01*
X013188Y005745D01*
X012934Y005745D01*
X012898Y005735D01*
X012866Y005717D01*
X012840Y005691D01*
X012822Y005659D01*
X012812Y005623D01*
X012812Y005330D01*
X013188Y005330D01*
X013188Y005250D01*
X012812Y005250D01*
X012812Y004957D01*
X012819Y004930D01*
X012561Y004930D01*
X012561Y005671D01*
X012467Y005765D01*
X011783Y005765D01*
X011690Y005671D01*
X011690Y004909D01*
X011726Y004872D01*
X011726Y004510D01*
X011609Y004510D01*
X011513Y004413D01*
X011513Y004709D01*
X011419Y004803D01*
X010814Y004803D01*
X010720Y004709D01*
X010720Y004262D01*
X010814Y004168D01*
X010916Y004168D01*
X010916Y003970D01*
X010289Y003970D01*
X010166Y003847D01*
X010139Y003820D01*
X010016Y003697D01*
X010016Y001147D01*
X009876Y001089D01*
X009727Y000940D01*
X009686Y000842D01*
X009686Y001028D01*
X009677Y001064D01*
X009658Y001096D01*
X009632Y001122D01*
X009600Y001140D01*
X009565Y001150D01*
X009216Y001150D01*
X009216Y000680D01*
X009136Y000680D01*
X009136Y001150D01*
X008876Y001150D01*
X008876Y004666D01*
X008876Y004536D02*
X008951Y004536D01*
X008953Y004533D02*
X008953Y004533D01*
X008876Y004458D02*
X009043Y004458D01*
X009137Y004379D02*
X008876Y004379D01*
X008876Y004301D02*
X009264Y004301D01*
X009479Y004222D02*
X008876Y004222D01*
X008876Y004144D02*
X010916Y004144D01*
X010916Y004065D02*
X008876Y004065D01*
X008876Y003987D02*
X010916Y003987D01*
X010760Y004222D02*
X009873Y004222D01*
X010089Y004301D02*
X010720Y004301D01*
X010720Y004379D02*
X010216Y004379D01*
X010149Y004322D02*
X010149Y004322D01*
X010310Y004458D02*
X010720Y004458D01*
X010720Y004536D02*
X010402Y004536D01*
X010400Y004533D02*
X010400Y004533D01*
X010400Y004533D01*
X010447Y004615D02*
X010720Y004615D01*
X010720Y004693D02*
X010492Y004693D01*
X010538Y004772D02*
X010782Y004772D01*
X010826Y004906D02*
X010862Y004897D01*
X011078Y004897D01*
X011078Y005156D01*
X010740Y005156D01*
X010740Y005018D01*
X010750Y004983D01*
X010768Y004951D01*
X010794Y004925D01*
X010826Y004906D01*
X010791Y004929D02*
X010584Y004929D01*
X010597Y005007D02*
X010743Y005007D01*
X010740Y005086D02*
X010611Y005086D01*
X010621Y005140D02*
X010621Y005140D01*
X010617Y005164D02*
X011078Y005164D01*
X011078Y005156D02*
X011078Y005233D01*
X011078Y005492D01*
X010862Y005492D01*
X010826Y005482D01*
X010794Y005464D01*
X010768Y005438D01*
X010750Y005406D01*
X010740Y005370D01*
X010740Y005233D01*
X011078Y005233D01*
X011155Y005233D01*
X011155Y005492D01*
X011371Y005492D01*
X011407Y005482D01*
X011439Y005464D01*
X011465Y005438D01*
X011483Y005406D01*
X011493Y005370D01*
X011493Y005233D01*
X011155Y005233D01*
X011155Y005156D01*
X011493Y005156D01*
X011493Y005018D01*
X011483Y004983D01*
X011465Y004951D01*
X011439Y004925D01*
X011407Y004906D01*
X011371Y004897D01*
X011155Y004897D01*
X011155Y005156D01*
X011078Y005156D01*
X011078Y005086D02*
X011155Y005086D01*
X011155Y005164D02*
X011690Y005164D01*
X011690Y005086D02*
X011493Y005086D01*
X011490Y005007D02*
X011690Y005007D01*
X011690Y004929D02*
X011442Y004929D01*
X011451Y004772D02*
X011726Y004772D01*
X011726Y004850D02*
X010570Y004850D01*
X010564Y004817D02*
X010564Y004817D01*
X010603Y005243D02*
X010740Y005243D01*
X010740Y005321D02*
X010589Y005321D01*
X010575Y005400D02*
X010748Y005400D01*
X010819Y005478D02*
X010555Y005478D01*
X010564Y005463D02*
X010564Y005463D01*
X010510Y005557D02*
X011690Y005557D01*
X011690Y005635D02*
X010465Y005635D01*
X010419Y005714D02*
X011732Y005714D01*
X011690Y005478D02*
X011414Y005478D01*
X011485Y005400D02*
X011690Y005400D01*
X011690Y005321D02*
X011493Y005321D01*
X011493Y005243D02*
X011690Y005243D01*
X011155Y005243D02*
X011078Y005243D01*
X011078Y005321D02*
X011155Y005321D01*
X011155Y005400D02*
X011078Y005400D01*
X011078Y005478D02*
X011155Y005478D01*
X011155Y005007D02*
X011078Y005007D01*
X011078Y004929D02*
X011155Y004929D01*
X011513Y004693D02*
X011726Y004693D01*
X011726Y004615D02*
X011513Y004615D01*
X011513Y004536D02*
X011726Y004536D01*
X011557Y004458D02*
X011513Y004458D01*
X012146Y004458D02*
X013307Y004458D01*
X013294Y004444D02*
X013294Y004139D01*
X013198Y004139D01*
X013198Y003787D01*
X013180Y003787D01*
X013180Y004139D01*
X013072Y004139D01*
X013061Y004136D01*
X013039Y004159D01*
X012709Y004159D01*
X012686Y004136D01*
X012676Y004139D01*
X012568Y004139D01*
X012568Y003855D01*
X012550Y003873D01*
X012550Y004139D01*
X012442Y004139D01*
X012407Y004130D01*
X012401Y004127D01*
X012396Y004130D01*
X012361Y004139D01*
X012253Y004139D01*
X012253Y003863D01*
X012235Y003845D01*
X012235Y004139D01*
X012139Y004139D01*
X012139Y004196D01*
X012146Y004203D01*
X012146Y004510D01*
X013359Y004510D01*
X013294Y004444D01*
X013294Y004379D02*
X012146Y004379D01*
X012146Y004301D02*
X013294Y004301D01*
X013294Y004222D02*
X012146Y004222D01*
X012139Y004144D02*
X012693Y004144D01*
X012568Y004065D02*
X012550Y004065D01*
X012550Y003987D02*
X012568Y003987D01*
X012568Y003908D02*
X012550Y003908D01*
X012253Y003908D02*
X012235Y003908D01*
X012235Y003987D02*
X012253Y003987D01*
X012253Y004065D02*
X012235Y004065D01*
X013054Y004144D02*
X013294Y004144D01*
X013198Y004065D02*
X013180Y004065D01*
X013180Y003987D02*
X013198Y003987D01*
X013198Y003908D02*
X013180Y003908D01*
X013180Y003830D02*
X013198Y003830D01*
X013762Y003830D02*
X016476Y003830D01*
X016476Y003908D02*
X013762Y003908D01*
X013762Y003987D02*
X016476Y003987D01*
X016476Y004065D02*
X013762Y004065D01*
X013714Y004144D02*
X016476Y004144D01*
X016476Y004222D02*
X015873Y004222D01*
X016089Y004301D02*
X016476Y004301D01*
X016476Y004379D02*
X016216Y004379D01*
X016149Y004322D02*
X016149Y004322D01*
X016310Y004458D02*
X016476Y004458D01*
X016476Y004536D02*
X016402Y004536D01*
X016400Y004533D02*
X016400Y004533D01*
X016400Y004533D01*
X016447Y004615D02*
X016476Y004615D01*
X015479Y004222D02*
X014583Y004222D01*
X014623Y004301D02*
X015264Y004301D01*
X015137Y004379D02*
X014623Y004379D01*
X014623Y004458D02*
X015043Y004458D01*
X014953Y004533D02*
X014953Y004533D01*
X014951Y004536D02*
X014623Y004536D01*
X014623Y004615D02*
X014906Y004615D01*
X014861Y004693D02*
X014623Y004693D01*
X014561Y004772D02*
X014815Y004772D01*
X014789Y004817D02*
X014789Y004817D01*
X014783Y004850D02*
X013913Y004850D01*
X013901Y004929D02*
X013835Y004929D01*
X013853Y005007D02*
X013643Y005007D01*
X013643Y005086D02*
X013850Y005086D01*
X013850Y005243D02*
X013643Y005243D01*
X013643Y005164D02*
X014188Y005164D01*
X014265Y005164D02*
X014736Y005164D01*
X014732Y005140D02*
X014732Y005140D01*
X014742Y005086D02*
X014603Y005086D01*
X014603Y005018D02*
X014603Y005156D01*
X014265Y005156D01*
X014265Y004897D01*
X014481Y004897D01*
X014517Y004906D01*
X014549Y004925D01*
X014575Y004951D01*
X014593Y004983D01*
X014603Y005018D01*
X014600Y005007D02*
X014756Y005007D01*
X014769Y004929D02*
X014552Y004929D01*
X014265Y004929D02*
X014188Y004929D01*
X014188Y005007D02*
X014265Y005007D01*
X014265Y005086D02*
X014188Y005086D01*
X014188Y005243D02*
X014265Y005243D01*
X014265Y005321D02*
X014188Y005321D01*
X014188Y005400D02*
X014265Y005400D01*
X014265Y005478D02*
X014188Y005478D01*
X014316Y005557D02*
X013643Y005557D01*
X013640Y005635D02*
X014284Y005635D01*
X014270Y005714D02*
X013593Y005714D01*
X013643Y005478D02*
X013929Y005478D01*
X013858Y005400D02*
X013643Y005400D01*
X013850Y005321D02*
X013268Y005321D01*
X013268Y005400D02*
X013188Y005400D01*
X013188Y005478D02*
X013268Y005478D01*
X013268Y005557D02*
X013188Y005557D01*
X013188Y005635D02*
X013268Y005635D01*
X013268Y005714D02*
X013188Y005714D01*
X012863Y005714D02*
X012519Y005714D01*
X012561Y005635D02*
X012815Y005635D01*
X012812Y005557D02*
X012561Y005557D01*
X012561Y005478D02*
X012812Y005478D01*
X012812Y005400D02*
X012561Y005400D01*
X012561Y005321D02*
X013188Y005321D01*
X012812Y005243D02*
X012561Y005243D01*
X012561Y005164D02*
X012812Y005164D01*
X012812Y005086D02*
X012561Y005086D01*
X012561Y005007D02*
X012812Y005007D01*
X013714Y004222D02*
X013870Y004222D01*
X013762Y003751D02*
X016476Y003751D01*
X016476Y003673D02*
X013762Y003673D01*
X013762Y003594D02*
X016476Y003594D01*
X016476Y003516D02*
X014098Y003516D01*
X014176Y003437D02*
X016476Y003437D01*
X016476Y003359D02*
X014255Y003359D01*
X014333Y003280D02*
X016476Y003280D01*
X016476Y003202D02*
X014412Y003202D01*
X014490Y003123D02*
X016476Y003123D01*
X016476Y003045D02*
X014569Y003045D01*
X014647Y002966D02*
X016476Y002966D01*
X016476Y002888D02*
X014726Y002888D01*
X014804Y002809D02*
X016476Y002809D01*
X016476Y002731D02*
X014883Y002731D01*
X014961Y002652D02*
X016476Y002652D01*
X016476Y002574D02*
X015040Y002574D01*
X015118Y002495D02*
X016476Y002495D01*
X016476Y002417D02*
X015197Y002417D01*
X015275Y002338D02*
X016476Y002338D01*
X016476Y002260D02*
X015354Y002260D01*
X015432Y002181D02*
X016476Y002181D01*
X016476Y002103D02*
X015511Y002103D01*
X015589Y002024D02*
X016476Y002024D01*
X016476Y001946D02*
X015668Y001946D01*
X015746Y001867D02*
X016476Y001867D01*
X016476Y001789D02*
X015825Y001789D01*
X015903Y001710D02*
X016476Y001710D01*
X016476Y001632D02*
X015982Y001632D01*
X016060Y001553D02*
X016476Y001553D01*
X016476Y001475D02*
X016139Y001475D01*
X016217Y001396D02*
X016476Y001396D01*
X016476Y001318D02*
X016296Y001318D01*
X016374Y001239D02*
X016476Y001239D01*
X016476Y001161D02*
X016386Y001161D01*
X016676Y000140D02*
X016676Y006140D01*
X008676Y006140D01*
X008676Y000140D01*
X016676Y000140D01*
X010227Y003908D02*
X008876Y003908D01*
X008876Y003830D02*
X010149Y003830D01*
X010139Y003820D02*
X010139Y003820D01*
X010166Y003847D02*
X010166Y003847D01*
X010070Y003751D02*
X008876Y003751D01*
X008876Y003673D02*
X010016Y003673D01*
X010016Y003594D02*
X008876Y003594D01*
X008876Y003516D02*
X010016Y003516D01*
X010016Y003437D02*
X008876Y003437D01*
X008876Y003359D02*
X010016Y003359D01*
X010016Y003280D02*
X008876Y003280D01*
X008876Y003202D02*
X009246Y003202D01*
X009224Y003193D02*
X009124Y003092D01*
X009070Y002961D01*
X009070Y002819D01*
X009124Y002688D01*
X009224Y002587D01*
X009355Y002533D01*
X009497Y002533D01*
X009629Y002587D01*
X009729Y002688D01*
X009783Y002819D01*
X009783Y002961D01*
X009729Y003092D01*
X009629Y003193D01*
X009497Y003247D01*
X009355Y003247D01*
X009224Y003193D01*
X009155Y003123D02*
X008876Y003123D01*
X008876Y003045D02*
X009104Y003045D01*
X009072Y002966D02*
X008876Y002966D01*
X008876Y002888D02*
X009070Y002888D01*
X009074Y002809D02*
X008876Y002809D01*
X008876Y002731D02*
X009106Y002731D01*
X009160Y002652D02*
X008876Y002652D01*
X008876Y002574D02*
X009258Y002574D01*
X009595Y002574D02*
X010016Y002574D01*
X010016Y002652D02*
X009693Y002652D01*
X009747Y002731D02*
X010016Y002731D01*
X010016Y002809D02*
X009779Y002809D01*
X009783Y002888D02*
X010016Y002888D01*
X010016Y002966D02*
X009781Y002966D01*
X009749Y003045D02*
X010016Y003045D01*
X010016Y003123D02*
X009698Y003123D01*
X009607Y003202D02*
X010016Y003202D01*
X010016Y002495D02*
X008876Y002495D01*
X008876Y002417D02*
X010016Y002417D01*
X010016Y002338D02*
X008876Y002338D01*
X008876Y002260D02*
X010016Y002260D01*
X010016Y002181D02*
X008876Y002181D01*
X008876Y002103D02*
X010016Y002103D01*
X010016Y002024D02*
X008876Y002024D01*
X008876Y001946D02*
X010016Y001946D01*
X010016Y001867D02*
X008876Y001867D01*
X008876Y001789D02*
X010016Y001789D01*
X010016Y001710D02*
X008876Y001710D01*
X008876Y001632D02*
X010016Y001632D01*
X010016Y001553D02*
X008876Y001553D01*
X008876Y001475D02*
X010016Y001475D01*
X010016Y001396D02*
X008876Y001396D01*
X008876Y001318D02*
X010016Y001318D01*
X010016Y001239D02*
X008876Y001239D01*
X008876Y001161D02*
X010016Y001161D01*
X009869Y001082D02*
X009667Y001082D01*
X009686Y001004D02*
X009790Y001004D01*
X009721Y000925D02*
X009686Y000925D01*
X009686Y000847D02*
X009688Y000847D01*
X009216Y000847D02*
X009136Y000847D01*
X009136Y000925D02*
X009216Y000925D01*
X009216Y001004D02*
X009136Y001004D01*
X009136Y001082D02*
X009216Y001082D01*
X009216Y000768D02*
X009136Y000768D01*
X009136Y000690D02*
X009216Y000690D01*
X008130Y001161D02*
X008040Y001161D01*
X008028Y001239D02*
X008130Y001239D01*
X008130Y001318D02*
X007949Y001318D01*
X007871Y001396D02*
X008130Y001396D01*
X008130Y001475D02*
X007792Y001475D01*
X007714Y001553D02*
X008130Y001553D01*
X008130Y001632D02*
X007635Y001632D01*
X007557Y001710D02*
X008130Y001710D01*
X008130Y001789D02*
X007478Y001789D01*
X007400Y001867D02*
X008130Y001867D01*
X008130Y001946D02*
X007321Y001946D01*
X007243Y002024D02*
X008130Y002024D01*
X008130Y002103D02*
X007164Y002103D01*
X007086Y002181D02*
X008130Y002181D01*
X008130Y002260D02*
X007007Y002260D01*
X006929Y002338D02*
X008130Y002338D01*
X008130Y002417D02*
X006850Y002417D01*
X006772Y002495D02*
X008130Y002495D01*
X008130Y002574D02*
X006693Y002574D01*
X006615Y002652D02*
X008130Y002652D01*
X008130Y002731D02*
X006536Y002731D01*
X006458Y002809D02*
X008130Y002809D01*
X008130Y002888D02*
X006379Y002888D01*
X006301Y002966D02*
X008130Y002966D01*
X008130Y003045D02*
X006222Y003045D01*
X006144Y003123D02*
X008130Y003123D01*
X008130Y003202D02*
X006065Y003202D01*
X005987Y003280D02*
X008130Y003280D01*
X008130Y003359D02*
X005908Y003359D01*
X005830Y003437D02*
X008130Y003437D01*
X008130Y003516D02*
X005751Y003516D01*
X005416Y003594D02*
X008130Y003594D01*
X008130Y003673D02*
X005416Y003673D01*
X005416Y003751D02*
X008130Y003751D01*
X007133Y004222D02*
X006236Y004222D01*
X006276Y004301D02*
X006917Y004301D01*
X006858Y004322D02*
X006858Y004322D01*
X006790Y004379D02*
X006276Y004379D01*
X006276Y004458D02*
X006697Y004458D01*
X006607Y004533D02*
X006607Y004533D01*
X006605Y004536D02*
X006276Y004536D01*
X006276Y004615D02*
X006560Y004615D01*
X006514Y004693D02*
X006276Y004693D01*
X006214Y004772D02*
X006469Y004772D01*
X006443Y004817D02*
X006443Y004817D01*
X006437Y004850D02*
X005567Y004850D01*
X005590Y004906D02*
X005558Y004925D01*
X005532Y004951D01*
X005513Y004983D01*
X005504Y005018D01*
X005504Y005156D01*
X005841Y005156D01*
X005841Y005233D01*
X005504Y005233D01*
X005504Y005370D01*
X005513Y005406D01*
X005532Y005438D01*
X005558Y005464D01*
X005590Y005482D01*
X005625Y005492D01*
X005841Y005492D01*
X005841Y005233D01*
X005919Y005233D01*
X005919Y005156D01*
X006256Y005156D01*
X006256Y005018D01*
X006247Y004983D01*
X006228Y004951D01*
X006202Y004925D01*
X006170Y004906D01*
X006135Y004897D01*
X005919Y004897D01*
X005919Y005156D01*
X005841Y005156D01*
X005841Y004897D01*
X005625Y004897D01*
X005590Y004906D01*
X005554Y004929D02*
X005488Y004929D01*
X005507Y005007D02*
X005297Y005007D01*
X005297Y005086D02*
X005504Y005086D01*
X005504Y005243D02*
X005297Y005243D01*
X005297Y005164D02*
X005841Y005164D01*
X005919Y005164D02*
X006390Y005164D01*
X006386Y005140D02*
X006386Y005140D01*
X006395Y005086D02*
X006256Y005086D01*
X006253Y005007D02*
X006409Y005007D01*
X006423Y004929D02*
X006206Y004929D01*
X005919Y004929D02*
X005841Y004929D01*
X005841Y005007D02*
X005919Y005007D01*
X005919Y005086D02*
X005841Y005086D01*
X005841Y005243D02*
X005919Y005243D01*
X005919Y005321D02*
X005841Y005321D01*
X005841Y005400D02*
X005919Y005400D01*
X005919Y005478D02*
X005841Y005478D01*
X005970Y005557D02*
X005297Y005557D01*
X005297Y005623D02*
X005297Y005330D01*
X004921Y005330D01*
X004921Y005745D01*
X005175Y005745D01*
X005211Y005735D01*
X005243Y005717D01*
X005269Y005691D01*
X005287Y005659D01*
X005297Y005623D01*
X005294Y005635D02*
X005937Y005635D01*
X005923Y005714D02*
X005246Y005714D01*
X004921Y005714D02*
X004841Y005714D01*
X004841Y005745D02*
X004587Y005745D01*
X004552Y005735D01*
X004520Y005717D01*
X004494Y005691D01*
X004475Y005659D01*
X004466Y005623D01*
X004466Y005330D01*
X004841Y005330D01*
X004841Y005745D01*
X004841Y005635D02*
X004921Y005635D01*
X004921Y005557D02*
X004841Y005557D01*
X004841Y005478D02*
X004921Y005478D01*
X004921Y005400D02*
X004841Y005400D01*
X004841Y005321D02*
X004214Y005321D01*
X004214Y005243D02*
X004466Y005243D01*
X004466Y005164D02*
X004214Y005164D01*
X004214Y005086D02*
X004466Y005086D01*
X004466Y005007D02*
X004214Y005007D01*
X004214Y005400D02*
X004466Y005400D01*
X004466Y005478D02*
X004214Y005478D01*
X004214Y005557D02*
X004466Y005557D01*
X004469Y005635D02*
X004214Y005635D01*
X004172Y005714D02*
X004516Y005714D01*
X004921Y005321D02*
X005504Y005321D01*
X005512Y005400D02*
X005297Y005400D01*
X005297Y005478D02*
X005582Y005478D01*
X005923Y005792D02*
X002000Y005792D01*
X002053Y005747D02*
X002053Y005747D01*
X001906Y005871D02*
X005948Y005871D01*
X006256Y005321D02*
X006418Y005321D01*
X006431Y005400D02*
X006390Y005400D01*
X006404Y005243D02*
X006256Y005243D01*
X005524Y004222D02*
X005367Y004222D01*
X008330Y006439D02*
X008330Y012439D01*
X000330Y012439D01*
X000330Y006439D01*
X008330Y006439D01*
X008676Y006439D02*
X008676Y012439D01*
X016676Y012439D01*
X016676Y006439D01*
X008676Y006439D01*
X009136Y006979D02*
X009136Y007449D01*
X008876Y007449D01*
X008876Y010965D01*
X008953Y010832D01*
X009204Y010621D01*
X009204Y010621D01*
X009512Y010509D01*
X009840Y010509D01*
X010149Y010621D01*
X010400Y010832D01*
X010564Y011116D01*
X010564Y011116D01*
X010621Y011439D01*
X010621Y011439D01*
X010564Y011762D01*
X010564Y011762D01*
X010400Y012046D01*
X010400Y012046D01*
X010170Y012239D01*
X014323Y012239D01*
X014270Y012110D01*
X014270Y011968D01*
X014324Y011837D01*
X014370Y011791D01*
X014265Y011791D01*
X014265Y011532D01*
X014603Y011532D01*
X014603Y011669D01*
X014599Y011682D01*
X014697Y011682D01*
X014781Y011717D01*
X014732Y011439D01*
X014789Y011116D01*
X014953Y010832D01*
X015204Y010621D01*
X015204Y010621D01*
X015512Y010509D01*
X015840Y010509D01*
X016149Y010621D01*
X016400Y010832D01*
X016476Y010965D01*
X016476Y007389D01*
X016386Y007426D01*
X016386Y007526D01*
X014073Y009839D01*
X013899Y009839D01*
X013879Y009839D01*
X013831Y009888D01*
X013762Y009888D01*
X013762Y010365D01*
X013714Y010413D01*
X013714Y010529D01*
X013862Y010529D01*
X013924Y010467D01*
X014529Y010467D01*
X014623Y010561D01*
X014623Y011009D01*
X014529Y011102D01*
X013960Y011102D01*
X013883Y011179D01*
X013833Y011229D01*
X013636Y011229D01*
X013643Y011256D01*
X013643Y011549D01*
X013268Y011549D01*
X013268Y011629D01*
X013643Y011629D01*
X013643Y011923D01*
X013634Y011958D01*
X013615Y011990D01*
X013589Y012016D01*
X013557Y012035D01*
X013522Y012044D01*
X013268Y012044D01*
X013268Y011629D01*
X013188Y011629D01*
X013188Y012044D01*
X012934Y012044D01*
X012898Y012035D01*
X012866Y012016D01*
X012840Y011990D01*
X012822Y011958D01*
X012812Y011923D01*
X012812Y011629D01*
X013188Y011629D01*
X013188Y011549D01*
X012812Y011549D01*
X012812Y011256D01*
X012819Y011229D01*
X012561Y011229D01*
X012561Y011970D01*
X012467Y012064D01*
X011783Y012064D01*
X011690Y011970D01*
X011690Y011208D01*
X011726Y011171D01*
X011726Y010809D01*
X011609Y010809D01*
X011513Y010712D01*
X011513Y011009D01*
X011419Y011102D01*
X010814Y011102D01*
X010720Y011009D01*
X010720Y010561D01*
X010814Y010467D01*
X010916Y010467D01*
X010916Y010269D01*
X010289Y010269D01*
X010166Y010146D01*
X010139Y010119D01*
X010016Y009996D01*
X010016Y007447D01*
X009876Y007389D01*
X009727Y007239D01*
X009686Y007141D01*
X009686Y007328D01*
X009677Y007363D01*
X009658Y007395D01*
X009632Y007421D01*
X009600Y007440D01*
X009565Y007449D01*
X009216Y007449D01*
X009216Y006979D01*
X009136Y006979D01*
X009136Y007048D02*
X009216Y007048D01*
X009216Y007127D02*
X009136Y007127D01*
X009136Y007205D02*
X009216Y007205D01*
X009216Y007284D02*
X009136Y007284D01*
X009136Y007362D02*
X009216Y007362D01*
X009216Y007441D02*
X009136Y007441D01*
X008876Y007519D02*
X010016Y007519D01*
X010016Y007598D02*
X008876Y007598D01*
X008876Y007676D02*
X010016Y007676D01*
X010016Y007755D02*
X008876Y007755D01*
X008876Y007833D02*
X010016Y007833D01*
X010016Y007912D02*
X008876Y007912D01*
X008876Y007990D02*
X010016Y007990D01*
X010016Y008069D02*
X008876Y008069D01*
X008876Y008147D02*
X010016Y008147D01*
X010016Y008226D02*
X008876Y008226D01*
X008876Y008304D02*
X010016Y008304D01*
X010016Y008383D02*
X008876Y008383D01*
X008876Y008461D02*
X010016Y008461D01*
X010016Y008540D02*
X008876Y008540D01*
X008876Y008618D02*
X010016Y008618D01*
X010016Y008697D02*
X008876Y008697D01*
X008876Y008775D02*
X010016Y008775D01*
X010016Y008854D02*
X009549Y008854D01*
X009497Y008832D02*
X009629Y008887D01*
X009729Y008987D01*
X009783Y009118D01*
X009783Y009260D01*
X009729Y009391D01*
X009629Y009492D01*
X009497Y009546D01*
X009355Y009546D01*
X009224Y009492D01*
X009124Y009391D01*
X009070Y009260D01*
X009070Y009118D01*
X009124Y008987D01*
X009224Y008887D01*
X009355Y008832D01*
X009497Y008832D01*
X009674Y008932D02*
X010016Y008932D01*
X010016Y009011D02*
X009739Y009011D01*
X009771Y009089D02*
X010016Y009089D01*
X010016Y009168D02*
X009783Y009168D01*
X009783Y009246D02*
X010016Y009246D01*
X010016Y009325D02*
X009757Y009325D01*
X009717Y009403D02*
X010016Y009403D01*
X010016Y009482D02*
X009639Y009482D01*
X009214Y009482D02*
X008876Y009482D01*
X008876Y009560D02*
X010016Y009560D01*
X010016Y009639D02*
X008876Y009639D01*
X008876Y009717D02*
X010016Y009717D01*
X010016Y009796D02*
X008876Y009796D01*
X008876Y009874D02*
X010016Y009874D01*
X010016Y009953D02*
X008876Y009953D01*
X008876Y010031D02*
X010051Y010031D01*
X010130Y010110D02*
X008876Y010110D01*
X008876Y010188D02*
X010208Y010188D01*
X010166Y010146D02*
X010166Y010146D01*
X010139Y010119D02*
X010139Y010119D01*
X010287Y010267D02*
X008876Y010267D01*
X008876Y010345D02*
X010916Y010345D01*
X010916Y010424D02*
X008876Y010424D01*
X008876Y010502D02*
X010779Y010502D01*
X010720Y010581D02*
X010036Y010581D01*
X010149Y010621D02*
X010149Y010621D01*
X010193Y010659D02*
X010720Y010659D01*
X010720Y010738D02*
X010287Y010738D01*
X010381Y010816D02*
X010720Y010816D01*
X010720Y010895D02*
X010436Y010895D01*
X010400Y010832D02*
X010400Y010832D01*
X010400Y010832D01*
X010481Y010973D02*
X010720Y010973D01*
X010763Y011052D02*
X010526Y011052D01*
X010566Y011130D02*
X011726Y011130D01*
X011726Y011052D02*
X011470Y011052D01*
X011513Y010973D02*
X011726Y010973D01*
X011726Y010895D02*
X011513Y010895D01*
X011513Y010816D02*
X011726Y010816D01*
X011538Y010738D02*
X011513Y010738D01*
X012146Y010738D02*
X013294Y010738D01*
X013294Y010744D02*
X013294Y010439D01*
X013198Y010439D01*
X013198Y010087D01*
X013180Y010087D01*
X013180Y010439D01*
X013072Y010439D01*
X013061Y010436D01*
X013039Y010459D01*
X012709Y010459D01*
X012686Y010436D01*
X012676Y010439D01*
X012568Y010439D01*
X012568Y010154D01*
X012550Y010172D01*
X012550Y010439D01*
X012442Y010439D01*
X012407Y010429D01*
X012401Y010426D01*
X012396Y010429D01*
X012361Y010439D01*
X012253Y010439D01*
X012253Y010162D01*
X012235Y010144D01*
X012235Y010439D01*
X012139Y010439D01*
X012139Y010495D01*
X012146Y010502D01*
X013294Y010502D01*
X013294Y010581D02*
X012146Y010581D01*
X012146Y010659D02*
X013294Y010659D01*
X013294Y010744D02*
X013359Y010809D01*
X012146Y010809D01*
X012146Y010502D01*
X012235Y010424D02*
X012253Y010424D01*
X012253Y010345D02*
X012235Y010345D01*
X012235Y010267D02*
X012253Y010267D01*
X012253Y010188D02*
X012235Y010188D01*
X012550Y010188D02*
X012568Y010188D01*
X012568Y010267D02*
X012550Y010267D01*
X012550Y010345D02*
X012568Y010345D01*
X012568Y010424D02*
X012550Y010424D01*
X013180Y010424D02*
X013198Y010424D01*
X013198Y010345D02*
X013180Y010345D01*
X013180Y010267D02*
X013198Y010267D01*
X013198Y010188D02*
X013180Y010188D01*
X013180Y010110D02*
X013198Y010110D01*
X013762Y010110D02*
X016476Y010110D01*
X016476Y010188D02*
X013762Y010188D01*
X013762Y010267D02*
X016476Y010267D01*
X016476Y010345D02*
X013762Y010345D01*
X013714Y010424D02*
X016476Y010424D01*
X016476Y010502D02*
X014564Y010502D01*
X014623Y010581D02*
X015317Y010581D01*
X015159Y010659D02*
X014623Y010659D01*
X014623Y010738D02*
X015066Y010738D01*
X014972Y010816D02*
X014623Y010816D01*
X014623Y010895D02*
X014917Y010895D01*
X014953Y010832D02*
X014953Y010832D01*
X014872Y010973D02*
X014623Y010973D01*
X014580Y011052D02*
X014826Y011052D01*
X014789Y011116D02*
X014789Y011116D01*
X014787Y011130D02*
X013933Y011130D01*
X013883Y011179D02*
X013883Y011179D01*
X013854Y011209D02*
X013931Y011209D01*
X013936Y011206D02*
X013972Y011196D01*
X014188Y011196D01*
X014188Y011455D01*
X014265Y011455D01*
X014265Y011532D01*
X014188Y011532D01*
X014188Y011455D01*
X013850Y011455D01*
X013850Y011318D01*
X013860Y011282D01*
X013878Y011250D01*
X013904Y011224D01*
X013936Y011206D01*
X013858Y011287D02*
X013643Y011287D01*
X013643Y011366D02*
X013850Y011366D01*
X013850Y011444D02*
X013643Y011444D01*
X013643Y011523D02*
X014188Y011523D01*
X014188Y011532D02*
X013850Y011532D01*
X013850Y011669D01*
X013860Y011705D01*
X013878Y011737D01*
X013904Y011763D01*
X013936Y011781D01*
X013972Y011791D01*
X014188Y011791D01*
X014188Y011532D01*
X014188Y011601D02*
X014265Y011601D01*
X014265Y011523D02*
X014747Y011523D01*
X014761Y011601D02*
X014603Y011601D01*
X014600Y011680D02*
X014774Y011680D01*
X014733Y011444D02*
X014603Y011444D01*
X014603Y011455D02*
X014265Y011455D01*
X014265Y011196D01*
X014481Y011196D01*
X014517Y011206D01*
X014549Y011224D01*
X014575Y011250D01*
X014593Y011282D01*
X014603Y011318D01*
X014603Y011455D01*
X014603Y011366D02*
X014745Y011366D01*
X014732Y011439D02*
X014732Y011439D01*
X014759Y011287D02*
X014594Y011287D01*
X014522Y011209D02*
X014773Y011209D01*
X014265Y011209D02*
X014188Y011209D01*
X014188Y011287D02*
X014265Y011287D01*
X014265Y011366D02*
X014188Y011366D01*
X014188Y011444D02*
X014265Y011444D01*
X014265Y011680D02*
X014188Y011680D01*
X014188Y011758D02*
X014265Y011758D01*
X014324Y011837D02*
X013643Y011837D01*
X013643Y011915D02*
X014292Y011915D01*
X014270Y011994D02*
X013612Y011994D01*
X013643Y011758D02*
X013899Y011758D01*
X013853Y011680D02*
X013643Y011680D01*
X013850Y011601D02*
X013268Y011601D01*
X013268Y011680D02*
X013188Y011680D01*
X013188Y011758D02*
X013268Y011758D01*
X013268Y011837D02*
X013188Y011837D01*
X013188Y011915D02*
X013268Y011915D01*
X013268Y011994D02*
X013188Y011994D01*
X012843Y011994D02*
X012538Y011994D01*
X012561Y011915D02*
X012812Y011915D01*
X012812Y011837D02*
X012561Y011837D01*
X012561Y011758D02*
X012812Y011758D01*
X012812Y011680D02*
X012561Y011680D01*
X012561Y011601D02*
X013188Y011601D01*
X012812Y011523D02*
X012561Y011523D01*
X012561Y011444D02*
X012812Y011444D01*
X012812Y011366D02*
X012561Y011366D01*
X012561Y011287D02*
X012812Y011287D01*
X011690Y011287D02*
X011484Y011287D01*
X011483Y011282D02*
X011493Y011318D01*
X011493Y011455D01*
X011155Y011455D01*
X011155Y011532D01*
X011493Y011532D01*
X011493Y011669D01*
X011483Y011705D01*
X011465Y011737D01*
X011439Y011763D01*
X011407Y011781D01*
X011371Y011791D01*
X011155Y011791D01*
X011155Y011532D01*
X011078Y011532D01*
X011078Y011791D01*
X010862Y011791D01*
X010826Y011781D01*
X010794Y011763D01*
X010768Y011737D01*
X010750Y011705D01*
X010740Y011669D01*
X010740Y011532D01*
X011078Y011532D01*
X011078Y011455D01*
X011155Y011455D01*
X011155Y011196D01*
X011371Y011196D01*
X011407Y011206D01*
X011439Y011224D01*
X011465Y011250D01*
X011483Y011282D01*
X011493Y011366D02*
X011690Y011366D01*
X011690Y011444D02*
X011493Y011444D01*
X011493Y011601D02*
X011690Y011601D01*
X011690Y011523D02*
X011155Y011523D01*
X011078Y011523D02*
X010606Y011523D01*
X010592Y011601D02*
X010740Y011601D01*
X010743Y011680D02*
X010578Y011680D01*
X010565Y011758D02*
X010789Y011758D01*
X010521Y011837D02*
X011690Y011837D01*
X011690Y011915D02*
X010476Y011915D01*
X010430Y011994D02*
X011713Y011994D01*
X011690Y011758D02*
X011444Y011758D01*
X011490Y011680D02*
X011690Y011680D01*
X011690Y011209D02*
X011412Y011209D01*
X011155Y011209D02*
X011078Y011209D01*
X011078Y011196D02*
X011078Y011455D01*
X010740Y011455D01*
X010740Y011318D01*
X010750Y011282D01*
X010768Y011250D01*
X010794Y011224D01*
X010826Y011206D01*
X010862Y011196D01*
X011078Y011196D01*
X011078Y011287D02*
X011155Y011287D01*
X011155Y011366D02*
X011078Y011366D01*
X011078Y011444D02*
X011155Y011444D01*
X011155Y011601D02*
X011078Y011601D01*
X011078Y011680D02*
X011155Y011680D01*
X011155Y011758D02*
X011078Y011758D01*
X010740Y011444D02*
X010620Y011444D01*
X010608Y011366D02*
X010740Y011366D01*
X010748Y011287D02*
X010594Y011287D01*
X010580Y011209D02*
X010821Y011209D01*
X010369Y012072D02*
X014270Y012072D01*
X014286Y012151D02*
X010276Y012151D01*
X010182Y012229D02*
X014319Y012229D01*
X016193Y010659D02*
X016476Y010659D01*
X016476Y010581D02*
X016036Y010581D01*
X016149Y010621D02*
X016149Y010621D01*
X016287Y010738D02*
X016476Y010738D01*
X016476Y010816D02*
X016381Y010816D01*
X016400Y010832D02*
X016400Y010832D01*
X016400Y010832D01*
X016436Y010895D02*
X016476Y010895D01*
X016476Y010031D02*
X013762Y010031D01*
X013762Y009953D02*
X016476Y009953D01*
X016476Y009874D02*
X013844Y009874D01*
X014117Y009796D02*
X016476Y009796D01*
X016476Y009717D02*
X014196Y009717D01*
X014274Y009639D02*
X016476Y009639D01*
X016476Y009560D02*
X014353Y009560D01*
X014431Y009482D02*
X016476Y009482D01*
X016476Y009403D02*
X014510Y009403D01*
X014588Y009325D02*
X016476Y009325D01*
X016476Y009246D02*
X014667Y009246D01*
X014745Y009168D02*
X016476Y009168D01*
X016476Y009089D02*
X014824Y009089D01*
X014902Y009011D02*
X016476Y009011D01*
X016476Y008932D02*
X014981Y008932D01*
X015059Y008854D02*
X016476Y008854D01*
X016476Y008775D02*
X015138Y008775D01*
X015216Y008697D02*
X016476Y008697D01*
X016476Y008618D02*
X015295Y008618D01*
X015373Y008540D02*
X016476Y008540D01*
X016476Y008461D02*
X015452Y008461D01*
X015530Y008383D02*
X016476Y008383D01*
X016476Y008304D02*
X015609Y008304D01*
X015687Y008226D02*
X016476Y008226D01*
X016476Y008147D02*
X015766Y008147D01*
X015844Y008069D02*
X016476Y008069D01*
X016476Y007990D02*
X015923Y007990D01*
X016001Y007912D02*
X016476Y007912D01*
X016476Y007833D02*
X016080Y007833D01*
X016158Y007755D02*
X016476Y007755D01*
X016476Y007676D02*
X016237Y007676D01*
X016315Y007598D02*
X016476Y007598D01*
X016476Y007519D02*
X016386Y007519D01*
X016386Y007441D02*
X016476Y007441D01*
X014294Y005871D02*
X010253Y005871D01*
X010346Y005792D02*
X014270Y005792D01*
X014603Y005321D02*
X014764Y005321D01*
X014750Y005243D02*
X014603Y005243D01*
X014737Y005400D02*
X014778Y005400D01*
X010400Y005747D02*
X010400Y005747D01*
X009713Y007205D02*
X009686Y007205D01*
X009686Y007284D02*
X009771Y007284D01*
X009850Y007362D02*
X009677Y007362D01*
X009597Y007441D02*
X010002Y007441D01*
X009304Y008854D02*
X008876Y008854D01*
X008876Y008932D02*
X009179Y008932D01*
X009114Y009011D02*
X008876Y009011D01*
X008876Y009089D02*
X009082Y009089D01*
X009070Y009168D02*
X008876Y009168D01*
X008876Y009246D02*
X009070Y009246D01*
X009096Y009325D02*
X008876Y009325D01*
X008876Y009403D02*
X009136Y009403D01*
X008130Y009403D02*
X006163Y009403D01*
X006085Y009482D02*
X008130Y009482D01*
X008130Y009560D02*
X006006Y009560D01*
X005928Y009639D02*
X008130Y009639D01*
X008130Y009717D02*
X005849Y009717D01*
X005771Y009796D02*
X008130Y009796D01*
X008130Y009874D02*
X005498Y009874D01*
X005484Y009888D02*
X005533Y009839D01*
X005553Y009839D01*
X005727Y009839D01*
X008040Y007526D01*
X008040Y007426D01*
X008130Y007389D01*
X008130Y010965D01*
X008053Y010832D01*
X008053Y010832D01*
X007802Y010621D01*
X007802Y010621D01*
X007494Y010509D01*
X007166Y010509D01*
X006858Y010621D01*
X006858Y010621D01*
X006607Y010832D01*
X006607Y010832D01*
X006443Y011116D01*
X006443Y011116D01*
X006386Y011439D01*
X006386Y011439D01*
X006435Y011717D01*
X006351Y011682D01*
X006253Y011682D01*
X006256Y011669D01*
X006256Y011532D01*
X005919Y011532D01*
X005919Y011455D01*
X006256Y011455D01*
X006256Y011318D01*
X006247Y011282D01*
X006228Y011250D01*
X006202Y011224D01*
X006170Y011206D01*
X006135Y011196D01*
X005919Y011196D01*
X005919Y011455D01*
X005841Y011455D01*
X005504Y011455D01*
X005504Y011318D01*
X005513Y011282D01*
X005532Y011250D01*
X005558Y011224D01*
X005590Y011206D01*
X005625Y011196D01*
X005841Y011196D01*
X005841Y011455D01*
X005841Y011532D01*
X005504Y011532D01*
X005504Y011669D01*
X005513Y011705D01*
X005532Y011737D01*
X005558Y011763D01*
X005590Y011781D01*
X005625Y011791D01*
X005841Y011791D01*
X005841Y011532D01*
X005919Y011532D01*
X005919Y011791D01*
X006024Y011791D01*
X005977Y011837D01*
X005923Y011968D01*
X005923Y012110D01*
X005977Y012239D01*
X001823Y012239D01*
X002053Y012046D01*
X002053Y012046D01*
X002217Y011762D01*
X002217Y011762D01*
X002274Y011439D01*
X002274Y011439D01*
X002217Y011116D01*
X002053Y010832D01*
X002053Y010832D01*
X001802Y010621D01*
X001802Y010621D01*
X001494Y010509D01*
X001166Y010509D01*
X000858Y010621D01*
X000858Y010621D01*
X000607Y010832D01*
X000607Y010832D01*
X000530Y010965D01*
X000530Y007449D01*
X000790Y007449D01*
X000790Y006979D01*
X000870Y006979D01*
X000870Y007449D01*
X001218Y007449D01*
X001254Y007440D01*
X001286Y007421D01*
X001312Y007395D01*
X001330Y007363D01*
X001340Y007328D01*
X001340Y007141D01*
X001381Y007239D01*
X001530Y007389D01*
X001670Y007447D01*
X001670Y009996D01*
X001793Y010119D01*
X001793Y010119D01*
X001820Y010146D01*
X001820Y010146D01*
X001943Y010269D01*
X002570Y010269D01*
X002570Y010467D01*
X002468Y010467D01*
X002374Y010561D01*
X002374Y011009D01*
X002468Y011102D01*
X003072Y011102D01*
X003166Y011009D01*
X003166Y010712D01*
X003263Y010809D01*
X003380Y010809D01*
X003380Y011171D01*
X003343Y011208D01*
X003343Y011970D01*
X003437Y012064D01*
X004121Y012064D01*
X004214Y011970D01*
X004214Y011229D01*
X004473Y011229D01*
X004466Y011256D01*
X004466Y011549D01*
X004841Y011549D01*
X004841Y011629D01*
X004466Y011629D01*
X004466Y011923D01*
X004475Y011958D01*
X004494Y011990D01*
X004520Y012016D01*
X004552Y012035D01*
X004587Y012044D01*
X004841Y012044D01*
X004841Y011629D01*
X004921Y011629D01*
X005297Y011629D01*
X005297Y011923D01*
X005287Y011958D01*
X005269Y011990D01*
X005243Y012016D01*
X005211Y012035D01*
X005175Y012044D01*
X004921Y012044D01*
X004921Y011629D01*
X004921Y011549D01*
X005297Y011549D01*
X005297Y011256D01*
X005290Y011229D01*
X005487Y011229D01*
X005610Y011106D01*
X005610Y011106D01*
X005614Y011102D01*
X006182Y011102D01*
X006276Y011009D01*
X006276Y010561D01*
X006182Y010467D01*
X005578Y010467D01*
X005516Y010529D01*
X005367Y010529D01*
X005367Y010413D01*
X005416Y010365D01*
X005416Y009888D01*
X005484Y009888D01*
X005416Y009953D02*
X008130Y009953D01*
X008130Y010031D02*
X005416Y010031D01*
X005416Y010110D02*
X008130Y010110D01*
X008130Y010188D02*
X005416Y010188D01*
X005416Y010267D02*
X008130Y010267D01*
X008130Y010345D02*
X005416Y010345D01*
X005367Y010424D02*
X008130Y010424D01*
X008130Y010502D02*
X006217Y010502D01*
X006276Y010581D02*
X006970Y010581D01*
X006813Y010659D02*
X006276Y010659D01*
X006276Y010738D02*
X006719Y010738D01*
X006626Y010816D02*
X006276Y010816D01*
X006276Y010895D02*
X006571Y010895D01*
X006525Y010973D02*
X006276Y010973D01*
X006233Y011052D02*
X006480Y011052D01*
X006440Y011130D02*
X005586Y011130D01*
X005585Y011209D02*
X005508Y011209D01*
X005512Y011287D02*
X005297Y011287D01*
X005297Y011366D02*
X005504Y011366D01*
X005504Y011444D02*
X005297Y011444D01*
X005297Y011523D02*
X005841Y011523D01*
X005919Y011523D02*
X006400Y011523D01*
X006414Y011601D02*
X006256Y011601D01*
X006254Y011680D02*
X006428Y011680D01*
X006387Y011444D02*
X006256Y011444D01*
X006256Y011366D02*
X006399Y011366D01*
X006412Y011287D02*
X006248Y011287D01*
X006175Y011209D02*
X006426Y011209D01*
X005919Y011209D02*
X005841Y011209D01*
X005841Y011287D02*
X005919Y011287D01*
X005919Y011366D02*
X005841Y011366D01*
X005841Y011444D02*
X005919Y011444D01*
X005919Y011601D02*
X005841Y011601D01*
X005841Y011680D02*
X005919Y011680D01*
X005919Y011758D02*
X005841Y011758D01*
X005978Y011837D02*
X005297Y011837D01*
X005297Y011915D02*
X005945Y011915D01*
X005923Y011994D02*
X005265Y011994D01*
X005297Y011758D02*
X005553Y011758D01*
X005506Y011680D02*
X005297Y011680D01*
X005504Y011601D02*
X004921Y011601D01*
X004921Y011680D02*
X004841Y011680D01*
X004841Y011758D02*
X004921Y011758D01*
X004921Y011837D02*
X004841Y011837D01*
X004841Y011915D02*
X004921Y011915D01*
X004921Y011994D02*
X004841Y011994D01*
X004497Y011994D02*
X004191Y011994D01*
X004214Y011915D02*
X004466Y011915D01*
X004466Y011837D02*
X004214Y011837D01*
X004214Y011758D02*
X004466Y011758D01*
X004466Y011680D02*
X004214Y011680D01*
X004214Y011601D02*
X004841Y011601D01*
X004466Y011523D02*
X004214Y011523D01*
X004214Y011444D02*
X004466Y011444D01*
X004466Y011366D02*
X004214Y011366D01*
X004214Y011287D02*
X004466Y011287D01*
X004947Y010744D02*
X005013Y010809D01*
X003800Y010809D01*
X003800Y010502D01*
X004947Y010502D01*
X004947Y010439D02*
X004852Y010439D01*
X004852Y010087D01*
X004833Y010087D01*
X004833Y010439D01*
X004726Y010439D01*
X004715Y010436D01*
X004692Y010459D01*
X004363Y010459D01*
X004340Y010436D01*
X004329Y010439D01*
X004222Y010439D01*
X004222Y010154D01*
X004203Y010172D01*
X004203Y010439D01*
X004096Y010439D01*
X004060Y010429D01*
X004055Y010426D01*
X004050Y010429D01*
X004014Y010439D01*
X003907Y010439D01*
X003907Y010162D01*
X003888Y010144D01*
X003888Y010439D01*
X003793Y010439D01*
X003793Y010495D01*
X003800Y010502D01*
X003800Y010581D02*
X004947Y010581D01*
X004947Y010659D02*
X003800Y010659D01*
X003800Y010738D02*
X004947Y010738D01*
X004947Y010744D02*
X004947Y010439D01*
X004852Y010424D02*
X004833Y010424D01*
X004833Y010345D02*
X004852Y010345D01*
X004852Y010267D02*
X004833Y010267D01*
X004833Y010188D02*
X004852Y010188D01*
X004852Y010110D02*
X004833Y010110D01*
X005367Y010502D02*
X005543Y010502D01*
X004222Y010424D02*
X004203Y010424D01*
X004203Y010345D02*
X004222Y010345D01*
X004222Y010267D02*
X004203Y010267D01*
X004203Y010188D02*
X004222Y010188D01*
X003907Y010188D02*
X003888Y010188D01*
X003888Y010267D02*
X003907Y010267D01*
X003907Y010345D02*
X003888Y010345D01*
X003888Y010424D02*
X003907Y010424D01*
X003380Y010816D02*
X003166Y010816D01*
X003166Y010738D02*
X003191Y010738D01*
X003166Y010895D02*
X003380Y010895D01*
X003380Y010973D02*
X003166Y010973D01*
X003123Y011052D02*
X003380Y011052D01*
X003380Y011130D02*
X002220Y011130D01*
X002234Y011209D02*
X002475Y011209D01*
X002480Y011206D02*
X002515Y011196D01*
X002731Y011196D01*
X002731Y011455D01*
X002394Y011455D01*
X002394Y011318D01*
X002403Y011282D01*
X002422Y011250D01*
X002448Y011224D01*
X002480Y011206D01*
X002402Y011287D02*
X002248Y011287D01*
X002261Y011366D02*
X002394Y011366D01*
X002394Y011444D02*
X002273Y011444D01*
X002260Y011523D02*
X002731Y011523D01*
X002731Y011532D02*
X002731Y011455D01*
X002809Y011455D01*
X002809Y011532D01*
X003146Y011532D01*
X003146Y011669D01*
X003137Y011705D01*
X003118Y011737D01*
X003092Y011763D01*
X003060Y011781D01*
X003025Y011791D01*
X002809Y011791D01*
X002809Y011532D01*
X002731Y011532D01*
X002394Y011532D01*
X002394Y011669D01*
X002403Y011705D01*
X002422Y011737D01*
X002448Y011763D01*
X002480Y011781D01*
X002515Y011791D01*
X002731Y011791D01*
X002731Y011532D01*
X002731Y011601D02*
X002809Y011601D01*
X002809Y011523D02*
X003343Y011523D01*
X003343Y011601D02*
X003146Y011601D01*
X003144Y011680D02*
X003343Y011680D01*
X003343Y011758D02*
X003097Y011758D01*
X003343Y011837D02*
X002174Y011837D01*
X002129Y011915D02*
X003343Y011915D01*
X003366Y011994D02*
X002084Y011994D01*
X002023Y012072D02*
X005923Y012072D01*
X005940Y012151D02*
X001929Y012151D01*
X001836Y012229D02*
X005972Y012229D01*
X007847Y010659D02*
X008130Y010659D01*
X008130Y010581D02*
X007690Y010581D01*
X007941Y010738D02*
X008130Y010738D01*
X008130Y010816D02*
X008034Y010816D01*
X008053Y010832D02*
X008053Y010832D01*
X008089Y010895D02*
X008130Y010895D01*
X008876Y010895D02*
X008917Y010895D01*
X008953Y010832D02*
X008953Y010832D01*
X008972Y010816D02*
X008876Y010816D01*
X008876Y010738D02*
X009066Y010738D01*
X009159Y010659D02*
X008876Y010659D01*
X008876Y010581D02*
X009317Y010581D01*
X008130Y009325D02*
X006242Y009325D01*
X006320Y009246D02*
X008130Y009246D01*
X008130Y009168D02*
X006399Y009168D01*
X006477Y009089D02*
X008130Y009089D01*
X008130Y009011D02*
X006556Y009011D01*
X006634Y008932D02*
X008130Y008932D01*
X008130Y008854D02*
X006713Y008854D01*
X006791Y008775D02*
X008130Y008775D01*
X008130Y008697D02*
X006870Y008697D01*
X006948Y008618D02*
X008130Y008618D01*
X008130Y008540D02*
X007027Y008540D01*
X007105Y008461D02*
X008130Y008461D01*
X008130Y008383D02*
X007184Y008383D01*
X007262Y008304D02*
X008130Y008304D01*
X008130Y008226D02*
X007341Y008226D01*
X007419Y008147D02*
X008130Y008147D01*
X008130Y008069D02*
X007498Y008069D01*
X007576Y007990D02*
X008130Y007990D01*
X008130Y007912D02*
X007655Y007912D01*
X007733Y007833D02*
X008130Y007833D01*
X008130Y007755D02*
X007812Y007755D01*
X007890Y007676D02*
X008130Y007676D01*
X008130Y007598D02*
X007969Y007598D01*
X008040Y007519D02*
X008130Y007519D01*
X008130Y007441D02*
X008040Y007441D01*
X003343Y011209D02*
X003065Y011209D01*
X003060Y011206D02*
X003092Y011224D01*
X003118Y011250D01*
X003137Y011282D01*
X003146Y011318D01*
X003146Y011455D01*
X002809Y011455D01*
X002809Y011196D01*
X003025Y011196D01*
X003060Y011206D01*
X003138Y011287D02*
X003343Y011287D01*
X003343Y011366D02*
X003146Y011366D01*
X003146Y011444D02*
X003343Y011444D01*
X002809Y011444D02*
X002731Y011444D01*
X002731Y011366D02*
X002809Y011366D01*
X002809Y011287D02*
X002731Y011287D01*
X002731Y011209D02*
X002809Y011209D01*
X002417Y011052D02*
X002180Y011052D01*
X002135Y010973D02*
X002374Y010973D01*
X002374Y010895D02*
X002089Y010895D01*
X002034Y010816D02*
X002374Y010816D01*
X002374Y010738D02*
X001941Y010738D01*
X001847Y010659D02*
X002374Y010659D01*
X002374Y010581D02*
X001690Y010581D01*
X001940Y010267D02*
X000530Y010267D01*
X000530Y010345D02*
X002570Y010345D01*
X002570Y010424D02*
X000530Y010424D01*
X000530Y010502D02*
X002433Y010502D01*
X001862Y010188D02*
X000530Y010188D01*
X000530Y010110D02*
X001783Y010110D01*
X001705Y010031D02*
X000530Y010031D01*
X000530Y009953D02*
X001670Y009953D01*
X001670Y009874D02*
X000530Y009874D01*
X000530Y009796D02*
X001670Y009796D01*
X001670Y009717D02*
X000530Y009717D01*
X000530Y009639D02*
X001670Y009639D01*
X001670Y009560D02*
X000530Y009560D01*
X000530Y009482D02*
X000868Y009482D01*
X000878Y009492D02*
X000777Y009391D01*
X000723Y009260D01*
X000723Y009118D01*
X000777Y008987D01*
X000878Y008887D01*
X001009Y008832D01*
X001151Y008832D01*
X001282Y008887D01*
X001383Y008987D01*
X001437Y009118D01*
X001437Y009260D01*
X001383Y009391D01*
X001282Y009492D01*
X001151Y009546D01*
X001009Y009546D01*
X000878Y009492D01*
X000789Y009403D02*
X000530Y009403D01*
X000530Y009325D02*
X000750Y009325D01*
X000723Y009246D02*
X000530Y009246D01*
X000530Y009168D02*
X000723Y009168D01*
X000735Y009089D02*
X000530Y009089D01*
X000530Y009011D02*
X000768Y009011D01*
X000833Y008932D02*
X000530Y008932D01*
X000530Y008854D02*
X000958Y008854D01*
X001202Y008854D02*
X001670Y008854D01*
X001670Y008932D02*
X001327Y008932D01*
X001392Y009011D02*
X001670Y009011D01*
X001670Y009089D02*
X001425Y009089D01*
X001437Y009168D02*
X001670Y009168D01*
X001670Y009246D02*
X001437Y009246D01*
X001410Y009325D02*
X001670Y009325D01*
X001670Y009403D02*
X001371Y009403D01*
X001292Y009482D02*
X001670Y009482D01*
X001670Y008775D02*
X000530Y008775D01*
X000530Y008697D02*
X001670Y008697D01*
X001670Y008618D02*
X000530Y008618D01*
X000530Y008540D02*
X001670Y008540D01*
X001670Y008461D02*
X000530Y008461D01*
X000530Y008383D02*
X001670Y008383D01*
X001670Y008304D02*
X000530Y008304D01*
X000530Y008226D02*
X001670Y008226D01*
X001670Y008147D02*
X000530Y008147D01*
X000530Y008069D02*
X001670Y008069D01*
X001670Y007990D02*
X000530Y007990D01*
X000530Y007912D02*
X001670Y007912D01*
X001670Y007833D02*
X000530Y007833D01*
X000530Y007755D02*
X001670Y007755D01*
X001670Y007676D02*
X000530Y007676D01*
X000530Y007598D02*
X001670Y007598D01*
X001670Y007519D02*
X000530Y007519D01*
X000790Y007441D02*
X000870Y007441D01*
X000870Y007362D02*
X000790Y007362D01*
X000790Y007284D02*
X000870Y007284D01*
X000870Y007205D02*
X000790Y007205D01*
X000790Y007127D02*
X000870Y007127D01*
X000870Y007048D02*
X000790Y007048D01*
X001340Y007205D02*
X001366Y007205D01*
X001340Y007284D02*
X001425Y007284D01*
X001503Y007362D02*
X001331Y007362D01*
X001251Y007441D02*
X001655Y007441D01*
X000560Y004615D02*
X000530Y004615D01*
X000530Y004536D02*
X000605Y004536D01*
X000607Y004533D02*
X000607Y004533D01*
X000530Y004458D02*
X000697Y004458D01*
X000790Y004379D02*
X000530Y004379D01*
X000530Y004301D02*
X000917Y004301D01*
X000858Y004322D02*
X000858Y004322D01*
X001133Y004222D02*
X000530Y004222D01*
X001352Y003123D02*
X001670Y003123D01*
X001670Y003045D02*
X001402Y003045D01*
X001435Y002966D02*
X001670Y002966D01*
X001670Y002888D02*
X001437Y002888D01*
X001433Y002809D02*
X001670Y002809D01*
X001670Y002731D02*
X001400Y002731D01*
X001347Y002652D02*
X001670Y002652D01*
X001670Y002574D02*
X001248Y002574D01*
X001320Y001082D02*
X001522Y001082D01*
X001444Y001004D02*
X001340Y001004D01*
X001340Y000925D02*
X001374Y000925D01*
X001342Y000847D02*
X001340Y000847D01*
X013714Y010502D02*
X013889Y010502D01*
X002809Y011680D02*
X002731Y011680D01*
X002731Y011758D02*
X002809Y011758D01*
X002443Y011758D02*
X002218Y011758D01*
X002232Y011680D02*
X002396Y011680D01*
X002394Y011601D02*
X002246Y011601D01*
X000970Y010581D02*
X000530Y010581D01*
X000530Y010659D02*
X000813Y010659D01*
X000719Y010738D02*
X000530Y010738D01*
X000530Y010816D02*
X000626Y010816D01*
X000571Y010895D02*
X000530Y010895D01*
D11*
X000830Y006939D03*
X000830Y000640D03*
X009176Y000640D03*
X009176Y006939D03*
D12*
X010176Y006939D03*
X011176Y006939D03*
X012176Y006939D03*
X013176Y006939D03*
X014176Y006939D03*
X015176Y006939D03*
X016176Y006939D03*
X016176Y000640D03*
X015176Y000640D03*
X014176Y000640D03*
X013176Y000640D03*
X012176Y000640D03*
X011176Y000640D03*
X010176Y000640D03*
X007830Y000640D03*
X006830Y000640D03*
X005830Y000640D03*
X004830Y000640D03*
X003830Y000640D03*
X002830Y000640D03*
X001830Y000640D03*
X001830Y006939D03*
X002830Y006939D03*
X003830Y006939D03*
X004830Y006939D03*
X005830Y006939D03*
X006830Y006939D03*
X007830Y006939D03*
D13*
X005880Y005194D03*
X005880Y004486D03*
X002770Y004486D03*
X002770Y005194D03*
X002770Y010785D03*
X002770Y011494D03*
X005880Y011494D03*
X005880Y010785D03*
X011116Y010785D03*
X011116Y011494D03*
X014226Y011494D03*
X014226Y010785D03*
X014226Y005194D03*
X014226Y004486D03*
X011116Y004486D03*
X011116Y005194D03*
D14*
X012125Y005290D03*
X013228Y005290D03*
X013228Y011589D03*
X012125Y011589D03*
X004881Y011589D03*
X003779Y011589D03*
X003779Y005290D03*
X004881Y005290D03*
D15*
X006680Y005140D02*
X006682Y005190D01*
X006688Y005240D01*
X006698Y005290D01*
X006711Y005338D01*
X006728Y005386D01*
X006749Y005432D01*
X006773Y005476D01*
X006801Y005518D01*
X006832Y005558D01*
X006866Y005595D01*
X006903Y005630D01*
X006942Y005661D01*
X006983Y005690D01*
X007027Y005715D01*
X007073Y005737D01*
X007120Y005755D01*
X007168Y005769D01*
X007217Y005780D01*
X007267Y005787D01*
X007317Y005790D01*
X007368Y005789D01*
X007418Y005784D01*
X007468Y005775D01*
X007516Y005763D01*
X007564Y005746D01*
X007610Y005726D01*
X007655Y005703D01*
X007698Y005676D01*
X007738Y005646D01*
X007776Y005613D01*
X007811Y005577D01*
X007844Y005538D01*
X007873Y005497D01*
X007899Y005454D01*
X007922Y005409D01*
X007941Y005362D01*
X007956Y005314D01*
X007968Y005265D01*
X007976Y005215D01*
X007980Y005165D01*
X007980Y005115D01*
X007976Y005065D01*
X007968Y005015D01*
X007956Y004966D01*
X007941Y004918D01*
X007922Y004871D01*
X007899Y004826D01*
X007873Y004783D01*
X007844Y004742D01*
X007811Y004703D01*
X007776Y004667D01*
X007738Y004634D01*
X007698Y004604D01*
X007655Y004577D01*
X007610Y004554D01*
X007564Y004534D01*
X007516Y004517D01*
X007468Y004505D01*
X007418Y004496D01*
X007368Y004491D01*
X007317Y004490D01*
X007267Y004493D01*
X007217Y004500D01*
X007168Y004511D01*
X007120Y004525D01*
X007073Y004543D01*
X007027Y004565D01*
X006983Y004590D01*
X006942Y004619D01*
X006903Y004650D01*
X006866Y004685D01*
X006832Y004722D01*
X006801Y004762D01*
X006773Y004804D01*
X006749Y004848D01*
X006728Y004894D01*
X006711Y004942D01*
X006698Y004990D01*
X006688Y005040D01*
X006682Y005090D01*
X006680Y005140D01*
X009026Y005140D02*
X009028Y005190D01*
X009034Y005240D01*
X009044Y005290D01*
X009057Y005338D01*
X009074Y005386D01*
X009095Y005432D01*
X009119Y005476D01*
X009147Y005518D01*
X009178Y005558D01*
X009212Y005595D01*
X009249Y005630D01*
X009288Y005661D01*
X009329Y005690D01*
X009373Y005715D01*
X009419Y005737D01*
X009466Y005755D01*
X009514Y005769D01*
X009563Y005780D01*
X009613Y005787D01*
X009663Y005790D01*
X009714Y005789D01*
X009764Y005784D01*
X009814Y005775D01*
X009862Y005763D01*
X009910Y005746D01*
X009956Y005726D01*
X010001Y005703D01*
X010044Y005676D01*
X010084Y005646D01*
X010122Y005613D01*
X010157Y005577D01*
X010190Y005538D01*
X010219Y005497D01*
X010245Y005454D01*
X010268Y005409D01*
X010287Y005362D01*
X010302Y005314D01*
X010314Y005265D01*
X010322Y005215D01*
X010326Y005165D01*
X010326Y005115D01*
X010322Y005065D01*
X010314Y005015D01*
X010302Y004966D01*
X010287Y004918D01*
X010268Y004871D01*
X010245Y004826D01*
X010219Y004783D01*
X010190Y004742D01*
X010157Y004703D01*
X010122Y004667D01*
X010084Y004634D01*
X010044Y004604D01*
X010001Y004577D01*
X009956Y004554D01*
X009910Y004534D01*
X009862Y004517D01*
X009814Y004505D01*
X009764Y004496D01*
X009714Y004491D01*
X009663Y004490D01*
X009613Y004493D01*
X009563Y004500D01*
X009514Y004511D01*
X009466Y004525D01*
X009419Y004543D01*
X009373Y004565D01*
X009329Y004590D01*
X009288Y004619D01*
X009249Y004650D01*
X009212Y004685D01*
X009178Y004722D01*
X009147Y004762D01*
X009119Y004804D01*
X009095Y004848D01*
X009074Y004894D01*
X009057Y004942D01*
X009044Y004990D01*
X009034Y005040D01*
X009028Y005090D01*
X009026Y005140D01*
X015026Y005140D02*
X015028Y005190D01*
X015034Y005240D01*
X015044Y005290D01*
X015057Y005338D01*
X015074Y005386D01*
X015095Y005432D01*
X015119Y005476D01*
X015147Y005518D01*
X015178Y005558D01*
X015212Y005595D01*
X015249Y005630D01*
X015288Y005661D01*
X015329Y005690D01*
X015373Y005715D01*
X015419Y005737D01*
X015466Y005755D01*
X015514Y005769D01*
X015563Y005780D01*
X015613Y005787D01*
X015663Y005790D01*
X015714Y005789D01*
X015764Y005784D01*
X015814Y005775D01*
X015862Y005763D01*
X015910Y005746D01*
X015956Y005726D01*
X016001Y005703D01*
X016044Y005676D01*
X016084Y005646D01*
X016122Y005613D01*
X016157Y005577D01*
X016190Y005538D01*
X016219Y005497D01*
X016245Y005454D01*
X016268Y005409D01*
X016287Y005362D01*
X016302Y005314D01*
X016314Y005265D01*
X016322Y005215D01*
X016326Y005165D01*
X016326Y005115D01*
X016322Y005065D01*
X016314Y005015D01*
X016302Y004966D01*
X016287Y004918D01*
X016268Y004871D01*
X016245Y004826D01*
X016219Y004783D01*
X016190Y004742D01*
X016157Y004703D01*
X016122Y004667D01*
X016084Y004634D01*
X016044Y004604D01*
X016001Y004577D01*
X015956Y004554D01*
X015910Y004534D01*
X015862Y004517D01*
X015814Y004505D01*
X015764Y004496D01*
X015714Y004491D01*
X015663Y004490D01*
X015613Y004493D01*
X015563Y004500D01*
X015514Y004511D01*
X015466Y004525D01*
X015419Y004543D01*
X015373Y004565D01*
X015329Y004590D01*
X015288Y004619D01*
X015249Y004650D01*
X015212Y004685D01*
X015178Y004722D01*
X015147Y004762D01*
X015119Y004804D01*
X015095Y004848D01*
X015074Y004894D01*
X015057Y004942D01*
X015044Y004990D01*
X015034Y005040D01*
X015028Y005090D01*
X015026Y005140D01*
X015026Y011439D02*
X015028Y011489D01*
X015034Y011539D01*
X015044Y011589D01*
X015057Y011637D01*
X015074Y011685D01*
X015095Y011731D01*
X015119Y011775D01*
X015147Y011817D01*
X015178Y011857D01*
X015212Y011894D01*
X015249Y011929D01*
X015288Y011960D01*
X015329Y011989D01*
X015373Y012014D01*
X015419Y012036D01*
X015466Y012054D01*
X015514Y012068D01*
X015563Y012079D01*
X015613Y012086D01*
X015663Y012089D01*
X015714Y012088D01*
X015764Y012083D01*
X015814Y012074D01*
X015862Y012062D01*
X015910Y012045D01*
X015956Y012025D01*
X016001Y012002D01*
X016044Y011975D01*
X016084Y011945D01*
X016122Y011912D01*
X016157Y011876D01*
X016190Y011837D01*
X016219Y011796D01*
X016245Y011753D01*
X016268Y011708D01*
X016287Y011661D01*
X016302Y011613D01*
X016314Y011564D01*
X016322Y011514D01*
X016326Y011464D01*
X016326Y011414D01*
X016322Y011364D01*
X016314Y011314D01*
X016302Y011265D01*
X016287Y011217D01*
X016268Y011170D01*
X016245Y011125D01*
X016219Y011082D01*
X016190Y011041D01*
X016157Y011002D01*
X016122Y010966D01*
X016084Y010933D01*
X016044Y010903D01*
X016001Y010876D01*
X015956Y010853D01*
X015910Y010833D01*
X015862Y010816D01*
X015814Y010804D01*
X015764Y010795D01*
X015714Y010790D01*
X015663Y010789D01*
X015613Y010792D01*
X015563Y010799D01*
X015514Y010810D01*
X015466Y010824D01*
X015419Y010842D01*
X015373Y010864D01*
X015329Y010889D01*
X015288Y010918D01*
X015249Y010949D01*
X015212Y010984D01*
X015178Y011021D01*
X015147Y011061D01*
X015119Y011103D01*
X015095Y011147D01*
X015074Y011193D01*
X015057Y011241D01*
X015044Y011289D01*
X015034Y011339D01*
X015028Y011389D01*
X015026Y011439D01*
X009026Y011439D02*
X009028Y011489D01*
X009034Y011539D01*
X009044Y011589D01*
X009057Y011637D01*
X009074Y011685D01*
X009095Y011731D01*
X009119Y011775D01*
X009147Y011817D01*
X009178Y011857D01*
X009212Y011894D01*
X009249Y011929D01*
X009288Y011960D01*
X009329Y011989D01*
X009373Y012014D01*
X009419Y012036D01*
X009466Y012054D01*
X009514Y012068D01*
X009563Y012079D01*
X009613Y012086D01*
X009663Y012089D01*
X009714Y012088D01*
X009764Y012083D01*
X009814Y012074D01*
X009862Y012062D01*
X009910Y012045D01*
X009956Y012025D01*
X010001Y012002D01*
X010044Y011975D01*
X010084Y011945D01*
X010122Y011912D01*
X010157Y011876D01*
X010190Y011837D01*
X010219Y011796D01*
X010245Y011753D01*
X010268Y011708D01*
X010287Y011661D01*
X010302Y011613D01*
X010314Y011564D01*
X010322Y011514D01*
X010326Y011464D01*
X010326Y011414D01*
X010322Y011364D01*
X010314Y011314D01*
X010302Y011265D01*
X010287Y011217D01*
X010268Y011170D01*
X010245Y011125D01*
X010219Y011082D01*
X010190Y011041D01*
X010157Y011002D01*
X010122Y010966D01*
X010084Y010933D01*
X010044Y010903D01*
X010001Y010876D01*
X009956Y010853D01*
X009910Y010833D01*
X009862Y010816D01*
X009814Y010804D01*
X009764Y010795D01*
X009714Y010790D01*
X009663Y010789D01*
X009613Y010792D01*
X009563Y010799D01*
X009514Y010810D01*
X009466Y010824D01*
X009419Y010842D01*
X009373Y010864D01*
X009329Y010889D01*
X009288Y010918D01*
X009249Y010949D01*
X009212Y010984D01*
X009178Y011021D01*
X009147Y011061D01*
X009119Y011103D01*
X009095Y011147D01*
X009074Y011193D01*
X009057Y011241D01*
X009044Y011289D01*
X009034Y011339D01*
X009028Y011389D01*
X009026Y011439D01*
X006680Y011439D02*
X006682Y011489D01*
X006688Y011539D01*
X006698Y011589D01*
X006711Y011637D01*
X006728Y011685D01*
X006749Y011731D01*
X006773Y011775D01*
X006801Y011817D01*
X006832Y011857D01*
X006866Y011894D01*
X006903Y011929D01*
X006942Y011960D01*
X006983Y011989D01*
X007027Y012014D01*
X007073Y012036D01*
X007120Y012054D01*
X007168Y012068D01*
X007217Y012079D01*
X007267Y012086D01*
X007317Y012089D01*
X007368Y012088D01*
X007418Y012083D01*
X007468Y012074D01*
X007516Y012062D01*
X007564Y012045D01*
X007610Y012025D01*
X007655Y012002D01*
X007698Y011975D01*
X007738Y011945D01*
X007776Y011912D01*
X007811Y011876D01*
X007844Y011837D01*
X007873Y011796D01*
X007899Y011753D01*
X007922Y011708D01*
X007941Y011661D01*
X007956Y011613D01*
X007968Y011564D01*
X007976Y011514D01*
X007980Y011464D01*
X007980Y011414D01*
X007976Y011364D01*
X007968Y011314D01*
X007956Y011265D01*
X007941Y011217D01*
X007922Y011170D01*
X007899Y011125D01*
X007873Y011082D01*
X007844Y011041D01*
X007811Y011002D01*
X007776Y010966D01*
X007738Y010933D01*
X007698Y010903D01*
X007655Y010876D01*
X007610Y010853D01*
X007564Y010833D01*
X007516Y010816D01*
X007468Y010804D01*
X007418Y010795D01*
X007368Y010790D01*
X007317Y010789D01*
X007267Y010792D01*
X007217Y010799D01*
X007168Y010810D01*
X007120Y010824D01*
X007073Y010842D01*
X007027Y010864D01*
X006983Y010889D01*
X006942Y010918D01*
X006903Y010949D01*
X006866Y010984D01*
X006832Y011021D01*
X006801Y011061D01*
X006773Y011103D01*
X006749Y011147D01*
X006728Y011193D01*
X006711Y011241D01*
X006698Y011289D01*
X006688Y011339D01*
X006682Y011389D01*
X006680Y011439D01*
X000680Y011439D02*
X000682Y011489D01*
X000688Y011539D01*
X000698Y011589D01*
X000711Y011637D01*
X000728Y011685D01*
X000749Y011731D01*
X000773Y011775D01*
X000801Y011817D01*
X000832Y011857D01*
X000866Y011894D01*
X000903Y011929D01*
X000942Y011960D01*
X000983Y011989D01*
X001027Y012014D01*
X001073Y012036D01*
X001120Y012054D01*
X001168Y012068D01*
X001217Y012079D01*
X001267Y012086D01*
X001317Y012089D01*
X001368Y012088D01*
X001418Y012083D01*
X001468Y012074D01*
X001516Y012062D01*
X001564Y012045D01*
X001610Y012025D01*
X001655Y012002D01*
X001698Y011975D01*
X001738Y011945D01*
X001776Y011912D01*
X001811Y011876D01*
X001844Y011837D01*
X001873Y011796D01*
X001899Y011753D01*
X001922Y011708D01*
X001941Y011661D01*
X001956Y011613D01*
X001968Y011564D01*
X001976Y011514D01*
X001980Y011464D01*
X001980Y011414D01*
X001976Y011364D01*
X001968Y011314D01*
X001956Y011265D01*
X001941Y011217D01*
X001922Y011170D01*
X001899Y011125D01*
X001873Y011082D01*
X001844Y011041D01*
X001811Y011002D01*
X001776Y010966D01*
X001738Y010933D01*
X001698Y010903D01*
X001655Y010876D01*
X001610Y010853D01*
X001564Y010833D01*
X001516Y010816D01*
X001468Y010804D01*
X001418Y010795D01*
X001368Y010790D01*
X001317Y010789D01*
X001267Y010792D01*
X001217Y010799D01*
X001168Y010810D01*
X001120Y010824D01*
X001073Y010842D01*
X001027Y010864D01*
X000983Y010889D01*
X000942Y010918D01*
X000903Y010949D01*
X000866Y010984D01*
X000832Y011021D01*
X000801Y011061D01*
X000773Y011103D01*
X000749Y011147D01*
X000728Y011193D01*
X000711Y011241D01*
X000698Y011289D01*
X000688Y011339D01*
X000682Y011389D01*
X000680Y011439D01*
X000680Y005140D02*
X000682Y005190D01*
X000688Y005240D01*
X000698Y005290D01*
X000711Y005338D01*
X000728Y005386D01*
X000749Y005432D01*
X000773Y005476D01*
X000801Y005518D01*
X000832Y005558D01*
X000866Y005595D01*
X000903Y005630D01*
X000942Y005661D01*
X000983Y005690D01*
X001027Y005715D01*
X001073Y005737D01*
X001120Y005755D01*
X001168Y005769D01*
X001217Y005780D01*
X001267Y005787D01*
X001317Y005790D01*
X001368Y005789D01*
X001418Y005784D01*
X001468Y005775D01*
X001516Y005763D01*
X001564Y005746D01*
X001610Y005726D01*
X001655Y005703D01*
X001698Y005676D01*
X001738Y005646D01*
X001776Y005613D01*
X001811Y005577D01*
X001844Y005538D01*
X001873Y005497D01*
X001899Y005454D01*
X001922Y005409D01*
X001941Y005362D01*
X001956Y005314D01*
X001968Y005265D01*
X001976Y005215D01*
X001980Y005165D01*
X001980Y005115D01*
X001976Y005065D01*
X001968Y005015D01*
X001956Y004966D01*
X001941Y004918D01*
X001922Y004871D01*
X001899Y004826D01*
X001873Y004783D01*
X001844Y004742D01*
X001811Y004703D01*
X001776Y004667D01*
X001738Y004634D01*
X001698Y004604D01*
X001655Y004577D01*
X001610Y004554D01*
X001564Y004534D01*
X001516Y004517D01*
X001468Y004505D01*
X001418Y004496D01*
X001368Y004491D01*
X001317Y004490D01*
X001267Y004493D01*
X001217Y004500D01*
X001168Y004511D01*
X001120Y004525D01*
X001073Y004543D01*
X001027Y004565D01*
X000983Y004590D01*
X000942Y004619D01*
X000903Y004650D01*
X000866Y004685D01*
X000832Y004722D01*
X000801Y004762D01*
X000773Y004804D01*
X000749Y004848D01*
X000728Y004894D01*
X000711Y004942D01*
X000698Y004990D01*
X000688Y005040D01*
X000682Y005090D01*
X000680Y005140D01*
D16*
X003583Y003778D03*
X003898Y003778D03*
X004213Y003778D03*
X004527Y003778D03*
X004842Y003778D03*
X005157Y003778D03*
X005157Y002882D03*
X004842Y002882D03*
X004527Y002882D03*
X004213Y002882D03*
X003898Y002882D03*
X003583Y002885D03*
X011929Y002885D03*
X012244Y002882D03*
X012559Y002882D03*
X012874Y002882D03*
X013189Y002882D03*
X013504Y002882D03*
X013504Y003778D03*
X013189Y003778D03*
X012874Y003778D03*
X012559Y003778D03*
X012244Y003778D03*
X011929Y003778D03*
X011929Y009184D03*
X012244Y009181D03*
X012559Y009181D03*
X012874Y009181D03*
X013189Y009181D03*
X013504Y009181D03*
X013504Y010077D03*
X013189Y010077D03*
X012874Y010077D03*
X012559Y010077D03*
X012244Y010077D03*
X011929Y010077D03*
X005157Y010077D03*
X004842Y010077D03*
X004527Y010077D03*
X004213Y010077D03*
X003898Y010077D03*
X003583Y010077D03*
X003583Y009184D03*
X003898Y009181D03*
X004213Y009181D03*
X004527Y009181D03*
X004842Y009181D03*
X005157Y009181D03*
D17*
X005197Y009629D03*
X003543Y009629D03*
X003543Y003330D03*
X005197Y003330D03*
X011890Y003330D03*
X013543Y003330D03*
X013543Y009629D03*
X011890Y009629D03*
D18*
X009426Y009189D03*
X006280Y012039D03*
X001080Y009189D03*
X006280Y005740D03*
X009426Y002890D03*
X014626Y005740D03*
X014626Y012039D03*
X001080Y002890D03*
D19*
X004180Y004340D03*
X004180Y010639D03*
X012526Y010639D03*
X012526Y004340D03*
D20*
X011936Y004290D02*
X011929Y004283D01*
X011929Y003778D01*
X011890Y003330D02*
X011366Y003330D01*
X011176Y003140D01*
X011176Y000640D01*
X011929Y000887D02*
X012176Y000640D01*
X011929Y000887D02*
X011929Y002885D01*
X012244Y002882D02*
X012244Y001572D01*
X013176Y000640D01*
X013189Y001628D02*
X014176Y000640D01*
X015176Y000640D02*
X013504Y002313D01*
X013504Y002882D01*
X013189Y002882D02*
X013189Y001628D01*
X013543Y003330D02*
X013986Y003330D01*
X016176Y001140D01*
X016176Y000640D01*
X013504Y003778D02*
X013504Y004357D01*
X013586Y004440D01*
X013796Y004440D01*
X013796Y004670D01*
X013746Y004720D01*
X011936Y004720D01*
X011936Y005290D01*
X012125Y005290D01*
X011936Y004720D02*
X011936Y004290D01*
X011926Y004300D01*
X011696Y004300D01*
X011406Y004010D01*
X011126Y004010D01*
X011126Y003860D01*
X011026Y003760D01*
X010376Y003760D01*
X010226Y003610D01*
X010226Y000690D01*
X010176Y000640D01*
X007830Y000640D02*
X007830Y001140D01*
X005640Y003330D01*
X005197Y003330D01*
X005157Y003778D02*
X005157Y004357D01*
X005240Y004440D01*
X005450Y004440D01*
X005450Y004670D01*
X005400Y004720D01*
X003590Y004720D01*
X003590Y005290D01*
X003779Y005290D01*
X003590Y004720D02*
X003590Y004290D01*
X003583Y004283D01*
X003583Y003778D01*
X003543Y003330D02*
X003020Y003330D01*
X002830Y003140D01*
X002830Y000640D01*
X003583Y000887D02*
X003830Y000640D01*
X003583Y000887D02*
X003583Y002885D01*
X003898Y002882D02*
X003898Y001572D01*
X004830Y000640D01*
X004842Y001628D02*
X005830Y000640D01*
X006830Y000640D02*
X005157Y002313D01*
X005157Y002882D01*
X004842Y002882D02*
X004842Y001628D01*
X002680Y003760D02*
X002030Y003760D01*
X001880Y003610D01*
X001880Y000690D01*
X001830Y000640D01*
X002680Y003760D02*
X002780Y003860D01*
X002780Y004010D01*
X003060Y004010D01*
X003350Y004300D01*
X003580Y004300D01*
X003590Y004290D01*
X002780Y004495D02*
X002780Y004010D01*
X002770Y004486D02*
X002780Y004495D01*
X005450Y004440D02*
X005815Y004440D01*
X005880Y004486D01*
X005830Y006939D02*
X004842Y007927D01*
X004842Y009181D01*
X005157Y009181D02*
X005157Y008612D01*
X006830Y006939D01*
X007830Y006939D02*
X007830Y007439D01*
X005640Y009629D01*
X005197Y009629D01*
X005157Y010077D02*
X005157Y010657D01*
X005240Y010739D01*
X005450Y010739D01*
X005450Y010969D01*
X005400Y011019D01*
X003590Y011019D01*
X003590Y011589D01*
X003779Y011589D01*
X003590Y011019D02*
X003590Y010589D01*
X003583Y010582D01*
X003583Y010077D01*
X003543Y009629D02*
X003020Y009629D01*
X002830Y009439D01*
X002830Y006939D01*
X003583Y007187D02*
X003830Y006939D01*
X003583Y007187D02*
X003583Y009184D01*
X003898Y009181D02*
X003898Y007872D01*
X004830Y006939D01*
X001880Y006989D02*
X001830Y006939D01*
X001880Y006989D02*
X001880Y009909D01*
X002030Y010059D01*
X002680Y010059D01*
X002780Y010159D01*
X002780Y010309D01*
X003060Y010309D01*
X003350Y010599D01*
X003580Y010599D01*
X003590Y010589D01*
X002780Y010795D02*
X002780Y010309D01*
X002770Y010785D02*
X002780Y010795D01*
X005450Y010739D02*
X005815Y010739D01*
X005880Y010785D01*
X010226Y009909D02*
X010226Y006989D01*
X010176Y006939D01*
X011176Y006939D02*
X011176Y009439D01*
X011366Y009629D01*
X011890Y009629D01*
X011929Y010077D02*
X011929Y010582D01*
X011936Y010589D01*
X011926Y010599D01*
X011696Y010599D01*
X011406Y010309D01*
X011126Y010309D01*
X011126Y010159D01*
X011026Y010059D01*
X010376Y010059D01*
X010226Y009909D01*
X011126Y010309D02*
X011126Y010795D01*
X011116Y010785D01*
X011936Y010589D02*
X011936Y011019D01*
X011936Y011589D01*
X012125Y011589D01*
X011936Y011019D02*
X013746Y011019D01*
X013796Y010969D01*
X013796Y010739D01*
X014161Y010739D01*
X014226Y010785D01*
X013796Y010739D02*
X013586Y010739D01*
X013504Y010657D01*
X013504Y010077D01*
X013543Y009629D02*
X013986Y009629D01*
X016176Y007439D01*
X016176Y006939D01*
X015176Y006939D02*
X013504Y008612D01*
X013504Y009181D01*
X013189Y009181D02*
X013189Y007927D01*
X014176Y006939D01*
X013176Y006939D02*
X012244Y007872D01*
X012244Y009181D01*
X011929Y009184D02*
X011929Y007187D01*
X012176Y006939D01*
X011126Y004495D02*
X011126Y004010D01*
X011116Y004486D02*
X011126Y004495D01*
X013796Y004440D02*
X014161Y004440D01*
X014226Y004486D01*
M02*
